<svg width="360" height="360" viewBox="0 0 360 360" fill="none" xmlns="http://www.w3.org/2000/svg">
<rect width="360" height="360" fill="#FAC8CD"/>
<path d="M150.991 106.86C140.216 121.313 142.319 134.452 142.319 134.452C146.523 124.992 161.24 128.145 171.751 117.634C182.263 107.122 165.444 101.078 167.284 97.1361C169.123 93.1945 165.182 90.3038 165.182 90.3038C157.823 97.662 142.844 87.6758 136.012 101.604C129.179 115.531 135.749 133.927 135.749 133.927C140.742 113.955 150.991 106.86 150.991 106.86Z" fill="url(#paint0_linear_45_173)"/>
<path d="M139.816 139.858C160.095 136.314 170.74 142.801 170.74 142.801C153.157 138.821 142.002 146.076 142.002 146.076C152.355 146.079 155.446 160.808 169.32 166.148C183.193 171.487 181.89 153.663 186.239 153.745C190.588 153.826 191.631 149.05 191.631 149.05C181.919 145.312 184.965 127.569 169.463 126.978C153.961 126.387 139.816 139.858 139.816 139.858Z" fill="url(#paint1_linear_45_173)"/>
<path d="M132.95 150.434C136.941 159.986 124.544 168.52 124.967 183.379C125.391 198.239 141.334 190.162 142.936 194.206C144.539 198.25 149.347 197.369 149.347 197.369C149.05 186.968 166.595 182.935 161.162 168.404C155.728 153.873 137.844 146.018 137.844 146.018C148.934 163.362 147.055 175.685 147.055 175.685C143.946 157.927 132.95 150.434 132.95 150.434Z" fill="url(#paint2_linear_45_173)"/>
<path d="M118.461 175.285C129.297 164.183 128.791 144.656 128.791 144.656C117.819 162.075 105.869 165.621 105.869 165.621C120.613 155.248 122.713 142.108 122.713 142.108C115.768 149.785 102.769 142.2 89.5035 148.909C76.2379 155.619 90.333 166.606 87.356 169.778C84.379 172.95 87.2227 176.925 87.2227 176.925C96.5084 172.229 107.627 186.388 118.461 175.285Z" fill="url(#paint3_linear_45_173)"/>
<path d="M98.0684 122.68C108.577 134.093 128.102 134.63 128.102 134.63C111.294 122.744 108.392 110.621 108.392 110.621C117.962 125.898 130.971 128.697 130.971 128.697C123.676 121.352 131.944 108.776 125.953 95.1712C119.961 81.5667 108.237 95.0549 105.229 91.9128C102.22 88.7707 98.0985 91.3983 98.0985 91.3983C102.293 100.922 87.5602 111.268 98.0684 122.68Z" fill="url(#paint4_linear_45_173)"/>
<path d="M73.4677 142.073C69.0006 144.701 77.4097 143.124 84.7679 139.971C92.1257 136.817 112.361 136.029 119.719 138.657C127.077 141.285 132.332 146.015 135.749 141.022C137.536 138.41 104.598 123.761 73.4677 142.073Z" fill="url(#paint5_linear_45_173)"/>
<path d="M83.7168 133.138C83.7168 133.138 78.1985 127.883 75.8332 130.511C73.4678 133.138 83.7168 133.138 83.7168 133.138Z" fill="url(#paint6_linear_45_173)"/>
<path d="M77.9354 135.766C77.9354 135.766 68.7378 131.562 67.4242 135.241C66.1102 138.919 77.9354 135.766 77.9354 135.766Z" fill="url(#paint7_linear_45_173)"/>
<path d="M64.0074 143.913C63.7447 147.329 70.5774 141.022 70.5774 141.022C70.5774 141.022 64.2705 140.496 64.0074 143.913Z" fill="url(#paint8_linear_45_173)"/>
<path d="M73.2049 151.534C76.0956 152.585 73.9935 145.753 73.9935 145.753C73.9935 145.753 70.3142 150.483 73.2049 151.534Z" fill="url(#paint9_linear_45_173)"/>
<path d="M78.9864 152.059C82.4025 153.636 81.0885 144.175 81.0885 144.175C81.0885 144.175 75.5702 150.482 78.9864 152.059Z" fill="url(#paint10_linear_45_173)"/>
<path d="M86.3448 141.022C86.3448 141.022 82.4028 147.066 85.0308 147.854C87.6588 148.643 86.3448 141.022 86.3448 141.022Z" fill="url(#paint11_linear_45_173)"/>
<path d="M236.134 83.1172C232.397 80.6675 225.63 86.3343 218.735 99.1494C216.464 101.411 212.691 102.016 205.918 100.005C199.145 97.9934 193.977 101.006 190.16 105.816C186.343 110.625 187.082 122.799 187.913 126.781C188.744 130.763 181.932 149.829 169.058 142.172C163.2 138.687 160.799 134.534 156.738 132.552C151.876 130.178 145.702 130.396 142.803 131.548C137.481 133.664 135.296 133.648 130.731 143.018C126.166 152.388 125.784 161.536 144.487 183.635C163.189 205.733 145.187 222.615 136.683 219.487C128.18 216.359 130.493 215.889 122.324 211.697C114.155 207.506 110.62 208.003 103.521 210.651C96.4215 213.3 88.2551 227.703 91.9672 239.205C95.6793 250.707 95.2031 249.053 97.2766 255.363C99.5814 263.592 99.5186 267.835 96.7371 274.676C94.7393 278.992 92.6063 281.546 89.3655 283.776C86.1247 286.006 82.0555 288.42 77.7088 288.955C77.7088 288.955 80.8925 289.306 85.5041 288.568C90.1157 287.829 96.8569 281.443 99.824 276.55C102.791 271.657 103.994 264.084 101.923 254.796L99.2971 244.462C96.1306 232.562 98.9451 222.602 104.377 218.81C109.808 215.018 113.047 215.447 119.354 219.037L122.483 221.449L127.93 225.58C136.939 231.112 146.21 229.331 154.213 223.038C162.215 216.745 171.61 192.37 151.176 174.936C130.743 157.501 139.382 146.29 144.493 142.909C149.605 139.529 152.732 140.554 156.282 143.825C158.446 145.795 160.801 149.224 163.113 150.443C165.425 151.663 174.293 154.554 182.728 151.922C191.155 148.293 196.333 139.875 196.572 134.66C196.812 129.444 196.828 125.656 195.18 118.836C195.18 118.836 193.138 106.291 203.701 107.024C214.265 107.757 219.31 108.026 222.402 105.112C237.172 100.089 239.872 85.5669 236.134 83.1172Z" fill="url(#paint12_linear_45_173)" fill-opacity="0.5"/>
<path d="M201.733 281.134C201.733 281.134 204.534 265.263 194.731 256.86C194.731 256.86 203.834 261.295 206.401 274.599C206.401 274.599 209.669 257.327 190.53 247.991C190.53 247.991 171.391 273.665 201.733 281.134Z" fill="url(#paint13_linear_45_173)"/>
<path d="M225.426 245.095C225.426 245.095 212.577 233.099 194.454 244.281C194.454 244.281 205.918 274.182 228.453 252.534C228.453 252.534 216.538 241.682 204.196 245.473C204.196 245.473 212.81 240.152 225.426 245.095Z" fill="url(#paint14_linear_45_173)"/>
<path d="M190.646 242C190.646 242 222.599 239.89 208.582 211.962C208.582 211.962 194.691 220.135 194.664 233.046C194.664 233.046 192.128 223.243 200.581 212.654C200.581 212.654 185.322 221.381 190.646 242Z" fill="url(#paint15_linear_45_173)"/>
<path d="M162.016 224.343C162.016 224.343 165.882 241.491 187.155 242.451C187.155 242.451 194.513 211.285 163.703 216.491C163.703 216.491 167.44 232.168 179.775 235.982C179.775 235.982 169.659 235.53 162.016 224.343Z" fill="url(#paint16_linear_45_173)"/>
<path d="M180.806 252.039C180.806 252.039 179.628 262.096 167.92 268.915C167.92 268.915 185.301 266.292 187.79 245.143C187.79 245.143 157.235 235.562 160.21 266.667C160.21 266.667 176.115 264.068 180.806 252.039Z" fill="url(#paint17_linear_45_173)"/>
<path d="M145.827 258.541C145.827 258.541 145.792 245.397 130.423 241.238C130.423 241.238 119.987 262.788 143.32 263.997C143.32 263.997 143.14 251.948 134.757 247.159C134.757 247.159 142.066 249.133 145.827 258.541Z" fill="url(#paint18_linear_45_173)"/>
<path d="M158.91 239.232C158.91 239.232 148.632 232.941 140.104 237.464C140.104 237.464 145.679 232.343 155.639 234.196C155.639 234.196 144.514 227.197 132.782 237.962C132.782 237.962 145.413 258.304 158.91 239.232Z" fill="url(#paint19_linear_45_173)"/>
<path d="M138.602 212.238C138.602 212.238 129.553 220.198 131.353 229.682C131.353 229.682 128.109 222.841 132.823 213.874C132.823 213.874 122.849 222.433 129.664 236.823C129.664 236.823 152.83 230.771 138.602 212.238Z" fill="url(#paint20_linear_45_173)"/>
<path d="M120.833 233.936C120.833 233.936 113.342 235.029 106.152 227.892C106.152 227.892 111.408 239.938 127.164 237.646C127.164 237.646 128.176 213.724 106.284 221.888C106.284 221.888 111.238 232.873 120.833 233.936Z" fill="url(#paint21_linear_45_173)"/>
<path d="M116.768 259.789C116.768 259.789 129.162 255.414 128.009 239.534C128.009 239.534 104.222 236.803 110.79 259.225C110.79 259.225 122.103 255.075 123.853 245.581C123.853 245.581 124.405 253.132 116.768 259.789Z" fill="url(#paint22_linear_45_173)"/>
<path d="M226.995 173.152C226.995 173.152 192.169 219.869 247.381 233.459C247.381 233.459 252.477 204.58 234.639 189.291C234.639 189.291 251.203 197.36 255.875 221.568C255.875 221.568 261.82 190.14 226.995 173.152Z" fill="url(#paint23_linear_45_173)"/>
<path d="M290.492 167.885C290.492 167.885 267.113 146.057 234.137 166.403C234.137 166.403 254.995 220.811 296 181.421C296 181.421 274.32 161.673 251.862 168.572C251.862 168.572 267.537 158.889 290.492 167.885Z" fill="url(#paint24_linear_45_173)"/>
<path d="M259.842 107.593C259.842 107.593 234.568 122.466 234.518 145.959C234.518 145.959 229.903 128.122 245.283 108.853C245.283 108.853 217.518 124.733 227.206 162.25C227.206 162.25 285.348 158.411 259.842 107.593Z" fill="url(#paint25_linear_45_173)"/>
<path d="M175.112 130.122C175.112 130.122 182.147 161.325 220.855 163.072C220.855 163.072 234.245 106.362 178.18 115.835C178.18 115.835 184.981 144.361 207.426 151.301C207.426 151.301 189.02 150.479 175.112 130.122Z" fill="url(#paint26_linear_45_173)"/>
<path d="M209.302 180.518C209.302 180.518 207.158 198.817 185.853 211.225C185.853 211.225 217.481 206.454 222.009 167.971C222.009 167.971 166.41 150.536 171.823 207.136C171.823 207.136 200.765 202.405 209.302 180.518Z" fill="url(#paint27_linear_45_173)"/>
<path d="M135.961 132V131.883C137.18 131.742 137.785 131.324 137.777 130.629V116.566C137.777 115.879 137.172 115.465 135.961 115.324V115.195H141.809V115.324C140.59 115.465 139.984 115.879 139.992 116.566V130.629C139.992 131.316 140.598 131.734 141.809 131.883V132H135.961ZM159.727 132L159.867 130.348V124.629C159.867 123.379 159.633 122.5 159.164 121.992C158.695 121.477 158.125 121.219 157.453 121.219C157.297 121.219 157.133 121.238 156.961 121.277C156.789 121.309 156.637 121.34 156.504 121.371C156.379 121.402 156.223 121.465 156.035 121.559C155.855 121.652 155.719 121.723 155.625 121.77C155.531 121.809 155.375 121.906 155.156 122.062C154.938 122.211 154.793 122.309 154.723 122.355C154.652 122.402 154.484 122.523 154.219 122.719C153.953 122.906 153.789 123.023 153.727 123.07C153.805 123.586 153.844 124.09 153.844 124.582V129.773C153.844 130.414 153.906 130.887 154.031 131.191C154.164 131.488 154.414 131.758 154.781 132H151.734L151.875 130.348V124.629C151.875 123.379 151.641 122.5 151.172 121.992C150.703 121.477 150.133 121.219 149.461 121.219C149.336 121.219 149.207 121.23 149.074 121.254C148.941 121.27 148.824 121.289 148.723 121.312C148.621 121.336 148.496 121.379 148.348 121.441C148.207 121.504 148.094 121.547 148.008 121.57C147.93 121.594 147.809 121.66 147.645 121.77C147.488 121.871 147.383 121.938 147.328 121.969C147.273 122 147.152 122.082 146.965 122.215C146.785 122.34 146.672 122.418 146.625 122.449C146.578 122.48 146.449 122.578 146.238 122.742C146.027 122.898 145.898 122.992 145.852 123.023V129.773C145.852 130.414 145.914 130.887 146.039 131.191C146.172 131.488 146.422 131.758 146.789 132H143.742L143.883 130.348V121.125C143.531 120.898 143.043 120.754 142.418 120.691V120.598L145.98 120.234L145.852 122.016V122.496C146.508 122.004 147.012 121.637 147.363 121.395C147.715 121.152 148.215 120.895 148.863 120.621C149.512 120.348 150.133 120.211 150.727 120.211C152.328 120.211 153.312 121.078 153.68 122.812V122.613C155.008 121.621 155.984 120.988 156.609 120.715C157.328 120.379 158.031 120.211 158.719 120.211C160.797 120.211 161.836 121.668 161.836 124.582V129.773C161.836 130.414 161.898 130.887 162.023 131.191C162.156 131.488 162.406 131.758 162.773 132H159.727ZM175.395 130.031C175.395 130.672 175.457 131.137 175.582 131.426C175.715 131.715 175.965 131.977 176.332 132.211V132.293L172.828 131.543C172.844 131.543 172.852 131.535 172.852 131.52C172.039 131.949 171.086 132.164 169.992 132.164C168.297 132.164 166.91 131.672 165.832 130.688C164.754 129.703 164.215 128.348 164.215 126.621C164.215 124.801 164.859 123.277 166.148 122.051C167.438 120.824 169.266 120.211 171.633 120.211C173.055 120.211 174.309 120.508 175.395 121.102V130.031ZM166.348 125.355C166.348 127.082 166.828 128.543 167.789 129.738C168.75 130.926 169.941 131.52 171.363 131.52C172.215 131.52 172.887 131.23 173.379 130.652C173.41 130.332 173.426 130.02 173.426 129.715V121.969C172.613 121.102 171.605 120.668 170.402 120.668C169.137 120.668 168.145 121.094 167.426 121.945C166.707 122.797 166.348 123.934 166.348 125.355ZM185.438 120.211C186.859 120.211 188.113 120.508 189.199 121.102V133.324C189.199 133.691 188.84 134.168 188.121 134.754C187.402 135.348 186.527 135.871 185.496 136.324C184.465 136.785 183.582 137.016 182.848 137.016C182.223 137.016 181.555 136.84 180.844 136.488C180.141 136.137 179.566 135.562 179.121 134.766L181.23 134.133C181.902 135.508 182.977 136.195 184.453 136.195C185.25 136.195 185.91 135.895 186.434 135.293C186.965 134.699 187.23 134.008 187.23 133.219V131.156C186.348 131.828 185.203 132.164 183.797 132.164C182.102 132.164 180.715 131.672 179.637 130.688C178.559 129.703 178.02 128.348 178.02 126.621C178.02 124.801 178.664 123.277 179.953 122.051C181.242 120.824 183.07 120.211 185.438 120.211ZM185.168 131.473C186.051 131.473 186.738 131.16 187.23 130.535V121.969C186.418 121.102 185.41 120.668 184.207 120.668C182.941 120.668 181.949 121.094 181.23 121.945C180.512 122.789 180.152 123.926 180.152 125.355C180.152 127.082 180.633 128.535 181.594 129.715C182.555 130.887 183.746 131.473 185.168 131.473ZM202.441 129.574L202.559 129.668C202.176 130.371 201.523 130.965 200.602 131.449C199.68 131.926 198.629 132.164 197.449 132.164C195.77 132.164 194.352 131.656 193.195 130.641C192.047 129.625 191.473 128.238 191.473 126.48C191.473 124.605 192.117 123.094 193.406 121.945C194.695 120.789 196.242 120.211 198.047 120.211C199.789 120.211 201.062 120.773 201.867 121.898C202.445 122.711 202.582 123.504 202.277 124.277C202.004 124.98 201.441 125.332 200.59 125.332H193.582C193.598 126.996 194.039 128.379 194.906 129.48C195.781 130.582 196.926 131.133 198.34 131.133C199.074 131.133 199.855 130.992 200.684 130.711C201.52 130.43 202.105 130.051 202.441 129.574ZM197.156 120.645C196.133 120.645 195.297 121.027 194.648 121.793C194 122.551 193.645 123.602 193.582 124.945L199.805 124.875C200.234 124.875 200.457 124.555 200.473 123.914C200.473 123.086 200.152 122.332 199.512 121.652C198.871 120.98 198.086 120.645 197.156 120.645ZM220.641 132L220.781 130.348V124.629C220.781 123.379 220.547 122.5 220.078 121.992C219.609 121.477 219.039 121.219 218.367 121.219C218.211 121.219 218.047 121.238 217.875 121.277C217.703 121.309 217.551 121.34 217.418 121.371C217.293 121.402 217.137 121.465 216.949 121.559C216.77 121.652 216.633 121.723 216.539 121.77C216.445 121.809 216.289 121.906 216.07 122.062C215.852 122.211 215.707 122.309 215.637 122.355C215.566 122.402 215.398 122.523 215.133 122.719C214.867 122.906 214.703 123.023 214.641 123.07C214.719 123.586 214.758 124.09 214.758 124.582V129.773C214.758 130.414 214.82 130.887 214.945 131.191C215.078 131.488 215.328 131.758 215.695 132H212.648L212.789 130.348V124.629C212.789 123.379 212.555 122.5 212.086 121.992C211.617 121.477 211.047 121.219 210.375 121.219C210.25 121.219 210.121 121.23 209.988 121.254C209.855 121.27 209.738 121.289 209.637 121.312C209.535 121.336 209.41 121.379 209.262 121.441C209.121 121.504 209.008 121.547 208.922 121.57C208.844 121.594 208.723 121.66 208.559 121.77C208.402 121.871 208.297 121.938 208.242 121.969C208.188 122 208.066 122.082 207.879 122.215C207.699 122.34 207.586 122.418 207.539 122.449C207.492 122.48 207.363 122.578 207.152 122.742C206.941 122.898 206.812 122.992 206.766 123.023V129.773C206.766 130.414 206.828 130.887 206.953 131.191C207.086 131.488 207.336 131.758 207.703 132H204.656L204.797 130.348V121.125C204.445 120.898 203.957 120.754 203.332 120.691V120.598L206.895 120.234L206.766 122.016V122.496C207.422 122.004 207.926 121.637 208.277 121.395C208.629 121.152 209.129 120.895 209.777 120.621C210.426 120.348 211.047 120.211 211.641 120.211C213.242 120.211 214.227 121.078 214.594 122.812V122.613C215.922 121.621 216.898 120.988 217.523 120.715C218.242 120.379 218.945 120.211 219.633 120.211C221.711 120.211 222.75 121.668 222.75 124.582V129.773C222.75 130.414 222.812 130.887 222.938 131.191C223.07 131.488 223.32 131.758 223.688 132H220.641ZM178.77 159.031C178.77 159.672 178.832 160.137 178.957 160.426C179.09 160.715 179.34 160.977 179.707 161.211V161.293L176.203 160.543C176.219 160.543 176.227 160.535 176.227 160.52C175.414 160.949 174.461 161.164 173.367 161.164C171.672 161.164 170.285 160.672 169.207 159.688C168.129 158.703 167.59 157.348 167.59 155.621C167.59 153.801 168.234 152.277 169.523 151.051C170.812 149.824 172.641 149.211 175.008 149.211C175.695 149.211 176.293 149.27 176.801 149.387V145.156C176.801 144.711 176.672 144.473 176.414 144.441C176.164 144.41 175.672 144.523 174.938 144.781V144.629L178.898 142.766L178.77 143.645V159.031ZM169.723 154.355C169.723 156.082 170.203 157.543 171.164 158.738C172.125 159.926 173.316 160.52 174.738 160.52C175.59 160.52 176.262 160.23 176.754 159.652C176.785 159.332 176.801 159.02 176.801 158.715V150.969C175.988 150.102 174.98 149.668 173.777 149.668C172.512 149.668 171.52 150.094 170.801 150.945C170.082 151.797 169.723 152.934 169.723 154.355ZM192.48 158.574L192.598 158.668C192.215 159.371 191.562 159.965 190.641 160.449C189.719 160.926 188.668 161.164 187.488 161.164C185.809 161.164 184.391 160.656 183.234 159.641C182.086 158.625 181.512 157.238 181.512 155.48C181.512 153.605 182.156 152.094 183.445 150.945C184.734 149.789 186.281 149.211 188.086 149.211C189.828 149.211 191.102 149.773 191.906 150.898C192.484 151.711 192.621 152.504 192.316 153.277C192.043 153.98 191.48 154.332 190.629 154.332H183.621C183.637 155.996 184.078 157.379 184.945 158.48C185.82 159.582 186.965 160.133 188.379 160.133C189.113 160.133 189.895 159.992 190.723 159.711C191.559 159.43 192.145 159.051 192.48 158.574ZM187.195 149.645C186.172 149.645 185.336 150.027 184.688 150.793C184.039 151.551 183.684 152.602 183.621 153.945L189.844 153.875C190.273 153.875 190.496 153.555 190.512 152.914C190.512 152.086 190.191 151.332 189.551 150.652C188.91 149.98 188.125 149.645 187.195 149.645ZM147.387 188.031C147.387 188.672 147.449 189.137 147.574 189.426C147.707 189.715 147.957 189.977 148.324 190.211V190.293L144.82 189.543C144.836 189.543 144.844 189.535 144.844 189.52C144.031 189.949 143.078 190.164 141.984 190.164C140.289 190.164 138.902 189.672 137.824 188.688C136.746 187.703 136.207 186.348 136.207 184.621C136.207 182.801 136.852 181.277 138.141 180.051C139.43 178.824 141.258 178.211 143.625 178.211C145.047 178.211 146.301 178.508 147.387 179.102V188.031ZM138.34 183.355C138.34 185.082 138.82 186.543 139.781 187.738C140.742 188.926 141.934 189.52 143.355 189.52C144.207 189.52 144.879 189.23 145.371 188.652C145.402 188.332 145.418 188.02 145.418 187.715V179.969C144.605 179.102 143.598 178.668 142.395 178.668C141.129 178.668 140.137 179.094 139.418 179.945C138.699 180.797 138.34 181.934 138.34 183.355ZM166.828 190L166.969 188.348V182.629C166.969 181.379 166.734 180.5 166.266 179.992C165.797 179.477 165.227 179.219 164.555 179.219C164.398 179.219 164.234 179.238 164.062 179.277C163.891 179.309 163.738 179.34 163.605 179.371C163.48 179.402 163.324 179.465 163.137 179.559C162.957 179.652 162.82 179.723 162.727 179.77C162.633 179.809 162.477 179.906 162.258 180.062C162.039 180.211 161.895 180.309 161.824 180.355C161.754 180.402 161.586 180.523 161.32 180.719C161.055 180.906 160.891 181.023 160.828 181.07C160.906 181.586 160.945 182.09 160.945 182.582V187.773C160.945 188.414 161.008 188.887 161.133 189.191C161.266 189.488 161.516 189.758 161.883 190H158.836L158.977 188.348V182.629C158.977 181.379 158.742 180.5 158.273 179.992C157.805 179.477 157.234 179.219 156.562 179.219C156.438 179.219 156.309 179.23 156.176 179.254C156.043 179.27 155.926 179.289 155.824 179.312C155.723 179.336 155.598 179.379 155.449 179.441C155.309 179.504 155.195 179.547 155.109 179.57C155.031 179.594 154.91 179.66 154.746 179.77C154.59 179.871 154.484 179.938 154.43 179.969C154.375 180 154.254 180.082 154.066 180.215C153.887 180.34 153.773 180.418 153.727 180.449C153.68 180.48 153.551 180.578 153.34 180.742C153.129 180.898 153 180.992 152.953 181.023V187.773C152.953 188.414 153.016 188.887 153.141 189.191C153.273 189.488 153.523 189.758 153.891 190H150.844L150.984 188.348V179.125C150.633 178.898 150.145 178.754 149.52 178.691V178.598L153.082 178.234L152.953 180.016V180.496C153.609 180.004 154.113 179.637 154.465 179.395C154.816 179.152 155.316 178.895 155.965 178.621C156.613 178.348 157.234 178.211 157.828 178.211C159.43 178.211 160.414 179.078 160.781 180.812V180.613C162.109 179.621 163.086 178.988 163.711 178.715C164.43 178.379 165.133 178.211 165.82 178.211C167.898 178.211 168.938 179.668 168.938 182.582V187.773C168.938 188.414 169 188.887 169.125 189.191C169.258 189.488 169.508 189.758 169.875 190H166.828ZM177.48 178.211C179.285 178.211 180.766 178.766 181.922 179.875C183.078 180.977 183.656 182.414 183.656 184.188C183.656 185.945 183.078 187.383 181.922 188.5C180.773 189.609 179.293 190.164 177.48 190.164C175.691 190.164 174.215 189.609 173.051 188.5C171.895 187.391 171.316 185.957 171.316 184.199C171.316 182.434 171.895 180.996 173.051 179.887C174.215 178.77 175.691 178.211 177.48 178.211ZM178.418 189.766C179.395 189.766 180.164 189.402 180.727 188.676C181.297 187.941 181.582 186.934 181.582 185.652C181.582 184.52 181.375 183.422 180.961 182.359C180.547 181.297 179.945 180.41 179.156 179.699C178.375 178.98 177.504 178.621 176.543 178.621C175.566 178.621 174.793 178.988 174.223 179.723C173.66 180.449 173.379 181.441 173.379 182.699C173.379 183.832 173.586 184.934 174 186.004C174.422 187.066 175.023 187.961 175.805 188.688C176.586 189.406 177.457 189.766 178.418 189.766ZM190.008 190.164C188.203 190.164 186.684 189.695 185.449 188.758L186.738 186.566H186.785C186.785 187.543 187.223 188.328 188.098 188.922C188.973 189.516 189.914 189.812 190.922 189.812C192.43 189.812 193.18 189.098 193.172 187.668C193.172 186.902 192.918 186.332 192.41 185.957C191.91 185.582 191.172 185.312 190.195 185.148C188.531 184.875 187.375 184.414 186.727 183.766C186.078 183.109 185.754 182.379 185.754 181.574C185.754 180.535 186.18 179.715 187.031 179.113C187.891 178.512 188.961 178.211 190.242 178.211C191.07 178.211 191.887 178.34 192.691 178.598C193.496 178.855 194.145 179.176 194.637 179.559L193.148 181.82H193.102C193.148 180.844 192.766 180.059 191.953 179.465C191.148 178.871 190.293 178.574 189.387 178.574C188.668 178.574 188.141 178.777 187.805 179.184C187.477 179.582 187.312 180.066 187.312 180.637C187.312 181.051 187.406 181.41 187.594 181.715C187.781 182.02 188.051 182.262 188.402 182.441C188.754 182.613 189.09 182.746 189.41 182.84C189.73 182.926 190.105 183.008 190.535 183.086C193.363 183.516 194.777 184.652 194.777 186.496C194.777 187.566 194.344 188.445 193.477 189.133C192.617 189.82 191.461 190.164 190.008 190.164ZM198.703 190.387L197.168 189.789L197.238 188.348V176.852C197.238 176.375 197.105 176.113 196.84 176.066C196.574 176.012 196.051 176.113 195.27 176.371V176.219L199.395 174.332L199.207 175.293V178.363H202.078L201.961 178.938H199.207V189.566L201.984 189.473V189.566L199.207 190.387H198.703ZM210.07 178.234C210.5 178.234 210.914 178.332 211.312 178.527L209.355 181.691H209.25C209.523 180.863 209.586 180.289 209.438 179.969C209.297 179.648 209.012 179.488 208.582 179.488C207.988 179.488 207.484 179.805 207.07 180.438C206.656 181.07 206.383 181.832 206.25 182.723V187.773C206.25 188.414 206.312 188.887 206.438 189.191C206.57 189.488 206.82 189.758 207.188 190H204.164L204.281 188.348V179.125C203.93 178.898 203.441 178.754 202.816 178.691V178.598L206.379 178.234L206.25 180.016V180.789H206.566C206.84 180.023 207.297 179.406 207.938 178.938C208.578 178.469 209.289 178.234 210.07 178.234ZM222.855 188.031C222.855 188.672 222.918 189.137 223.043 189.426C223.176 189.715 223.426 189.977 223.793 190.211V190.293L220.289 189.543C220.305 189.543 220.312 189.535 220.312 189.52C219.5 189.949 218.547 190.164 217.453 190.164C215.758 190.164 214.371 189.672 213.293 188.688C212.215 187.703 211.676 186.348 211.676 184.621C211.676 182.801 212.32 181.277 213.609 180.051C214.898 178.824 216.727 178.211 219.094 178.211C220.516 178.211 221.77 178.508 222.855 179.102V188.031ZM213.809 183.355C213.809 185.082 214.289 186.543 215.25 187.738C216.211 188.926 217.402 189.52 218.824 189.52C219.676 189.52 220.348 189.23 220.84 188.652C220.871 188.332 220.887 188.02 220.887 187.715V179.969C220.074 179.102 219.066 178.668 217.863 178.668C216.598 178.668 215.605 179.094 214.887 179.945C214.168 180.797 213.809 181.934 213.809 183.355ZM178.77 217.031C178.77 217.672 178.832 218.137 178.957 218.426C179.09 218.715 179.34 218.977 179.707 219.211V219.293L176.203 218.543C176.219 218.543 176.227 218.535 176.227 218.52C175.414 218.949 174.461 219.164 173.367 219.164C171.672 219.164 170.285 218.672 169.207 217.688C168.129 216.703 167.59 215.348 167.59 213.621C167.59 211.801 168.234 210.277 169.523 209.051C170.812 207.824 172.641 207.211 175.008 207.211C175.695 207.211 176.293 207.27 176.801 207.387V203.156C176.801 202.711 176.672 202.473 176.414 202.441C176.164 202.41 175.672 202.523 174.938 202.781V202.629L178.898 200.766L178.77 201.645V217.031ZM169.723 212.355C169.723 214.082 170.203 215.543 171.164 216.738C172.125 217.926 173.316 218.52 174.738 218.52C175.59 218.52 176.262 218.23 176.754 217.652C176.785 217.332 176.801 217.02 176.801 216.715V208.969C175.988 208.102 174.98 207.668 173.777 207.668C172.512 207.668 171.52 208.094 170.801 208.945C170.082 209.797 169.723 210.934 169.723 212.355ZM192.48 216.574L192.598 216.668C192.215 217.371 191.562 217.965 190.641 218.449C189.719 218.926 188.668 219.164 187.488 219.164C185.809 219.164 184.391 218.656 183.234 217.641C182.086 216.625 181.512 215.238 181.512 213.48C181.512 211.605 182.156 210.094 183.445 208.945C184.734 207.789 186.281 207.211 188.086 207.211C189.828 207.211 191.102 207.773 191.906 208.898C192.484 209.711 192.621 210.504 192.316 211.277C192.043 211.98 191.48 212.332 190.629 212.332H183.621C183.637 213.996 184.078 215.379 184.945 216.48C185.82 217.582 186.965 218.133 188.379 218.133C189.113 218.133 189.895 217.992 190.723 217.711C191.559 217.43 192.145 217.051 192.48 216.574ZM187.195 207.645C186.172 207.645 185.336 208.027 184.688 208.793C184.039 209.551 183.684 210.602 183.621 211.945L189.844 211.875C190.273 211.875 190.496 211.555 190.512 210.914C190.512 210.086 190.191 209.332 189.551 208.652C188.91 207.98 188.125 207.645 187.195 207.645ZM144.281 236.211C146.359 236.211 147.938 236.738 149.016 237.793C150.102 238.84 150.645 240.227 150.645 241.953C150.645 243.773 150.062 245.266 148.898 246.43C147.742 247.586 146.148 248.164 144.117 248.164C143.188 248.164 142.27 248.012 141.363 247.707V250.883C141.363 251.539 141.445 252.016 141.609 252.312C141.781 252.609 142.129 252.875 142.652 253.109V253.18L138.305 252.395V252.324C138.719 252.215 139.004 252.035 139.16 251.785C139.316 251.535 139.395 251.105 139.395 250.496V237.699C139.027 237.457 138.496 237.316 137.801 237.277V237.172C140.059 236.531 142.219 236.211 144.281 236.211ZM144.984 247.73C146.039 247.73 146.891 247.371 147.539 246.652C148.188 245.934 148.512 244.758 148.512 243.125C148.512 241.172 148.062 239.586 147.164 238.367C146.273 237.141 145.113 236.527 143.684 236.527C142.832 236.527 142.059 236.695 141.363 237.031V246.441C142.59 247.301 143.797 247.73 144.984 247.73ZM158.859 236.234C159.289 236.234 159.703 236.332 160.102 236.527L158.145 239.691H158.039C158.312 238.863 158.375 238.289 158.227 237.969C158.086 237.648 157.801 237.488 157.371 237.488C156.777 237.488 156.273 237.805 155.859 238.438C155.445 239.07 155.172 239.832 155.039 240.723V245.773C155.039 246.414 155.102 246.887 155.227 247.191C155.359 247.488 155.609 247.758 155.977 248H152.953L153.07 246.348V237.125C152.719 236.898 152.23 236.754 151.605 236.691V236.598L155.168 236.234L155.039 238.016V238.789H155.355C155.629 238.023 156.086 237.406 156.727 236.938C157.367 236.469 158.078 236.234 158.859 236.234ZM166.629 236.211C168.434 236.211 169.914 236.766 171.07 237.875C172.227 238.977 172.805 240.414 172.805 242.188C172.805 243.945 172.227 245.383 171.07 246.5C169.922 247.609 168.441 248.164 166.629 248.164C164.84 248.164 163.363 247.609 162.199 246.5C161.043 245.391 160.465 243.957 160.465 242.199C160.465 240.434 161.043 238.996 162.199 237.887C163.363 236.77 164.84 236.211 166.629 236.211ZM167.566 247.766C168.543 247.766 169.312 247.402 169.875 246.676C170.445 245.941 170.73 244.934 170.73 243.652C170.73 242.52 170.523 241.422 170.109 240.359C169.695 239.297 169.094 238.41 168.305 237.699C167.523 236.98 166.652 236.621 165.691 236.621C164.715 236.621 163.941 236.988 163.371 237.723C162.809 238.449 162.527 239.441 162.527 240.699C162.527 241.832 162.734 242.934 163.148 244.004C163.57 245.066 164.172 245.961 164.953 246.688C165.734 247.406 166.605 247.766 167.566 247.766ZM185.895 246.031C185.895 246.672 185.957 247.137 186.082 247.426C186.215 247.715 186.465 247.977 186.832 248.211V248.293L183.328 247.543C183.344 247.543 183.352 247.535 183.352 247.52C182.539 247.949 181.586 248.164 180.492 248.164C178.797 248.164 177.41 247.672 176.332 246.688C175.254 245.703 174.715 244.348 174.715 242.621C174.715 240.801 175.359 239.277 176.648 238.051C177.938 236.824 179.766 236.211 182.133 236.211C182.82 236.211 183.418 236.27 183.926 236.387V232.156C183.926 231.711 183.797 231.473 183.539 231.441C183.289 231.41 182.797 231.523 182.062 231.781V231.629L186.023 229.766L185.895 230.645V246.031ZM176.848 241.355C176.848 243.082 177.328 244.543 178.289 245.738C179.25 246.926 180.441 247.52 181.863 247.52C182.715 247.52 183.387 247.23 183.879 246.652C183.91 246.332 183.926 246.02 183.926 245.715V237.969C183.113 237.102 182.105 236.668 180.902 236.668C179.637 236.668 178.645 237.094 177.926 237.945C177.207 238.797 176.848 239.934 176.848 241.355ZM200.016 247.227C200.352 247.453 200.797 247.598 201.352 247.66V247.766L198.047 248.117V245.773C197.359 246.266 196.836 246.637 196.477 246.887C196.117 247.137 195.551 247.414 194.777 247.719C194.012 248.016 193.285 248.164 192.598 248.164C191.699 248.164 190.93 247.844 190.289 247.203C189.648 246.562 189.328 245.43 189.328 243.805V238.637C189.328 237.98 189.242 237.508 189.07 237.219C188.906 236.922 188.562 236.652 188.039 236.41V236.363H191.449L191.297 238.016V243.758C191.297 244.992 191.555 245.867 192.07 246.383C192.594 246.898 193.207 247.156 193.91 247.156C194.426 247.156 194.953 247.047 195.492 246.828C196.039 246.602 196.438 246.402 196.688 246.23C196.938 246.051 197.391 245.719 198.047 245.234V238.637C198.047 237.98 197.961 237.508 197.789 237.219C197.625 236.922 197.277 236.652 196.746 236.41V236.363H200.156L200.016 238.016V247.227ZM205.031 248.387L203.496 247.789L203.566 246.348V234.852C203.566 234.375 203.434 234.113 203.168 234.066C202.902 234.012 202.379 234.113 201.598 234.371V234.219L205.723 232.332L205.535 233.293V236.363H208.406L208.289 236.938H205.535V247.566L208.312 247.473V247.566L205.535 248.387H205.031ZM215.309 236.211C217.113 236.211 218.594 236.766 219.75 237.875C220.906 238.977 221.484 240.414 221.484 242.188C221.484 243.945 220.906 245.383 219.75 246.5C218.602 247.609 217.121 248.164 215.309 248.164C213.52 248.164 212.043 247.609 210.879 246.5C209.723 245.391 209.145 243.957 209.145 242.199C209.145 240.434 209.723 238.996 210.879 237.887C212.043 236.77 213.52 236.211 215.309 236.211ZM216.246 247.766C217.223 247.766 217.992 247.402 218.555 246.676C219.125 245.941 219.41 244.934 219.41 243.652C219.41 242.52 219.203 241.422 218.789 240.359C218.375 239.297 217.773 238.41 216.984 237.699C216.203 236.98 215.332 236.621 214.371 236.621C213.395 236.621 212.621 236.988 212.051 237.723C211.488 238.449 211.207 239.441 211.207 240.699C211.207 241.832 211.414 242.934 211.828 244.004C212.25 245.066 212.852 245.961 213.633 246.688C214.414 247.406 215.285 247.766 216.246 247.766Z" fill="black"/>
<defs>
<linearGradient id="paint0_linear_45_173" x1="154.069" y1="134.452" x2="154.069" y2="90.3038" gradientUnits="userSpaceOnUse">
<stop stop-color="#FBCFDB"/>
<stop offset="1" stop-color="#DBAFB3"/>
</linearGradient>
<linearGradient id="paint1_linear_45_173" x1="165.723" y1="167.146" x2="165.723" y2="126.959" gradientUnits="userSpaceOnUse">
<stop stop-color="#FBCFDB"/>
<stop offset="1" stop-color="#DBAFB3"/>
</linearGradient>
<linearGradient id="paint2_linear_45_173" x1="143.582" y1="197.45" x2="143.582" y2="146.018" gradientUnits="userSpaceOnUse">
<stop stop-color="#FBCFDB"/>
<stop offset="1" stop-color="#DBAFB3"/>
</linearGradient>
<linearGradient id="paint3_linear_45_173" x1="106.254" y1="179.648" x2="106.254" y2="142.108" gradientUnits="userSpaceOnUse">
<stop stop-color="#FBCFDB"/>
<stop offset="1" stop-color="#DBAFB3"/>
</linearGradient>
<linearGradient id="paint4_linear_45_173" x1="112.589" y1="134.63" x2="112.589" y2="88.9684" gradientUnits="userSpaceOnUse">
<stop stop-color="#FBCFDB"/>
<stop offset="1" stop-color="#DBAFB3"/>
</linearGradient>
<linearGradient id="paint5_linear_45_173" x1="104.019" y1="143.4" x2="104.019" y2="133.004" gradientUnits="userSpaceOnUse">
<stop stop-color="#FBCFDB"/>
<stop offset="1" stop-color="#DBAFB3"/>
</linearGradient>
<linearGradient id="paint6_linear_45_173" x1="79.5978" y1="133.138" x2="79.5978" y2="129.775" gradientUnits="userSpaceOnUse">
<stop stop-color="#FBCFDB"/>
<stop offset="1" stop-color="#DBAFB3"/>
</linearGradient>
<linearGradient id="paint7_linear_45_173" x1="72.6288" y1="137.024" x2="72.6288" y2="133.731" gradientUnits="userSpaceOnUse">
<stop stop-color="#FBCFDB"/>
<stop offset="1" stop-color="#DBAFB3"/>
</linearGradient>
<linearGradient id="paint8_linear_45_173" x1="67.2887" y1="144.927" x2="67.2887" y2="140.993" gradientUnits="userSpaceOnUse">
<stop stop-color="#FBCFDB"/>
<stop offset="1" stop-color="#DBAFB3"/>
</linearGradient>
<linearGradient id="paint9_linear_45_173" x1="73.4143" y1="151.644" x2="73.4143" y2="145.753" gradientUnits="userSpaceOnUse">
<stop stop-color="#FBCFDB"/>
<stop offset="1" stop-color="#DBAFB3"/>
</linearGradient>
<linearGradient id="paint10_linear_45_173" x1="79.6038" y1="152.236" x2="79.6038" y2="144.175" gradientUnits="userSpaceOnUse">
<stop stop-color="#FBCFDB"/>
<stop offset="1" stop-color="#DBAFB3"/>
</linearGradient>
<linearGradient id="paint11_linear_45_173" x1="85.4004" y1="147.912" x2="85.4004" y2="141.022" gradientUnits="userSpaceOnUse">
<stop stop-color="#FBCFDB"/>
<stop offset="1" stop-color="#DBAFB3"/>
</linearGradient>
<linearGradient id="paint12_linear_45_173" x1="114.936" y1="169.012" x2="192.782" y2="200.511" gradientUnits="userSpaceOnUse">
<stop stop-color="#23232C"/>
<stop offset="1" stop-color="#44464E"/>
</linearGradient>
<linearGradient id="paint13_linear_45_173" x1="195.594" y1="247.991" x2="195.594" y2="281.134" gradientUnits="userSpaceOnUse">
<stop stop-color="#FBCFDB"/>
<stop offset="1" stop-color="#DBAFB3"/>
</linearGradient>
<linearGradient id="paint14_linear_45_173" x1="211.453" y1="239.514" x2="211.453" y2="260.4" gradientUnits="userSpaceOnUse">
<stop stop-color="#FBCFDB"/>
<stop offset="1" stop-color="#DBAFB3"/>
</linearGradient>
<linearGradient id="paint15_linear_45_173" x1="200.828" y1="211.962" x2="200.828" y2="242" gradientUnits="userSpaceOnUse">
<stop stop-color="#FBCFDB"/>
<stop offset="1" stop-color="#DBAFB3"/>
</linearGradient>
<linearGradient id="paint16_linear_45_173" x1="174.97" y1="215.904" x2="174.97" y2="242.451" gradientUnits="userSpaceOnUse">
<stop stop-color="#FBCFDB"/>
<stop offset="1" stop-color="#DBAFB3"/>
</linearGradient>
<linearGradient id="paint17_linear_45_173" x1="173.898" y1="243.751" x2="173.898" y2="268.915" gradientUnits="userSpaceOnUse">
<stop stop-color="#FBCFDB"/>
<stop offset="1" stop-color="#DBAFB3"/>
</linearGradient>
<linearGradient id="paint18_linear_45_173" x1="136.961" y1="241.238" x2="136.961" y2="263.997" gradientUnits="userSpaceOnUse">
<stop stop-color="#FBCFDB"/>
<stop offset="1" stop-color="#DBAFB3"/>
</linearGradient>
<linearGradient id="paint19_linear_45_173" x1="145.846" y1="231.959" x2="145.846" y2="247.391" gradientUnits="userSpaceOnUse">
<stop stop-color="#FBCFDB"/>
<stop offset="1" stop-color="#DBAFB3"/>
</linearGradient>
<linearGradient id="paint20_linear_45_173" x1="135.253" y1="212.238" x2="135.253" y2="236.823" gradientUnits="userSpaceOnUse">
<stop stop-color="#FBCFDB"/>
<stop offset="1" stop-color="#DBAFB3"/>
</linearGradient>
<linearGradient id="paint21_linear_45_173" x1="116.662" y1="220.189" x2="116.662" y2="237.936" gradientUnits="userSpaceOnUse">
<stop stop-color="#FBCFDB"/>
<stop offset="1" stop-color="#DBAFB3"/>
</linearGradient>
<linearGradient id="paint22_linear_45_173" x1="118.864" y1="239.429" x2="118.864" y2="259.789" gradientUnits="userSpaceOnUse">
<stop stop-color="#FBCFDB"/>
<stop offset="1" stop-color="#DBAFB3"/>
</linearGradient>
<linearGradient id="paint23_linear_45_173" x1="236.209" y1="173.152" x2="236.209" y2="233.459" gradientUnits="userSpaceOnUse">
<stop stop-color="#FBCFDB"/>
<stop offset="1" stop-color="#DBAFB3"/>
</linearGradient>
<linearGradient id="paint24_linear_45_173" x1="265.069" y1="157.729" x2="265.069" y2="195.734" gradientUnits="userSpaceOnUse">
<stop stop-color="#FBCFDB"/>
<stop offset="1" stop-color="#DBAFB3"/>
</linearGradient>
<linearGradient id="paint25_linear_45_173" x1="245.733" y1="107.593" x2="245.733" y2="162.25" gradientUnits="userSpaceOnUse">
<stop stop-color="#FBCFDB"/>
<stop offset="1" stop-color="#DBAFB3"/>
</linearGradient>
<linearGradient id="paint26_linear_45_173" x1="198.683" y1="114.768" x2="198.683" y2="163.072" gradientUnits="userSpaceOnUse">
<stop stop-color="#FBCFDB"/>
<stop offset="1" stop-color="#DBAFB3"/>
</linearGradient>
<linearGradient id="paint27_linear_45_173" x1="196.731" y1="165.438" x2="196.731" y2="211.225" gradientUnits="userSpaceOnUse">
<stop stop-color="#FBCFDB"/>
<stop offset="1" stop-color="#DBAFB3"/>
</linearGradient>
</defs>
</svg>
