<svg width="51" height="51" viewBox="0 0 51 51" fill="none" xmlns="http://www.w3.org/2000/svg">
<path d="M47.0156 7.17188H3.98438C3.35057 7.17261 2.74293 7.42472 2.29476 7.87289C1.84659 8.32106 1.59449 8.92869 1.59375 9.5625V41.4375C1.59449 42.0713 1.84659 42.6789 2.29476 43.1271C2.74293 43.5753 3.35057 43.8274 3.98438 43.8281H47.0156C47.6494 43.8274 48.2571 43.5753 48.7052 43.1271C49.1534 42.6789 49.4055 42.0713 49.4062 41.4375V9.5625C49.4055 8.92869 49.1534 8.32106 48.7052 7.87289C48.2571 7.42472 47.6494 7.17261 47.0156 7.17188ZM46.2188 10.3594V16.7344H4.78125V10.3594H46.2188ZM4.78125 40.6406V23.1094H46.2188V40.6406H4.78125Z" fill="#629677"/>
<path d="M8.76562 31.0781H15.1406V34.2656H8.76562V31.0781ZM18.3281 31.0781H24.7031V34.2656H18.3281V31.0781Z" fill="#629677"/>
</svg>
