<svg width="65" height="18" viewBox="0 0 65 18" fill="none" xmlns="http://www.w3.org/2000/svg">
<path d="M64.2152 13.0218C64.1574 11.9292 62.0585 11.4141 58.5299 11.9093C57.7544 11.7886 57.0884 11.1312 56.5044 9.50284C55.9204 7.87446 54.577 7.2906 53.0746 7.23377C51.5723 7.17695 49.276 9.08607 48.6102 9.82694C47.9445 10.5678 43.1938 11.9848 42.8406 8.33418C42.6799 6.67285 43.1521 5.59729 42.9553 4.50854C42.7196 3.20488 41.7824 2.01753 41.1347 1.61206C39.9462 0.867964 39.633 0.434272 37.1219 0.890324C34.6109 1.34637 32.7495 2.59619 31.096 9.4894C29.4426 16.3826 23.5021 15.2739 22.8879 13.1421C22.2738 11.0103 22.7015 11.3988 22.3456 9.17899C21.9898 6.95922 21.3796 6.33337 19.8284 5.31547C18.2773 4.29758 14.2509 4.77179 12.518 7.17068C10.7851 9.56957 11.0425 9.23604 10.0971 10.5594C8.80662 12.2063 7.95972 12.8086 6.20641 13.2504C5.06486 13.4813 4.25181 13.43 3.34208 13.1133C2.43234 12.7966 1.36638 12.3429 0.63116 11.5623C0.63116 11.5623 1.02308 12.2416 1.83681 13.0451C2.65053 13.8486 4.88783 14.2543 6.2836 14.1312C7.67936 14.0082 9.34865 13.1488 10.8823 11.3945L12.5418 9.37928C14.4324 7.03043 16.8065 6.14321 18.3418 6.66623C19.8771 7.18924 20.2618 7.89078 20.4665 9.65588L20.4436 10.623L20.4171 12.2968C20.6299 14.8765 22.3245 16.4489 24.726 17.1171C27.1276 17.7854 33.3004 16.1093 33.7824 9.54994C34.2643 2.99054 37.7291 3.07202 39.1368 3.59146C40.5445 4.1109 40.7953 4.87684 40.6636 6.05141C40.5882 6.7639 40.2524 7.72562 40.3466 8.35868C40.4408 8.99174 41.1546 11.1612 42.896 12.4452C44.833 13.5832 47.2449 13.3859 48.3092 12.6777C49.3735 11.9696 50.1238 11.4239 51.2313 10.1109C51.2313 10.1109 53.412 7.89043 54.7975 10.082C56.1831 12.2736 56.8607 13.3086 57.8839 13.4969C61.015 15.6852 64.2729 14.1145 64.2152 13.0218Z" fill="black"/>
</svg>
