<svg width="395" height="576" viewBox="0 0 395 576" fill="none" xmlns="http://www.w3.org/2000/svg">
<path d="M228.981 446.624L229.472 446.533L228.528 446.836C224.154 437.462 215.391 423.376 207.705 411.611C203.865 405.734 200.3 400.444 197.694 396.623C196.391 394.713 195.328 393.17 194.591 392.105C194.422 391.861 194.271 391.642 194.137 391.45C185.768 440.241 196.96 474.241 210.277 496.074C216.992 507.085 224.253 515.008 229.832 520.177C232.621 522.761 234.989 524.657 236.657 525.904C237.491 526.528 238.15 526.99 238.6 527.294C238.71 527.369 238.808 527.435 238.892 527.491C274.869 477.619 271.713 433.409 259.565 401.637C253.47 385.699 245.109 372.883 238.269 364.05C234.849 359.634 231.812 356.216 229.631 353.904C228.541 352.747 227.664 351.868 227.062 351.278C226.895 351.115 226.749 350.974 226.626 350.855C224.059 356.418 222.883 364.914 222.6 374.658C222.307 384.744 222.972 396.09 223.99 406.744C225.008 417.396 226.379 427.344 227.495 434.63C228.053 438.273 228.548 441.25 228.903 443.315C229.08 444.348 229.222 445.153 229.321 445.699C229.37 445.973 229.408 446.181 229.433 446.321L229.462 446.48L229.47 446.52L229.472 446.53L229.472 446.532C229.472 446.533 229.472 446.533 228.981 446.624Z" stroke="#23232C"/>
<path d="M182.281 318.743C172.759 323.352 158.685 326.827 146.748 329.185C140.387 330.442 134.616 331.384 130.436 332.012C128.345 332.326 126.652 332.561 125.481 332.718C124.895 332.797 124.44 332.856 124.131 332.895C123.977 332.915 123.859 332.93 123.78 332.939L123.69 332.951L123.667 332.953L123.661 332.954L123.659 332.954C123.659 332.954 123.659 332.954 123.599 332.458L123.659 332.954L121.913 333.166L123.286 332.067C132.653 324.574 144.231 311.749 153.483 300.772C158.105 295.288 162.14 290.274 165.019 286.631C166.459 284.81 167.609 283.331 168.4 282.308C168.619 282.024 168.811 281.776 168.973 281.564C144.196 282.657 125.884 289.629 112.347 299.479C98.6132 309.472 89.7631 322.45 84.0663 335.326C78.3686 348.205 75.8296 360.972 74.7162 370.525C74.1596 375.3 73.9596 379.268 73.8987 382.041C73.8682 383.427 73.8725 384.514 73.8844 385.254C73.8884 385.504 73.8933 385.715 73.898 385.884C106.758 384.483 134.071 367.402 153.221 350.587C162.841 342.141 170.389 333.771 175.531 327.514C178.102 324.386 180.071 321.786 181.397 319.97C181.733 319.509 182.028 319.099 182.281 318.743Z" stroke="#23232C"/>
<path d="M328.092 100.363L328.557 100.179L328.887 101.011L328.005 100.856C322.591 99.9003 315.79 96.9672 308.664 93.1394C301.528 89.3058 294.024 84.5517 287.195 79.9204C280.364 75.2884 274.202 70.7747 269.748 67.4193C267.52 65.7415 265.72 64.353 264.475 63.3837C264.173 63.1481 263.904 62.9372 263.669 62.753C274.033 105.721 306.46 135.302 336.512 154.2C351.694 163.747 366.251 170.557 377.014 174.979C382.394 177.19 386.825 178.804 389.909 179.864C391.451 180.394 392.657 180.786 393.476 181.046C393.719 181.123 393.928 181.188 394.102 181.241C396.424 93.3795 363.328 48.2356 329.69 25.0317C312.814 13.3909 295.78 7.2565 282.963 4.03277C276.555 2.42108 271.204 1.53752 267.457 1.05701C265.832 0.84862 264.509 0.716063 263.533 0.632797C271.801 6.09209 279.81 14.6055 287.208 24.3768C295.108 34.8121 302.335 46.7142 308.458 57.9394C314.582 69.166 319.606 79.724 323.098 87.475C324.845 91.3507 326.209 94.5253 327.137 96.7316C327.601 97.8347 327.955 98.6958 328.194 99.2815C328.314 99.5743 328.404 99.7983 328.465 99.9492L328.534 100.12L328.551 100.164L328.555 100.175L328.556 100.178C328.557 100.178 328.557 100.179 328.092 100.363Z" stroke="#23232C"/>
<path d="M245.784 93.8559C234.21 100.573 222.715 107.533 214.032 112.865C209.564 115.609 205.84 117.921 203.234 119.548C201.931 120.361 200.907 121.003 200.209 121.441C199.86 121.66 199.593 121.829 199.413 121.942L199.209 122.071L199.157 122.103L199.144 122.111L199.141 122.113L199.14 122.114C199.14 122.114 199.14 122.114 198.873 121.691L199.14 122.114L198.085 122.78L198.388 121.57C201.544 108.946 210.99 91.0107 219.612 76.2743C223.929 68.8964 228.049 62.3039 231.09 57.5561C232.61 55.182 233.861 53.2688 234.732 51.9489C234.923 51.6604 235.095 51.4003 235.248 51.1699C209.795 60.5329 193.135 74.0522 182.461 89.0874C171.585 104.406 166.902 121.331 165.496 137.104C164.091 152.88 165.965 167.491 168.193 178.163C169.307 183.498 170.508 187.844 171.431 190.856C171.892 192.361 172.283 193.533 172.559 194.327C172.647 194.581 172.724 194.797 172.787 194.973C201.863 177.48 220.162 152.022 231.204 130.87C236.757 120.233 240.472 110.692 242.798 103.811C243.961 100.371 244.777 97.5967 245.302 95.6841C245.505 94.9406 245.665 94.3274 245.784 93.8559Z" stroke="#23232C"/>
<path d="M135.276 491.235L134.916 490.31L135.156 490.749C134.916 490.31 134.917 490.31 134.917 490.31L134.918 490.309L134.922 490.307L134.935 490.3L134.985 490.274C135.027 490.252 135.09 490.219 135.173 490.178C135.338 490.095 135.582 489.977 135.901 489.832C136.54 489.541 137.48 489.144 138.698 488.709C141.133 487.84 144.678 486.823 149.131 486.222C157.466 485.097 168.976 485.432 182.34 490.915C181.577 490.279 180.623 489.528 179.488 488.713C176.154 486.319 171.255 483.373 164.997 481.166C152.566 476.783 134.737 475.305 113.1 486.951C113.137 487.059 113.182 487.187 113.235 487.336C113.415 487.843 113.688 488.582 114.054 489.507C114.788 491.357 115.898 493.948 117.403 496.91C120.416 502.839 124.998 510.226 131.289 516.119C137.576 522.009 145.545 526.387 155.352 526.365C165.067 526.344 176.674 522.006 190.326 510.364C190.132 510.177 189.865 509.923 189.529 509.614C188.753 508.897 187.61 507.88 186.146 506.681C183.217 504.282 179.007 501.161 173.886 498.267C163.634 492.473 149.794 487.628 135.276 491.235Z" stroke="#23232C"/>
<path d="M127.585 446.875L128.084 446.907C127.585 446.875 127.585 446.874 127.585 446.874L127.585 446.872L127.586 446.868L127.587 446.853L127.591 446.798C127.595 446.749 127.601 446.679 127.61 446.587C127.629 446.403 127.659 446.134 127.707 445.786C127.804 445.091 127.97 444.084 128.254 442.822C128.822 440.3 129.858 436.76 131.731 432.675C135.237 425.03 141.674 415.482 153.452 407.121C152.507 407.426 151.363 407.83 150.066 408.354C146.261 409.891 141.152 412.455 135.941 416.564C125.591 424.725 114.81 439.001 113.082 463.513C113.193 463.539 113.325 463.57 113.479 463.604C114.004 463.723 114.774 463.888 115.752 464.073C117.707 464.442 120.491 464.889 123.799 465.201C130.42 465.825 139.112 465.902 147.456 463.737C155.795 461.573 163.755 457.18 168.981 448.881C174.157 440.66 176.697 428.532 174.159 410.771C173.896 410.835 173.539 410.925 173.098 411.043C172.078 411.315 170.607 411.738 168.811 412.334C165.218 413.527 160.329 415.415 155.145 418.195C144.767 423.762 133.273 432.868 128.559 447.065L127.585 446.875Z" stroke="#23232C"/>
<path d="M78.7485 447.784L78.279 448.657L78.4577 448.19C78.279 448.657 78.2787 448.657 78.2783 448.657L78.277 448.656L78.273 448.655L78.259 448.649L78.2072 448.629C78.1623 448.611 78.0967 448.584 78.0116 448.548C77.8415 448.476 77.5932 448.367 77.2755 448.219C76.6402 447.922 75.727 447.464 74.6059 446.82C72.3638 445.532 69.2887 443.496 65.9402 440.499C59.6734 434.89 52.455 425.917 47.9489 412.193C47.961 413.186 48.0087 414.399 48.1257 415.792C48.469 419.882 49.4086 425.521 51.7933 431.714C56.5301 444.015 66.9806 458.535 89.8865 467.432C89.9441 467.334 90.0127 467.216 90.0913 467.079C90.3597 466.613 90.745 465.926 91.2105 465.047C92.1414 463.288 93.3919 460.761 94.6676 457.693C97.2211 451.553 99.8644 443.271 100.263 434.66C100.661 426.055 98.8172 417.151 92.4339 409.706C86.1109 402.33 75.2759 396.318 57.559 393.491C57.5425 393.761 57.523 394.128 57.5052 394.585C57.464 395.64 57.4324 397.17 57.4711 399.062C57.5484 402.847 57.9068 408.076 59.0302 413.85C61.2794 425.41 66.5797 439.083 78.7485 447.784Z" stroke="#23232C"/>
<path d="M58.8072 491.716L59.5047 492.421L59.1107 492.113C59.5047 492.421 59.5044 492.421 59.5042 492.422L59.5033 492.423L59.5007 492.426L59.4913 492.438L59.4564 492.481C59.426 492.519 59.3811 492.574 59.3217 492.644C59.203 492.786 59.0263 492.991 58.791 493.251C58.3204 493.772 57.6153 494.51 56.6707 495.393C54.7815 497.158 51.9331 499.501 48.0854 501.822C40.8844 506.167 30.1895 510.435 15.7484 510.715C16.701 510.995 17.8745 511.305 19.2411 511.602C23.2511 512.474 28.9178 513.231 35.5376 512.768C48.6864 511.849 65.6335 506.119 80.8598 486.832C80.7831 486.748 80.6908 486.648 80.5833 486.533C80.2163 486.139 79.6726 485.569 78.9685 484.866C77.5602 483.46 75.5114 481.523 72.9531 479.404C67.8321 475.161 60.6909 470.204 52.5756 467.296C44.4661 464.391 35.4133 463.541 26.4223 467.458C17.5163 471.338 8.58919 479.932 0.688443 496.04C0.941434 496.135 1.28711 496.261 1.71821 496.412C2.71516 496.761 4.16858 497.24 5.98869 497.759C9.62987 498.796 14.7336 499.987 20.583 500.608C32.294 501.85 46.9194 500.795 58.8072 491.716Z" stroke="#23232C"/>
<path d="M98.8856 517.015L99.6392 516.37L99.3038 516.741C99.6392 516.37 99.6394 516.37 99.6398 516.37L99.6408 516.371L99.6439 516.374L99.655 516.384L99.6959 516.422C99.7312 516.455 99.7826 516.504 99.8489 516.568C99.9815 516.697 100.174 516.888 100.416 517.141C100.901 517.648 101.587 518.405 102.4 519.41C104.024 521.422 106.155 524.431 108.194 528.436C112.009 535.931 115.496 546.906 114.737 561.331C115.084 560.401 115.478 559.253 115.873 557.911C117.031 553.974 118.193 548.377 118.208 541.741C118.237 528.559 113.741 511.244 95.5999 494.669C95.5108 494.739 95.4043 494.824 95.2817 494.923C94.8628 495.261 94.2552 495.762 93.5034 496.414C91.9996 497.717 89.9202 499.621 87.622 502.021C83.0215 506.823 77.5636 513.589 74.0795 521.474C70.598 529.353 69.0986 538.322 72.3591 547.571C75.5888 556.733 83.5181 566.255 99.0158 575.295C99.1286 575.049 99.2797 574.714 99.4613 574.294C99.8812 573.325 100.464 571.91 101.112 570.132C102.408 566.575 103.964 561.57 105.004 555.781C107.085 544.189 107.086 529.526 98.8856 517.015Z" stroke="#23232C"/>
<path d="M102.754 487.075L102.754 487.075C105.513 486.214 107.085 484.821 107.805 483.29C108.526 481.757 108.434 479.998 107.691 478.318C106.195 474.94 102.113 472.02 97.2508 472.322C94.8929 472.469 92.7731 473.845 91.2337 475.789C89.6933 477.734 88.78 480.193 88.7974 482.405C88.8147 484.597 89.7382 486.512 91.8517 487.528C94.0049 488.562 97.4981 488.716 102.754 487.075Z" stroke="#23232C"/>
<path d="M318.591 259.062L317.963 258.294L318.326 258.638C317.963 258.294 317.963 258.294 317.963 258.294L317.964 258.293L317.967 258.289L317.977 258.279L318.016 258.239C318.05 258.204 318.1 258.154 318.166 258.089C318.297 257.959 318.493 257.771 318.751 257.534C319.269 257.061 320.04 256.392 321.064 255.602C323.111 254.022 326.167 251.959 330.216 250.01C337.795 246.363 348.844 243.121 363.249 244.202C362.327 243.834 361.188 243.414 359.855 242.99C355.945 241.744 350.375 240.457 343.741 240.295C330.563 239.971 313.152 244.08 296.178 261.848C296.246 261.939 296.329 262.047 296.425 262.172C296.753 262.598 297.241 263.217 297.875 263.983C299.145 265.516 301.002 267.637 303.35 269.988C308.048 274.694 314.691 280.301 322.496 283.96C330.296 287.616 339.228 289.315 348.548 286.261C357.78 283.236 367.476 275.521 376.858 260.229C376.615 260.111 376.283 259.952 375.868 259.761C374.909 259.32 373.507 258.706 371.744 258.019C368.216 256.644 363.248 254.977 357.483 253.809C345.941 251.47 331.281 251.143 318.591 259.062Z" stroke="#23232C"/>
<path d="M298.541 219.135L297.556 219.255L298.041 219.132C297.556 219.255 297.556 219.255 297.556 219.255L297.556 219.253L297.555 219.249L297.551 219.234L297.538 219.18C297.527 219.133 297.511 219.064 297.491 218.974C297.452 218.793 297.398 218.528 297.336 218.183C297.212 217.492 297.059 216.482 296.939 215.195C296.699 212.621 296.589 208.934 297.107 204.471C298.077 196.116 301.246 185.046 309.861 173.451C309.057 174.033 308.093 174.772 307.022 175.671C303.879 178.309 299.813 182.328 296.128 187.847C288.81 198.809 282.972 215.719 288.912 239.563C289.025 239.554 289.16 239.542 289.317 239.527C289.853 239.478 290.637 239.397 291.623 239.27C293.597 239.016 296.383 238.581 299.625 237.855C306.114 236.4 314.404 233.785 321.669 229.146C328.929 224.51 335.14 217.87 337.543 208.361C339.923 198.943 338.588 186.624 330.681 170.519C330.451 170.661 330.14 170.857 329.757 171.106C328.871 171.681 327.602 172.537 326.079 173.659C323.031 175.905 318.966 179.213 314.896 183.46C306.748 191.962 298.633 204.176 298.541 219.135Z" stroke="#23232C"/>
<path d="M251.395 235.223L251.219 236.199L251.245 235.7C251.219 236.199 251.219 236.199 251.218 236.199L251.217 236.199L251.213 236.199L251.198 236.198L251.142 236.194C251.094 236.191 251.023 236.186 250.931 236.178C250.747 236.162 250.477 236.136 250.129 236.093C249.433 236.006 248.423 235.854 247.158 235.588C244.628 235.056 241.074 234.072 236.963 232.257C229.269 228.86 219.629 222.56 211.1 210.903C211.418 211.843 211.839 212.982 212.381 214.271C213.972 218.054 216.61 223.126 220.793 228.278C229.101 238.511 243.53 249.088 268.064 250.465C268.088 250.354 268.117 250.221 268.15 250.067C268.261 249.54 268.415 248.768 268.585 247.788C268.927 245.827 269.335 243.037 269.599 239.725C270.128 233.096 270.081 224.403 267.797 216.09C265.514 207.784 261.008 199.887 252.634 194.78C244.341 189.721 232.177 187.354 214.454 190.145C214.522 190.407 214.617 190.763 214.741 191.202C215.029 192.219 215.472 193.683 216.094 195.471C217.338 199.046 219.296 203.908 222.15 209.052C227.864 219.35 237.132 230.712 251.395 235.223Z" stroke="#23232C"/>
<path d="M246.02 283.169L246.901 283.624L246.431 283.453C246.901 283.624 246.901 283.624 246.901 283.625L246.9 283.626L246.899 283.63L246.894 283.644L246.874 283.696C246.857 283.741 246.831 283.807 246.796 283.893C246.727 284.064 246.623 284.314 246.479 284.634C246.193 285.275 245.751 286.195 245.125 287.327C243.875 289.59 241.89 292.698 238.949 296.096C233.445 302.455 224.594 309.821 210.947 314.554C211.94 314.525 213.151 314.457 214.543 314.317C218.625 313.906 224.248 312.873 230.4 310.386C242.62 305.445 256.964 294.755 265.48 271.706C265.381 271.65 265.263 271.583 265.125 271.507C264.654 271.246 263.961 270.872 263.074 270.421C261.3 269.52 258.752 268.311 255.664 267.087C249.481 264.636 241.157 262.13 232.541 261.875C223.93 261.62 215.058 263.611 207.719 270.117C200.45 276.562 194.619 287.495 192.087 305.257C192.357 305.269 192.725 305.282 193.181 305.292C194.237 305.316 195.767 305.322 197.659 305.252C201.442 305.112 206.664 304.667 212.418 303.448C223.939 301.007 237.522 295.48 246.02 283.169Z" stroke="#23232C"/>
<path d="M292.471 293.988L292.267 294.444C292.471 293.988 292.472 293.988 292.472 293.988L292.473 293.988L292.477 293.99L292.491 293.996L292.541 294.02C292.585 294.04 292.649 294.071 292.732 294.111C292.898 294.193 293.14 294.315 293.449 294.481C294.067 294.813 294.953 295.32 296.037 296.025C298.204 297.435 301.162 299.638 304.339 302.816C310.286 308.764 316.996 318.122 320.735 332.075C320.778 331.083 320.798 329.869 320.758 328.471C320.642 324.369 320.016 318.686 317.978 312.371C313.93 299.826 304.3 284.75 281.922 274.598C281.86 274.693 281.785 274.806 281.699 274.938C281.405 275.389 280.982 276.054 280.468 276.906C279.441 278.611 278.053 281.064 276.609 284.057C273.72 290.047 270.622 298.169 269.747 306.745C268.873 315.315 270.221 324.307 276.182 332.095C282.087 339.809 292.572 346.413 310.105 350.216C310.137 349.948 310.177 349.582 310.22 349.127C310.319 348.076 310.435 346.55 310.501 344.658C310.634 340.875 310.565 335.635 309.763 329.807C308.158 318.14 303.622 304.196 291.954 294.834L292.471 293.988Z" stroke="#23232C"/>
<path d="M276.581 252.838L276.581 252.838C274.383 253.707 272.793 255.671 271.93 257.996C271.066 260.322 270.958 262.943 271.659 265.04C272.353 267.12 273.824 268.656 276.148 268.968C278.515 269.286 281.885 268.352 286.375 265.166C288.733 263.494 289.798 261.683 290.009 260.004C290.221 258.323 289.589 256.679 288.363 255.311C285.896 252.561 281.111 251.048 276.581 252.838Z" stroke="#23232C"/>
</svg>
