<svg width="21" height="20" viewBox="0 0 21 20" fill="none" xmlns="http://www.w3.org/2000/svg">
<path id="instagram" d="M6.74995 0H15.15C18.35 0 20.95 2.6 20.95 5.8V14.2C20.95 15.7383 20.3389 17.2135 19.2512 18.3012C18.1635 19.3889 16.6882 20 15.15 20H6.74995C3.54995 20 0.949951 17.4 0.949951 14.2V5.8C0.949951 4.26174 1.56102 2.78649 2.64873 1.69878C3.73644 0.61107 5.2117 0 6.74995 0ZM6.54995 2C5.59517 2 4.6795 2.37928 4.00437 3.05442C3.32924 3.72955 2.94995 4.64522 2.94995 5.6V14.4C2.94995 16.39 4.55995 18 6.54995 18H15.35C16.3047 18 17.2204 17.6207 17.8955 16.9456C18.5707 16.2705 18.95 15.3548 18.95 14.4V5.6C18.95 3.61 17.34 2 15.35 2H6.54995ZM16.2 3.5C16.5315 3.5 16.8494 3.6317 17.0838 3.86612C17.3183 4.10054 17.45 4.41848 17.45 4.75C17.45 5.08152 17.3183 5.39946 17.0838 5.63388C16.8494 5.8683 16.5315 6 16.2 6C15.8684 6 15.5505 5.8683 15.3161 5.63388C15.0816 5.39946 14.95 5.08152 14.95 4.75C14.95 4.41848 15.0816 4.10054 15.3161 3.86612C15.5505 3.6317 15.8684 3.5 16.2 3.5ZM10.95 5C12.276 5 13.5478 5.52678 14.4855 6.46447C15.4232 7.40215 15.95 8.67392 15.95 10C15.95 11.3261 15.4232 12.5979 14.4855 13.5355C13.5478 14.4732 12.276 15 10.95 15C9.62387 15 8.3521 14.4732 7.41442 13.5355C6.47674 12.5979 5.94995 11.3261 5.94995 10C5.94995 8.67392 6.47674 7.40215 7.41442 6.46447C8.3521 5.52678 9.62387 5 10.95 5ZM10.95 7C10.1543 7 9.39124 7.31607 8.82863 7.87868C8.26602 8.44129 7.94995 9.20435 7.94995 10C7.94995 10.7956 8.26602 11.5587 8.82863 12.1213C9.39124 12.6839 10.1543 13 10.95 13C11.7456 13 12.5087 12.6839 13.0713 12.1213C13.6339 11.5587 13.95 10.7956 13.95 10C13.95 9.20435 13.6339 8.44129 13.0713 7.87868C12.5087 7.31607 11.7456 7 10.95 7Z" fill="black"/>
</svg>
