<svg width="529" height="600" viewBox="0 0 529 600" fill="none" xmlns="http://www.w3.org/2000/svg">
<path d="M198.677 122.629L198.392 122.218L199.078 122.928C186.866 139.309 181.958 154.937 180.099 166.461C179.169 172.224 179.003 176.962 179.068 180.255C179.096 181.679 179.167 182.833 179.239 183.682C184.453 173.882 195.001 170.411 206.906 166.726C207.263 166.616 207.621 166.505 207.981 166.394C220.293 162.59 234.062 158.336 245.592 146.806C251.51 140.888 253.517 135.667 253.364 131.05C253.211 126.414 250.877 122.274 247.874 118.529C246.375 116.66 244.72 114.902 243.104 113.239C242.701 112.825 242.3 112.416 241.904 112.012C240.719 110.803 239.581 109.642 238.59 108.538C237.269 107.067 236.169 105.655 235.537 104.303C234.9 102.94 234.713 101.58 235.321 100.279L235.774 100.49L235.321 100.279C237.321 95.9921 236.189 92.2853 234.526 89.6109C233.693 88.2706 232.731 87.1985 231.975 86.4607C231.598 86.0924 231.273 85.8091 231.045 85.6189C231.037 85.6125 231.03 85.6062 231.022 85.6C226.778 89.6707 221.502 91.3497 215.791 92.0589C211.808 92.5536 207.56 92.5796 203.281 92.6058C201.302 92.618 199.316 92.6301 197.346 92.6887C191.08 92.8752 184.918 93.5279 179.365 96.0743C173.83 98.6126 168.863 103.051 165.021 110.882L164.573 110.662L165.021 110.882C157.305 126.611 157.146 144.895 158.936 159.29C159.83 166.48 161.209 172.684 162.364 177.09C162.941 179.293 163.463 181.045 163.839 182.246C163.864 182.325 163.889 182.403 163.912 182.478C169.614 160.58 178.073 145.627 185.188 136.092C188.834 131.205 192.126 127.743 194.511 125.5C195.703 124.378 196.669 123.561 197.339 123.023C197.674 122.753 197.935 122.554 198.113 122.421C198.202 122.354 198.271 122.305 198.318 122.271C198.341 122.254 198.359 122.241 198.372 122.233L198.386 122.222L198.39 122.22L198.391 122.219C198.392 122.218 198.392 122.218 198.677 122.629Z" fill="#FAC8CD" stroke="#D7BCC8"/>
<path d="M243.642 204.462L243.902 204.035L243.532 204.949C223.605 200.439 207.33 202.296 196.042 205.275C190.398 206.765 186 208.536 183.017 209.932C181.727 210.536 180.701 211.07 179.954 211.48C191.027 212.267 198.481 220.498 206.681 229.882C206.927 230.164 207.174 230.447 207.421 230.73C215.895 240.438 225.372 251.295 240.589 257.152C248.4 260.158 253.987 259.873 258.144 257.859C262.319 255.837 265.156 252.024 267.359 247.759C268.459 245.63 269.393 243.404 270.257 241.252C270.472 240.716 270.683 240.183 270.892 239.658C271.516 238.083 272.115 236.573 272.722 235.218C273.53 233.415 274.374 231.836 275.353 230.71C276.34 229.574 277.506 228.852 278.942 228.879C283.672 228.967 286.6 226.428 288.37 223.823C289.257 222.517 289.846 221.202 290.213 220.212C290.397 219.717 290.524 219.306 290.605 219.02C290.608 219.01 290.611 219.001 290.613 218.992C285.17 216.765 281.494 212.625 278.528 207.694C276.459 204.254 274.711 200.383 272.95 196.482C272.135 194.678 271.318 192.868 270.465 191.092C267.751 185.441 264.653 180.075 260.072 176.034C255.506 172.006 249.434 169.268 240.717 168.936C223.21 168.268 206.435 175.544 194.006 183.023C187.798 186.759 182.687 190.537 179.13 193.381C177.351 194.803 175.961 195.99 175.017 196.822C174.954 196.877 174.893 196.931 174.834 196.983C197.161 193.306 214.261 194.967 225.863 197.598C231.809 198.947 236.309 200.55 239.328 201.819C240.837 202.454 241.976 203.005 242.74 203.398C243.122 203.595 243.41 203.753 243.604 203.862C243.701 203.916 243.774 203.959 243.824 203.988C243.849 204.003 243.868 204.014 243.881 204.022L243.896 204.031L243.9 204.033L243.902 204.034C243.902 204.034 243.902 204.035 243.642 204.462Z" fill="#FAC8CD" stroke="#D7BCC8"/>
<path d="M194.398 328.277C194.408 328.276 194.417 328.274 194.427 328.273C194.382 322.393 196.784 317.404 200.189 312.766C202.565 309.531 205.462 306.425 208.382 303.296C209.732 301.849 211.087 300.396 212.397 298.924C216.564 294.241 220.32 289.313 222.282 283.527C224.237 277.761 224.421 271.102 221.366 262.932C215.23 246.522 202.047 233.851 190.353 225.269C184.512 220.981 179.055 217.723 175.059 215.538C173.061 214.445 171.429 213.621 170.298 213.07C170.222 213.034 170.149 212.998 170.079 212.964C182.082 232.145 187.145 248.563 189.191 260.283C190.24 266.289 190.497 271.059 190.49 274.333C190.487 275.971 190.418 277.234 190.349 278.091C190.315 278.519 190.28 278.846 190.255 279.067C190.242 279.177 190.231 279.261 190.223 279.318C190.221 279.335 190.219 279.348 190.217 279.36C190.216 279.369 190.215 279.377 190.214 279.384L190.211 279.401L190.211 279.406L190.21 279.408C190.21 279.408 190.21 279.409 189.716 279.333L190.21 279.409L189.224 279.42C185.7 259.294 177.709 244.994 170.608 235.729C167.056 231.096 163.726 227.722 161.288 225.508C160.233 224.55 159.345 223.81 158.678 223.279C162.223 233.799 157.503 243.851 152.008 255.036C151.843 255.371 151.677 255.708 151.511 256.046C145.822 267.608 139.461 280.539 139.926 296.837C140.164 305.204 142.582 310.248 146.044 313.307C149.52 316.379 154.132 317.526 158.916 317.914C161.304 318.107 163.719 318.111 166.037 318.078C166.615 318.07 167.188 318.059 167.753 318.049C169.446 318.017 171.071 317.987 172.555 318.025C174.53 318.075 176.312 318.245 177.729 318.713C179.158 319.186 180.274 319.984 180.803 321.319C182.546 325.717 186.019 327.439 189.105 328.067C190.651 328.381 192.091 328.418 193.147 328.375C193.674 328.353 194.102 328.312 194.398 328.277Z" fill="#FAC8CD" stroke="#D7BCC8"/>
<path d="M133.449 204.47C125.438 212.156 114.334 212.164 101.874 211.953C101.5 211.947 101.124 211.94 100.748 211.933C87.8638 211.708 73.4551 211.457 58.9058 218.815C51.4367 222.593 47.9016 226.928 46.6072 231.362C45.3073 235.815 46.2333 240.477 47.919 244.971C48.7605 247.215 49.785 249.401 50.8019 251.485C51.0554 252.004 51.3088 252.518 51.5589 253.025C52.3081 254.544 53.0269 256.001 53.6245 257.36C54.4203 259.169 55.0254 260.854 55.2045 262.335C55.385 263.829 55.1381 265.179 54.1553 266.226C50.9175 269.675 50.8374 273.551 51.5829 276.61C51.9565 278.143 52.5366 279.462 53.0248 280.399C53.2685 280.866 53.4882 281.237 53.646 281.489C53.6513 281.497 53.6565 281.505 53.6617 281.514C58.9638 278.969 64.5 279.019 70.1469 280.126C74.0857 280.899 78.1297 282.198 82.2038 283.508C84.0882 284.114 85.9791 284.721 87.8689 285.28C93.8806 287.057 99.9391 288.358 106.009 287.67C112.059 286.985 118.162 284.317 124.255 278.074L124.613 278.423L124.255 278.074C136.491 265.536 142.345 248.214 145.133 233.979C146.526 226.868 147.15 220.543 147.427 215.997C147.565 213.724 147.616 211.896 147.633 210.638C147.634 210.555 147.635 210.474 147.636 210.395C135.389 229.422 122.689 240.992 112.955 247.833C107.968 251.339 103.76 253.602 100.794 254.99C99.3116 255.684 98.1391 256.159 97.3347 256.462C96.9325 256.613 96.6223 256.721 96.4113 256.792C96.3058 256.827 96.225 256.853 96.17 256.871C96.1425 256.879 96.1214 256.886 96.1069 256.89L96.09 256.895L96.0853 256.897L96.0838 256.897C96.0833 256.897 96.083 256.898 95.9408 256.418L96.083 256.898L95.6531 256.009C112.363 244.253 121.901 230.935 127.261 220.565C129.942 215.379 131.578 210.929 132.543 207.78C132.96 206.418 133.252 205.299 133.449 204.47Z" fill="#FAC8CD" stroke="#D7BCC8"/>
<path d="M101.686 131.193L101.2 131.309L102.11 130.927C112.957 148.242 125.746 158.477 135.816 164.383C140.851 167.337 145.207 169.208 148.3 170.34C149.638 170.83 150.739 171.181 151.557 171.422C144.31 163.012 144.895 151.923 145.771 139.492C145.797 139.119 145.824 138.745 145.85 138.369C146.763 125.515 147.784 111.14 141.212 96.2177C137.839 88.5577 133.698 84.7964 129.339 83.2671C124.962 81.7314 120.258 82.4072 115.68 83.8506C113.394 84.571 111.157 85.4774 109.022 86.3816C108.49 86.6069 107.963 86.8325 107.443 87.0551C105.887 87.7222 104.393 88.3622 103.005 88.8864C101.156 89.5845 99.4409 90.0987 97.9522 90.1984C96.4508 90.299 95.1163 89.9802 94.1233 88.943C90.8514 85.5256 86.9859 85.2388 83.8909 85.8201C82.3398 86.1114 80.9919 86.6203 80.0304 87.0578C79.5504 87.2762 79.1689 87.4759 78.9088 87.62C78.9001 87.6248 78.8915 87.6296 78.883 87.6343C81.1405 93.0649 80.7951 98.5906 79.3883 104.17C78.4069 108.063 76.893 112.032 75.3678 116.03C74.6624 117.879 73.9546 119.735 73.296 121.592C71.2007 127.5 69.5777 133.481 69.9406 139.578C70.3023 145.657 72.6404 151.894 78.5492 158.311C90.4164 171.199 107.402 177.969 121.467 181.513C128.494 183.284 134.776 184.246 139.301 184.764C141.563 185.024 143.385 185.172 144.641 185.256C144.724 185.262 144.805 185.267 144.884 185.272C126.537 172.027 115.662 158.727 109.35 148.642C106.116 143.474 104.081 139.151 102.853 136.116C102.239 134.598 101.827 133.402 101.568 132.582C101.439 132.173 101.347 131.857 101.288 131.643C101.258 131.535 101.237 131.453 101.222 131.397C101.215 131.37 101.21 131.348 101.206 131.333L101.202 131.316L101.201 131.311L101.2 131.31C101.2 131.309 101.2 131.309 101.686 131.193Z" fill="#FAC8CD" stroke="#D7BCC8"/>
<path d="M22.4228 203.235C21.1569 203.98 20.4007 204.546 20.0381 204.947C19.9505 205.043 19.8954 205.12 19.8627 205.178C19.86 205.182 19.8576 205.187 19.8553 205.191C19.9349 205.226 20.0787 205.268 20.3129 205.295C20.5922 205.327 20.9546 205.334 21.399 205.313C22.2868 205.27 23.4541 205.115 24.8454 204.856C30.4127 203.817 39.3522 201.136 47.7012 197.558C56.1677 193.93 71.9533 191.685 87.6678 191.086C103.38 190.487 119.17 191.529 127.644 194.555C131.856 196.06 135.765 197.864 139.363 199.537L139.684 199.686C143.166 201.306 146.341 202.782 149.248 203.751C152.246 204.75 154.896 205.187 157.247 204.717C159.575 204.252 161.677 202.883 163.562 200.129C163.652 199.996 163.704 199.751 163.404 199.261C163.107 198.776 162.531 198.177 161.649 197.492C159.896 196.128 157.065 194.519 153.3 192.871C145.779 189.579 134.616 186.167 121.106 184.238C94.0892 180.379 57.7419 182.459 22.4228 203.235ZM22.4228 203.235L22.1693 202.804L22.4228 203.235Z" fill="#FAC8CD" stroke="#D7BCC8"/>
<path d="M27.9263 176.813L27.9263 176.813C27.3041 177.504 27.194 178 27.2687 178.348C27.3476 178.717 27.6706 179.112 28.3409 179.506C29.6784 180.293 32.0017 180.844 34.5818 181.218C37.1388 181.589 39.869 181.775 41.9647 181.868C42.8318 181.906 43.5888 181.929 44.1777 181.942C43.8865 181.69 43.5378 181.395 43.1413 181.072C41.8907 180.053 40.1734 178.761 38.2956 177.657C36.4109 176.548 34.401 175.65 32.5596 175.384C30.735 175.119 29.1285 175.477 27.9263 176.813Z" fill="#FAC8CD" stroke="#D7BCC8"/>
<path d="M8.87983 187.416L8.87981 187.416C8.54377 188.357 8.65794 188.973 8.97962 189.406C9.32593 189.872 9.99453 190.241 11.0029 190.483C13.0131 190.965 16.0209 190.864 19.1948 190.491C22.3505 190.12 25.6048 189.488 28.0743 188.947C29.1562 188.71 30.0859 188.491 30.7886 188.32C30.264 188.103 29.6048 187.837 28.8443 187.547C26.8457 186.785 24.1563 185.858 21.38 185.191C18.5943 184.523 15.7645 184.128 13.4686 184.398C11.1791 184.667 9.53696 185.576 8.87983 187.416Z" fill="#FAC8CD" stroke="#D7BCC8"/>
<path d="M14.3468 200.855C14.053 200.848 13.7138 200.844 13.3389 200.846C12.0006 200.855 10.2181 200.948 8.42408 201.277C6.62345 201.608 4.85049 202.17 3.50261 203.095C2.17102 204.009 1.26412 205.266 1.12814 207.031L14.3468 200.855ZM14.3468 200.855C13.949 201.206 13.4368 201.651 12.8444 202.152C11.4011 203.372 9.48948 204.912 7.60188 206.207C5.69097 207.518 3.8819 208.523 2.62432 208.754C1.99871 208.869 1.6422 208.769 1.44609 208.582C1.24172 208.386 1.05731 207.952 1.12813 207.031L14.3468 200.855Z" fill="#FAC8CD" stroke="#D7BCC8"/>
<path d="M21.7419 223.874L21.7419 223.874C22.4986 224.15 23.0096 224.136 23.3549 224.001C23.6924 223.868 23.9644 223.581 24.1681 223.102C24.5905 222.108 24.626 220.502 24.4396 218.712C24.256 216.949 23.8691 215.104 23.5257 213.693C23.3948 213.156 23.2707 212.683 23.1674 212.304C22.9957 212.55 22.7956 212.843 22.5793 213.175C21.9052 214.209 21.0807 215.603 20.4608 217.061C19.8354 218.533 19.4453 220.008 19.5722 221.227C19.6347 221.826 19.8209 222.351 20.1555 222.788C20.4894 223.224 20.994 223.603 21.7419 223.874Z" fill="#FAC8CD" stroke="#D7BCC8"/>
<path d="M34.9442 225.088C35.8365 225.5 36.4985 225.518 36.9998 225.332C37.5082 225.144 37.9504 224.71 38.3234 224.015C39.0793 222.607 39.4333 220.351 39.5451 217.89C39.6559 215.452 39.5266 212.895 39.3685 210.942C39.2997 210.092 39.2256 209.358 39.1639 208.802C38.8657 209.17 38.4933 209.642 38.0787 210.193C37.0305 211.584 35.7193 213.469 34.6515 215.457C33.5772 217.458 32.7795 219.508 32.7006 221.245C32.6615 222.106 32.8 222.865 33.1463 223.501C33.4897 224.131 34.0575 224.678 34.9442 225.088Z" fill="#FAC8CD" stroke="#D7BCC8"/>
<path d="M51.3657 203.152C51.3078 202.657 51.2499 202.212 51.1977 201.834C51.0244 202.124 50.827 202.461 50.6143 202.836C49.872 204.144 48.9483 205.9 48.2115 207.705C47.4697 209.522 46.9397 211.337 46.9397 212.779C46.9397 213.495 47.0707 214.082 47.3365 214.527C47.5949 214.96 48.0028 215.297 48.6403 215.488C49.2791 215.68 49.734 215.603 50.0807 215.389C50.4462 215.163 50.766 214.741 51.0254 214.105C51.5474 212.827 51.7363 210.909 51.7363 208.863C51.7363 206.833 51.5516 204.741 51.3657 203.152Z" fill="#FAC8CD" stroke="#D7BCC8"/>
<path d="M392.535 68.5713C384.026 62.9937 368.618 75.8962 352.92 105.074C347.75 110.224 339.158 111.601 323.738 107.021C308.317 102.442 296.55 109.302 287.86 120.253C279.169 131.203 280.85 158.92 282.742 167.987C284.635 177.053 269.124 220.464 239.813 203.03C226.474 195.096 221.008 185.64 211.763 181.126C200.693 175.722 186.636 176.217 180.034 178.842C167.917 183.659 162.943 183.622 152.549 204.955C142.155 226.289 141.285 247.119 183.868 297.434C226.451 347.749 185.462 386.186 166.101 379.063C146.741 371.941 152.006 370.871 133.406 361.328C114.807 351.785 106.759 352.917 90.5949 358.947C74.4312 364.976 55.8376 397.771 64.2895 423.958C72.7413 450.146 71.6572 446.381 76.3782 460.749C81.6258 479.483 81.4828 489.145 75.1498 504.72C70.6012 514.548 65.7446 520.362 58.3658 525.44C50.9871 530.518 41.7221 536.014 31.8254 537.232C31.8254 537.232 39.0741 538.03 49.574 536.35C60.0739 534.669 75.4225 520.128 82.1783 508.987C88.934 497.846 91.673 480.604 86.9576 459.456L80.9785 435.929C73.7689 408.835 80.177 386.156 92.5436 377.523C104.91 368.889 112.286 369.865 126.645 378.04L133.769 383.531L146.172 392.937C166.683 405.533 187.793 401.477 206.013 387.149C224.233 372.821 245.624 317.323 199.1 277.627C152.575 237.932 172.245 212.405 183.883 204.708C195.521 197.012 202.642 199.346 210.724 206.794C215.651 211.279 221.013 219.086 226.278 221.862C231.542 224.639 251.733 231.222 270.939 225.229C290.125 216.967 301.913 197.8 302.459 185.925C303.005 174.051 303.041 165.425 299.29 149.898C299.29 149.898 294.638 121.335 318.69 123.004C342.742 124.672 354.23 125.285 361.269 118.65C394.899 107.214 401.045 74.1489 392.535 68.5713Z" fill="#629677"/>
<path d="M297.942 464.535L298.487 463.706L298.268 464.156C298.487 463.706 298.487 463.706 298.487 463.707L298.489 463.707L298.492 463.709L298.505 463.716L298.554 463.74C298.596 463.761 298.657 463.793 298.736 463.835C298.895 463.919 299.126 464.045 299.42 464.216C300.01 464.558 300.854 465.078 301.883 465.797C303.942 467.234 306.743 469.465 309.726 472.649C315.296 478.595 321.497 487.858 324.691 501.464C324.761 500.521 324.815 499.378 324.82 498.065C324.836 494.083 324.409 488.552 322.631 482.362C319.1 470.071 310.238 455.148 288.86 444.596C288.797 444.684 288.723 444.788 288.639 444.909C288.34 445.337 287.909 445.968 287.384 446.779C286.334 448.4 284.91 450.736 283.415 453.593C280.423 459.312 277.163 467.093 276.044 475.383C274.927 483.667 275.951 492.429 281.486 500.168C286.967 507.832 296.923 514.565 313.802 518.808C313.841 518.55 313.89 518.202 313.945 517.771C314.074 516.754 314.235 515.278 314.359 513.445C314.607 509.78 314.706 504.694 314.112 499.017C312.922 487.649 308.963 473.982 297.942 464.535Z" fill="#FAC8CD" stroke="#D7BCC8"/>
<path d="M319.964 438.71L319.554 437.807L319.817 438.232C319.554 437.807 319.555 437.806 319.555 437.806L319.556 437.806L319.56 437.803L319.572 437.796L319.619 437.768C319.659 437.744 319.719 437.709 319.796 437.664C319.952 437.575 320.183 437.448 320.484 437.29C321.088 436.975 321.979 436.54 323.137 436.054C325.452 435.082 328.835 433.908 333.12 433.09C341.123 431.562 352.267 431.275 365.473 435.849C364.713 435.286 363.775 434.63 362.669 433.923C359.313 431.78 354.409 429.184 348.228 427.377C335.954 423.789 318.604 423.3 298.257 435.724C298.298 435.823 298.347 435.942 298.403 436.077C298.605 436.559 298.908 437.261 299.312 438.138C300.121 439.891 301.334 442.344 302.949 445.135C306.183 450.721 311.014 457.636 317.422 463.014C323.825 468.387 331.777 472.207 341.276 471.667C350.683 471.133 361.697 466.32 374.306 454.324C374.109 454.154 373.841 453.926 373.506 453.65C372.716 452.996 371.555 452.071 370.072 450.987C367.107 448.818 362.862 446.015 357.747 443.482C347.504 438.409 333.838 434.448 319.964 438.71Z" fill="#FAC8CD" stroke="#D7BCC8"/>
<path d="M298.615 409.937L297.631 410.062L298.115 409.936C297.631 410.062 297.631 410.061 297.631 410.061L297.631 410.06L297.63 410.056L297.626 410.041L297.613 409.989C297.602 409.943 297.587 409.876 297.567 409.788C297.528 409.613 297.474 409.355 297.413 409.02C297.29 408.35 297.138 407.37 297.016 406.121C296.772 403.622 296.651 400.043 297.137 395.707C298.043 387.61 301.063 376.88 309.338 365.617C308.576 366.177 307.671 366.878 306.67 367.726C303.63 370.299 299.7 374.215 296.147 379.586C289.09 390.25 283.492 406.68 289.345 429.79C289.453 429.781 289.58 429.769 289.727 429.755C290.246 429.705 291.006 429.623 291.963 429.496C293.878 429.242 296.58 428.808 299.723 428.091C306.015 426.653 314.05 424.082 321.082 419.551C328.108 415.024 334.108 408.556 336.401 399.322C338.672 390.178 337.33 378.234 329.599 362.642C329.377 362.78 329.081 362.968 328.717 363.206C327.86 363.767 326.632 364.604 325.158 365.699C322.209 367.89 318.277 371.116 314.344 375.254C306.47 383.539 298.645 395.423 298.615 409.937Z" fill="#FAC8CD" stroke="#D7BCC8"/>
<path d="M264.362 416.143L264.192 417.12L264.214 416.621C264.192 417.12 264.191 417.12 264.191 417.12L264.19 417.12L264.186 417.12L264.171 417.119L264.117 417.116C264.07 417.113 264.001 417.109 263.912 417.101C263.733 417.087 263.471 417.063 263.132 417.023C262.456 416.944 261.474 416.802 260.244 416.552C257.784 416.052 254.327 415.118 250.324 413.381C242.85 410.139 233.478 404.103 225.139 392.888C225.45 393.781 225.855 394.852 226.372 396.058C227.939 399.719 230.53 404.625 234.622 409.597C242.747 419.473 256.81 429.645 280.62 430.83C280.643 430.725 280.669 430.6 280.698 430.456C280.803 429.944 280.948 429.193 281.107 428.241C281.426 426.336 281.804 423.626 282.04 420.411C282.513 413.974 282.412 405.538 280.144 397.487C277.877 389.441 273.455 381.808 265.301 376.906C257.225 372.052 245.413 369.83 228.24 372.646C228.307 372.898 228.4 373.237 228.521 373.654C228.806 374.639 229.245 376.057 229.86 377.788C231.089 381.25 233.02 385.956 235.821 390.93C241.431 400.888 250.495 411.855 264.362 416.143Z" fill="#FAC8CD" stroke="#D7BCC8"/>
<path d="M266.097 452.999L267.059 453.239L266.563 453.181C267.059 453.239 267.059 453.24 267.059 453.24L267.059 453.241L267.058 453.246L267.057 453.26L267.05 453.314C267.043 453.361 267.034 453.429 267.02 453.517C266.993 453.695 266.95 453.955 266.886 454.289C266.759 454.958 266.547 455.927 266.208 457.136C265.532 459.554 264.352 462.934 262.332 466.802C258.561 474.023 251.866 482.936 240.08 490.447C240.993 490.201 242.09 489.874 243.331 489.445C247.095 488.145 252.174 485.914 257.429 482.191C267.864 474.798 279.021 461.502 281.917 437.839C281.814 437.809 281.691 437.773 281.549 437.734C281.046 437.593 280.308 437.394 279.37 437.167C277.493 436.712 274.817 436.139 271.627 435.673C265.241 434.738 256.82 434.231 248.626 435.915C240.438 437.597 232.506 441.458 227.03 449.239C221.608 456.944 218.542 468.566 220.114 485.898C220.37 485.849 220.715 485.78 221.14 485.69C222.142 485.476 223.589 485.141 225.359 484.652C228.901 483.675 233.733 482.088 238.895 479.652C249.231 474.774 260.822 466.522 266.097 452.999Z" fill="#FAC8CD" stroke="#D7BCC8"/>
<path d="M161.846 441.587L161.716 442.07C161.846 441.587 161.847 441.588 161.847 441.588L161.848 441.588L161.852 441.589L161.863 441.592L161.903 441.603C161.937 441.613 161.987 441.628 162.052 441.648C162.182 441.688 162.371 441.749 162.613 441.833C163.097 442.002 163.793 442.266 164.654 442.65C166.375 443.419 168.754 444.667 171.401 446.59C176.212 450.086 181.905 455.811 186.145 464.929C186.073 464.422 185.983 463.86 185.869 463.252C185.322 460.334 184.231 456.345 182.06 452.063C177.759 443.581 169.202 433.918 152.123 429.183C152.101 429.232 152.077 429.286 152.05 429.345C151.891 429.7 151.665 430.223 151.394 430.89C150.853 432.226 150.137 434.138 149.444 436.443C148.055 441.056 146.761 447.213 147.107 453.438C147.452 459.657 149.43 465.913 154.555 470.787C159.613 475.598 167.8 479.125 180.692 479.878C180.684 479.704 180.673 479.49 180.657 479.239C180.609 478.476 180.52 477.372 180.353 476.011C180.019 473.29 179.376 469.549 178.142 465.472C175.671 457.307 170.851 447.865 161.468 442.504L161.846 441.587Z" fill="#FAC8CD" stroke="#D7BCC8"/>
<path d="M174.123 420.437L173.55 419.627L173.889 419.996C173.55 419.627 173.551 419.627 173.551 419.627L173.552 419.626L173.554 419.624L173.563 419.616L173.594 419.588C173.621 419.565 173.66 419.53 173.712 419.486C173.815 419.398 173.967 419.271 174.168 419.111C174.569 418.793 175.165 418.345 175.95 417.823C177.519 416.78 179.845 415.437 182.886 414.228C188.413 412.032 196.293 410.283 206.266 411.575C205.799 411.364 205.276 411.14 204.701 410.911C201.943 409.814 197.988 408.602 193.21 408.148C183.742 407.247 171.002 409.312 157.867 421.213C157.897 421.258 157.93 421.308 157.965 421.361C158.18 421.685 158.501 422.157 158.92 422.742C159.759 423.914 160.993 425.541 162.57 427.359C165.726 430.999 170.237 435.385 175.682 438.421C181.122 441.454 187.466 443.127 194.326 441.402C201.096 439.7 208.453 434.668 215.983 424.175C215.832 424.089 215.645 423.984 215.424 423.863C214.754 423.496 213.773 422.981 212.534 422.395C210.056 421.222 206.551 419.765 202.446 418.628C194.225 416.35 183.67 415.374 174.123 420.437Z" fill="#FAC8CD" stroke="#D7BCC8"/>
<path d="M154.456 402.184L153.513 402.491L153.965 402.277C153.513 402.491 153.513 402.491 153.513 402.491L153.513 402.49L153.511 402.487L153.506 402.476L153.489 402.438C153.474 402.406 153.453 402.358 153.426 402.296C153.372 402.171 153.296 401.988 153.203 401.749C153.017 401.271 152.766 400.57 152.499 399.666C151.966 397.858 151.371 395.238 151.115 391.976C150.651 386.047 151.31 378.001 155.492 368.857C155.153 369.24 154.784 369.674 154.396 370.155C152.532 372.466 150.206 375.885 148.359 380.316C144.7 389.094 142.906 401.875 150.392 417.94C150.444 417.925 150.501 417.908 150.562 417.89C150.935 417.781 151.48 417.614 152.164 417.386C153.531 416.931 155.45 416.233 157.653 415.265C162.064 413.326 167.587 410.313 172.097 406.009C176.603 401.709 180.077 396.143 180.457 389.08C180.833 382.11 178.201 373.593 170.404 363.298C170.276 363.417 170.121 363.565 169.94 363.74C169.391 364.271 168.609 365.056 167.683 366.067C165.83 368.088 163.402 371.005 161.102 374.59C156.495 381.771 152.442 391.567 154.456 402.184Z" fill="#FAC8CD" stroke="#D7BCC8"/>
<path d="M130.068 411.465L130.085 412.457L130.013 411.962C130.085 412.457 130.084 412.457 130.084 412.457L130.083 412.457L130.08 412.457L130.068 412.459L130.027 412.465C129.991 412.469 129.939 412.475 129.872 412.483C129.737 412.498 129.54 412.517 129.284 412.536C128.773 412.573 128.029 412.608 127.086 412.597C125.202 412.576 122.523 412.377 119.329 411.664C113.525 410.368 106.027 407.377 98.5113 400.696C98.7788 401.133 99.085 401.612 99.4314 402.125C101.093 404.584 103.68 407.812 107.374 410.878C114.692 416.951 126.385 422.416 143.939 419.974C143.94 419.92 143.941 419.861 143.942 419.797C143.946 419.408 143.947 418.838 143.93 418.118C143.896 416.677 143.792 414.638 143.512 412.248C142.953 407.462 141.693 401.298 138.902 395.724C136.113 390.155 131.812 385.201 125.171 382.764C118.618 380.36 109.704 380.377 97.574 384.81C97.6505 384.967 97.7459 385.159 97.8603 385.383C98.2074 386.064 98.7286 387.042 99.4224 388.223C100.811 390.588 102.887 393.765 105.639 397.016C111.152 403.527 119.327 410.275 130.068 411.465Z" fill="#FAC8CD" stroke="#D7BCC8"/>
<path d="M136.398 438.387L137.388 438.441L136.889 438.478C137.388 438.441 137.388 438.441 137.388 438.442L137.388 438.443L137.388 438.446L137.389 438.458L137.392 438.499C137.394 438.535 137.396 438.587 137.399 438.655C137.404 438.791 137.409 438.989 137.409 439.245C137.41 439.758 137.39 440.503 137.312 441.442C137.156 443.32 136.764 445.978 135.823 449.112C134.112 454.808 130.59 462.071 123.385 469.085C123.84 468.85 124.34 468.579 124.877 468.27C127.449 466.79 130.854 464.443 134.178 460.979C140.762 454.117 147.055 442.848 145.882 425.165C145.828 425.16 145.769 425.155 145.705 425.149C145.317 425.117 144.749 425.075 144.029 425.04C142.59 424.971 140.549 424.927 138.145 425.034C133.331 425.247 127.093 426.06 121.332 428.443C115.576 430.823 110.326 434.757 107.418 441.205C104.549 447.568 103.925 456.46 107.474 468.878C107.635 468.813 107.834 468.732 108.066 468.634C108.77 468.336 109.782 467.887 111.011 467.28C113.469 466.066 116.788 464.223 120.228 461.712C127.119 456.682 134.438 449.014 136.398 438.387Z" fill="#FAC8CD" stroke="#D7BCC8"/>
<path d="M388.806 310.692L389.351 309.863L389.132 310.312C389.351 309.863 389.351 309.863 389.352 309.863L389.353 309.864L389.36 309.867L389.382 309.878C389.401 309.888 389.43 309.902 389.467 309.921C389.541 309.959 389.65 310.015 389.792 310.091C390.077 310.241 390.492 310.469 391.024 310.777C392.087 311.393 393.614 312.334 395.477 313.634C399.203 316.235 404.277 320.276 409.682 326.046C420.117 337.185 431.784 354.76 437.386 380.832C437.394 380.756 437.403 380.679 437.411 380.6C437.625 378.583 437.843 375.653 437.858 372.016C437.888 364.74 437.106 354.635 433.858 343.328C427.387 320.8 411.12 293.463 371.884 274.2C371.74 274.399 371.535 274.686 371.277 275.055C370.73 275.837 369.943 276.99 368.985 278.469C367.069 281.428 364.471 285.69 361.745 290.902C356.289 301.33 350.334 315.535 348.29 330.685C346.246 345.829 348.114 361.886 358.263 376.077C368.358 390.193 386.7 402.535 417.736 410.262C417.746 410.198 417.756 410.129 417.768 410.055C417.842 409.569 417.946 408.849 418.065 407.921C418.302 406.063 418.595 403.369 418.821 400.026C419.273 393.338 419.454 384.061 418.369 373.701C416.2 352.969 408.974 327.978 388.806 310.692Z" fill="#FAC8CD" stroke="#D7BCC8"/>
<path d="M428.493 263.616L428.083 262.713L428.346 263.138C428.083 262.713 428.083 262.712 428.084 262.712L428.086 262.711L428.091 262.707L428.113 262.694L428.132 262.683C428.148 262.673 428.169 262.661 428.194 262.646C428.266 262.603 428.372 262.541 428.512 262.461C428.791 262.302 429.205 262.072 429.75 261.787C430.839 261.219 432.45 260.431 434.545 259.552C438.735 257.794 444.863 255.667 452.63 254.184C467.621 251.321 488.711 250.859 513.738 260.066C513.678 260.018 513.618 259.97 513.555 259.921C511.965 258.662 509.606 256.911 506.54 254.953C500.408 251.038 491.451 246.296 480.159 242.995C457.664 236.418 425.865 235.548 388.608 258.405C388.699 258.633 388.832 258.96 389.006 259.375C389.374 260.256 389.928 261.537 390.666 263.137C392.141 266.338 394.354 270.813 397.3 275.903C403.196 286.089 412.016 298.717 423.725 308.545C435.43 318.369 449.999 325.376 467.417 324.387C484.743 323.404 504.979 314.504 528.103 292.408C528.055 292.366 528.002 292.32 527.945 292.27C527.574 291.947 527.022 291.475 526.301 290.878C524.858 289.685 522.738 287.996 520.033 286.017C514.624 282.06 506.88 276.947 497.546 272.324C478.866 263.072 453.884 255.816 428.493 263.616Z" fill="#FAC8CD" stroke="#D7BCC8"/>
<path d="M389.356 211.653L388.372 211.777L388.856 211.652C388.372 211.777 388.372 211.777 388.372 211.776L388.372 211.774L388.37 211.768L388.364 211.744C388.359 211.723 388.351 211.692 388.341 211.651C388.322 211.57 388.294 211.451 388.259 211.294C388.189 210.98 388.092 210.516 387.981 209.911C387.76 208.702 387.484 206.931 387.264 204.669C386.823 200.147 386.603 193.664 387.483 185.806C389.18 170.639 394.974 150.355 411.168 129.169C411.105 129.212 411.04 129.256 410.975 129.3C409.302 130.447 406.932 132.183 404.156 134.533C398.602 139.234 391.424 146.389 384.932 156.2C371.998 175.746 361.766 205.866 372.587 248.215C372.832 248.195 373.183 248.164 373.631 248.121C374.581 248.029 375.969 247.88 377.716 247.648C381.21 247.184 386.139 246.394 391.873 245.084C403.346 242.463 418.017 237.771 430.867 229.491C443.713 221.214 454.714 209.368 458.919 192.436C463.101 175.594 460.581 153.631 446.31 125.008C446.255 125.042 446.196 125.079 446.131 125.118C445.713 125.377 445.099 125.765 444.315 126.278C442.749 127.303 440.509 128.829 437.819 130.828C432.439 134.826 425.266 140.711 418.09 148.262C403.73 163.371 389.412 185.092 389.356 211.653Z" fill="#FAC8CD" stroke="#D7BCC8"/>
<path d="M327.319 223.338L327.149 224.315L327.171 223.816C327.149 224.315 327.149 224.315 327.148 224.315L327.146 224.315L327.139 224.315L327.114 224.314C327.093 224.313 327.061 224.311 327.019 224.308C326.936 224.303 326.814 224.295 326.653 224.282C326.333 224.257 325.861 224.213 325.251 224.142C324.03 223.998 322.255 223.742 320.029 223.289C315.576 222.384 309.314 220.692 302.06 217.545C288.058 211.472 270.367 199.981 254.864 178.283C254.887 178.356 254.91 178.43 254.934 178.506C255.539 180.442 256.504 183.216 257.936 186.56C260.8 193.249 265.533 202.211 273.008 211.296C287.899 229.395 313.691 248.015 357.351 250.096C357.404 249.856 357.478 249.512 357.568 249.07C357.759 248.135 358.023 246.765 358.314 245.027C358.897 241.551 359.587 236.607 360.017 230.741C360.878 219.003 360.698 203.602 356.552 188.888C352.408 174.179 344.313 160.187 329.359 151.199C314.485 142.259 292.75 138.223 261.199 143.468C261.216 143.53 261.233 143.598 261.252 143.671C261.377 144.146 261.567 144.848 261.828 145.747C262.349 147.545 263.15 150.135 264.272 153.292C266.515 159.609 270.036 168.194 275.149 177.269C285.379 195.431 301.942 215.491 327.319 223.338Z" fill="#FAC8CD" stroke="#D7BCC8"/>
<path d="M330.977 290.157L331.94 290.397L331.443 290.339C331.94 290.397 331.94 290.398 331.94 290.398L331.94 290.4L331.939 290.407L331.936 290.432C331.933 290.453 331.929 290.485 331.923 290.526C331.912 290.609 331.895 290.73 331.871 290.889C331.822 291.207 331.745 291.675 331.63 292.278C331.399 293.486 331.016 295.237 330.404 297.425C329.181 301.801 327.042 307.925 323.382 314.934C316.317 328.463 303.584 345.281 280.826 359.182C280.901 359.165 280.977 359.147 281.054 359.129C283.028 358.664 285.865 357.902 289.303 356.714C296.181 354.339 305.46 350.263 315.059 343.462C334.183 329.912 354.611 305.527 359.829 262.13C359.593 262.06 359.255 261.961 358.821 261.839C357.902 261.582 356.554 261.22 354.841 260.804C351.416 259.973 346.535 258.929 340.715 258.078C329.07 256.374 313.695 255.446 298.721 258.522C283.752 261.596 269.214 268.664 259.173 282.932C249.185 297.124 243.596 318.512 246.556 350.358C246.619 350.347 246.688 350.334 246.762 350.32C247.246 350.23 247.959 350.091 248.875 349.896C250.706 349.506 253.346 348.892 256.576 348.001C263.038 346.218 271.854 343.324 281.274 338.878C300.125 329.98 321.325 314.903 330.977 290.157Z" fill="#FAC8CD" stroke="#D7BCC8"/>
</svg>
