<svg width="607" height="691" viewBox="0 0 607 691" fill="none" xmlns="http://www.w3.org/2000/svg">
<g opacity="0.1">
<path d="M227.6 141.476L227.316 141.064L228.001 141.774C213.961 160.609 208.316 178.579 206.178 191.832C205.109 198.46 204.918 203.908 204.992 207.696C205.028 209.481 205.122 210.896 205.212 211.893C211.144 200.491 223.301 196.484 237.078 192.22C237.49 192.093 237.903 191.965 238.318 191.837C252.464 187.466 268.302 182.573 281.564 169.311C288.375 162.5 290.694 156.482 290.518 151.15C290.34 145.798 287.647 141.025 284.192 136.717C282.467 134.566 280.563 132.544 278.706 130.633C278.242 130.157 277.781 129.686 277.326 129.222C275.964 127.832 274.659 126.5 273.521 125.233C272.005 123.544 270.746 121.927 270.025 120.385C269.298 118.83 269.091 117.292 269.776 115.824C272.089 110.868 270.778 106.581 268.859 103.494C267.898 101.947 266.788 100.711 265.916 99.8599C265.481 99.4352 265.107 99.1082 264.843 98.8886C264.816 98.8661 264.79 98.8447 264.765 98.8244C259.896 103.52 253.833 105.456 247.258 106.272C242.685 106.84 237.811 106.87 232.896 106.9C230.621 106.914 228.336 106.928 226.069 106.996C218.866 107.21 211.772 107.96 205.378 110.893C199.001 113.817 193.281 118.93 188.859 127.944C179.983 146.037 179.801 167.065 181.859 183.612C182.887 191.879 184.472 199.012 185.8 204.077C186.464 206.609 187.063 208.624 187.496 210.004C187.554 210.187 187.608 210.358 187.659 210.518C194.209 185.228 203.963 167.976 212.16 156.99C216.346 151.379 220.126 147.404 222.864 144.828C224.233 143.541 225.341 142.603 226.109 141.986C226.494 141.677 226.793 141.448 226.997 141.296C227.099 141.22 227.178 141.163 227.231 141.124C227.258 141.105 227.279 141.091 227.293 141.081L227.309 141.069L227.314 141.066L227.315 141.065C227.315 141.065 227.316 141.064 227.6 141.476Z" fill="url(#paint0_linear_45_3778)" stroke="black"/>
<path d="M279.272 235.511L279.532 235.084L279.162 235.999C256.25 230.812 237.535 232.948 224.555 236.374C218.064 238.087 213.006 240.124 209.575 241.729C207.958 242.486 206.702 243.147 205.828 243.633C218.656 244.427 227.253 253.912 236.743 264.772C237.026 265.096 237.311 265.422 237.596 265.749C247.332 276.903 258.233 289.391 275.737 296.128C284.726 299.588 291.167 299.265 295.969 296.939C300.788 294.604 304.057 290.205 306.592 285.299C307.857 282.85 308.932 280.289 309.925 277.816C310.172 277.199 310.415 276.586 310.655 275.982C311.372 274.173 312.059 272.44 312.756 270.885C313.684 268.814 314.65 267.008 315.767 265.722C316.893 264.427 318.214 263.614 319.835 263.644C325.303 263.746 328.688 260.808 330.731 257.801C331.754 256.295 332.434 254.778 332.858 253.636C333.069 253.066 333.216 252.591 333.31 252.261C333.32 252.227 333.329 252.195 333.337 252.164C327.069 249.619 322.839 244.864 319.424 239.187C317.048 235.238 315.043 230.796 313.02 226.316C312.084 224.242 311.144 222.16 310.161 220.115C307.042 213.62 303.477 207.442 298.201 202.788C292.94 198.147 285.946 194.995 275.913 194.613C255.775 193.845 236.483 202.214 222.196 210.811C215.058 215.106 209.182 219.45 205.092 222.72C203.047 224.354 201.449 225.72 200.364 226.676C200.22 226.802 200.086 226.921 199.961 227.033C225.732 222.754 245.458 224.665 258.825 227.697C265.653 229.246 270.82 231.087 274.285 232.543C276.018 233.272 277.324 233.904 278.201 234.355C278.639 234.581 278.969 234.762 279.191 234.887C279.302 234.949 279.386 234.998 279.443 235.031C279.472 235.048 279.493 235.061 279.508 235.07L279.525 235.08L279.53 235.083L279.531 235.084C279.532 235.084 279.532 235.084 279.272 235.511Z" fill="url(#paint1_linear_45_3778)" stroke="black"/>
<path d="M222.693 377.865C222.727 377.861 222.761 377.856 222.792 377.852C222.722 371.088 225.478 365.352 229.399 360.011C232.126 356.297 235.451 352.733 238.804 349.14C240.356 347.476 241.915 345.805 243.423 344.11C248.213 338.727 252.538 333.055 254.797 326.392C257.049 319.748 257.26 312.079 253.743 302.675C246.685 283.799 231.523 269.227 218.08 259.361C211.364 254.432 205.091 250.687 200.496 248.174C198.2 246.918 196.323 245.97 195.022 245.337C194.851 245.254 194.689 245.176 194.538 245.103C208.425 267.23 214.27 286.167 216.628 299.67C217.832 306.567 218.126 312.044 218.119 315.803C218.115 317.682 218.036 319.132 217.957 320.115C217.918 320.606 217.878 320.981 217.849 321.234C217.834 321.36 217.821 321.456 217.813 321.522C217.808 321.554 217.805 321.579 217.802 321.596L217.799 321.616L217.799 321.622L217.798 321.623C217.798 321.624 217.798 321.624 217.304 321.549L217.798 321.624L216.811 321.635C212.76 298.495 203.572 282.052 195.405 271.397C191.321 266.069 187.492 262.188 184.687 259.642C183.365 258.442 182.271 257.538 181.485 256.919C185.7 269.061 180.265 280.651 173.905 293.595C173.715 293.982 173.524 294.37 173.333 294.759C166.797 308.044 159.479 322.918 160.014 341.665C160.289 351.293 163.072 357.112 167.069 360.645C171.082 364.191 176.401 365.51 181.905 365.957C184.653 366.18 187.43 366.184 190.095 366.146C190.76 366.136 191.418 366.124 192.068 366.112C194.014 366.076 195.878 366.042 197.581 366.085C199.85 366.142 201.889 366.337 203.506 366.872C205.135 367.411 206.395 368.316 206.992 369.823C209.008 374.908 213.024 376.898 216.586 377.623C218.371 377.986 220.032 378.028 221.249 377.978C221.857 377.953 222.352 377.906 222.693 377.865Z" fill="url(#paint2_linear_45_3778)" stroke="black"/>
<path d="M169.019 242.612C169.021 242.421 169.023 242.241 169.024 242.074C154.914 264.059 140.267 277.41 129.053 285.292C123.325 289.318 118.494 291.916 115.089 293.509C113.387 294.306 112.042 294.851 111.119 295.198C110.658 295.372 110.302 295.496 110.06 295.577C109.94 295.617 109.847 295.647 109.785 295.667C109.753 295.676 109.729 295.684 109.713 295.689L109.693 295.695L109.688 295.696L109.687 295.697C109.686 295.697 109.686 295.697 109.543 295.218L109.686 295.697L109.256 294.809C128.469 281.292 139.437 265.978 145.601 254.052C148.683 248.088 150.565 242.971 151.675 239.349C152.198 237.642 152.55 236.267 152.776 235.293C143.583 244.276 130.782 244.292 116.363 244.047C115.932 244.04 115.499 244.032 115.065 244.025C100.262 243.766 83.6877 243.476 66.9521 251.941C58.3569 256.288 54.2764 261.283 52.7814 266.405C51.2811 271.545 52.3515 276.919 54.2907 282.09C55.2589 284.672 56.4375 287.186 57.6063 289.581C57.8979 290.179 58.1894 290.77 58.4768 291.353C59.3376 293.098 60.1625 294.77 60.8486 296.33C61.7625 298.407 62.4539 300.335 62.6584 302.026C62.8643 303.729 62.5815 305.255 61.4724 306.437C57.7291 310.425 57.6378 314.907 58.4983 318.438C58.9295 320.208 59.5987 321.729 60.1616 322.809C60.4426 323.348 60.6961 323.775 60.8783 324.066C60.897 324.096 60.9149 324.125 60.932 324.152C67.0229 321.208 73.3869 321.26 79.8887 322.535C84.4106 323.421 89.0506 324.912 93.7299 326.417C95.8964 327.113 98.0713 327.812 100.247 328.455C107.157 330.498 114.131 331.997 121.121 331.204C128.092 330.414 135.121 327.34 142.133 320.155L142.413 320.428L142.133 320.155C156.209 305.732 162.94 285.81 166.145 269.446C167.746 261.271 168.464 254 168.782 248.773C168.941 246.16 169 244.059 169.019 242.612Z" fill="url(#paint3_linear_45_3778)" stroke="black"/>
<path d="M116.146 151.316L115.66 151.433L116.57 151.051C129.041 170.959 143.748 182.729 155.327 189.521C161.118 192.917 166.128 195.07 169.685 196.372C171.362 196.985 172.716 197.41 173.677 197.687C165.198 188.028 165.865 175.245 166.879 160.859C166.91 160.429 166.94 159.998 166.971 159.565C168.02 144.796 169.194 128.261 161.635 111.096C157.752 102.281 152.982 97.9398 147.947 96.1736C142.895 94.401 137.471 95.183 132.204 96.8434C129.574 97.6724 127 98.715 124.546 99.7543C123.934 100.014 123.329 100.273 122.731 100.529C120.943 101.295 119.228 102.03 117.635 102.632C115.512 103.433 113.549 104.021 111.85 104.135C110.138 104.249 108.63 103.885 107.509 102.715C103.727 98.7639 99.2558 98.4335 95.6832 99.1044C93.8933 99.4405 92.3385 100.028 91.2299 100.532C90.6763 100.784 90.2361 101.014 89.9358 101.181C89.905 101.198 89.8757 101.214 89.8478 101.23C92.4615 107.469 92.0704 113.822 90.4506 120.246C89.324 124.715 87.587 129.268 85.8352 133.861C85.0242 135.987 84.21 138.121 83.4518 140.259C81.0432 147.051 79.174 153.935 79.5919 160.957C80.0086 167.96 82.703 175.143 89.5038 182.529C103.155 197.355 122.69 205.139 138.859 209.214C146.937 211.249 154.159 212.355 159.362 212.951C161.962 213.249 164.057 213.42 165.501 213.517C165.692 213.529 165.871 213.541 166.038 213.551C144.838 198.287 132.288 182.948 125.016 171.328C121.302 165.393 118.965 160.43 117.556 156.946C116.852 155.203 116.379 153.831 116.082 152.891C115.933 152.421 115.828 152.059 115.76 151.814C115.726 151.691 115.701 151.597 115.685 151.533C115.677 151.501 115.671 151.477 115.666 151.46L115.662 151.441L115.66 151.435L115.66 151.434C115.66 151.433 115.66 151.433 116.146 151.316Z" fill="url(#paint4_linear_45_3778)" stroke="black"/>
<path d="M25.0248 234.037C23.5693 234.893 22.6918 235.549 22.267 236.018C22.0957 236.207 22.0352 236.326 22.0154 236.382C22.0164 236.383 22.0174 236.383 22.0185 236.384C22.1039 236.438 22.2912 236.503 22.6294 236.542C22.9559 236.58 23.3767 236.588 23.8897 236.563C24.9147 236.514 26.2597 236.336 27.8601 236.037C34.264 234.842 44.5418 231.76 54.14 227.646C63.8557 223.482 81.9834 220.903 100.04 220.215C118.094 219.527 136.227 220.725 145.949 224.197C150.787 225.925 155.275 227.997 159.41 229.919L159.781 230.092C163.781 231.952 167.433 233.65 170.777 234.765C174.226 235.915 177.286 236.422 180.008 235.877C182.705 235.338 185.136 233.752 187.31 230.574C187.439 230.386 187.482 230.069 187.132 229.496C186.783 228.927 186.112 228.232 185.097 227.442C183.075 225.87 179.816 224.019 175.487 222.124C166.838 218.338 154.003 214.415 138.473 212.197C107.415 207.761 65.6289 210.152 25.0248 234.037Z" fill="url(#paint5_linear_45_3778)" stroke="black"/>
<path d="M31.3311 203.69L31.3311 203.69C30.6085 204.493 30.4649 205.086 30.5579 205.52C30.6551 205.974 31.0481 206.442 31.8251 206.899C33.3758 207.811 36.0589 208.447 39.0237 208.876C41.9656 209.303 45.1057 209.516 47.5151 209.624C48.6165 209.672 49.5632 209.699 50.266 209.713C49.9021 209.396 49.4467 209.008 48.9176 208.577C47.4787 207.405 45.5021 205.917 43.3399 204.646C41.1708 203.37 38.8514 202.333 36.7215 202.024C34.6083 201.718 32.734 202.131 31.3311 203.69ZM30.9611 203.357L30.9596 203.356L30.9611 203.357Z" fill="url(#paint6_linear_45_3778)" stroke="black"/>
<path d="M9.42945 215.898L9.42943 215.898C9.03762 216.995 9.16573 217.731 9.5545 218.254C9.9679 218.81 10.7567 219.239 11.9219 219.519C14.2458 220.077 17.7137 219.959 21.3616 219.53C24.9913 219.103 28.7335 218.376 31.5724 217.755C32.9332 217.457 34.0845 217.184 34.9138 216.98C34.2804 216.715 33.4471 216.377 32.468 216.003C30.1695 215.127 27.0759 214.06 23.8814 213.294C20.6774 212.525 17.4154 212.068 14.764 212.38C12.1191 212.691 10.1981 213.745 9.42945 215.898Z" fill="url(#paint7_linear_45_3778)" stroke="black"/>
<path d="M15.9732 231.298C15.5943 231.287 15.138 231.279 14.6234 231.283C13.0829 231.294 11.03 231.4 8.96268 231.779C6.88879 232.16 4.83977 232.809 3.27857 233.88C1.73366 234.94 0.676167 236.404 0.517854 238.459L15.9732 231.298ZM15.9732 231.298C15.4986 231.718 14.8576 232.278 14.1038 232.915C12.4443 234.317 10.2455 236.089 8.07353 237.579C5.87819 239.086 3.78749 240.25 2.32496 240.518C1.59687 240.652 1.15706 240.54 0.906052 240.3C0.646776 240.053 0.435873 239.525 0.517848 238.459L15.9732 231.298Z" fill="url(#paint8_linear_45_3778)" stroke="black"/>
<path d="M24.2538 257.889L24.2539 257.889C25.1333 258.209 25.7404 258.199 26.1601 258.034C26.572 257.872 26.8967 257.524 27.136 256.961C27.6295 255.8 27.6678 253.937 27.4535 251.88C27.242 249.849 26.7966 247.725 26.4016 246.102C26.2329 245.409 26.074 244.81 25.9474 244.351C25.7308 244.658 25.4675 245.041 25.1791 245.484C24.4033 246.674 23.4533 248.28 22.7385 249.961C22.0184 251.655 21.5641 253.365 21.7119 254.784C21.7848 255.484 22.0028 256.101 22.3971 256.616C22.7908 257.13 23.3833 257.573 24.2538 257.889Z" fill="url(#paint9_linear_45_3778)" stroke="black"/>
<path d="M39.4198 259.282C40.4572 259.761 41.239 259.787 41.8392 259.565C42.4463 259.34 42.9663 258.824 43.3999 258.017C44.2771 256.383 44.6841 253.775 44.8126 250.947C44.9401 248.14 44.7913 245.199 44.6095 242.953C44.5228 241.882 44.4289 240.972 44.3544 240.314C43.9944 240.756 43.524 241.349 42.9934 242.053C41.7877 243.654 40.2786 245.823 39.0491 248.112C37.8131 250.414 36.8899 252.783 36.7985 254.795C36.7531 255.794 36.9135 256.68 37.3196 257.426C37.7227 258.167 38.3882 258.806 39.4198 259.282Z" fill="url(#paint10_linear_45_3778)" stroke="black"/>
<path d="M58.3958 233.998C58.3182 233.335 58.2406 232.749 58.1732 232.272C57.9494 232.644 57.6838 233.095 57.3935 233.607C56.5396 235.112 55.4765 237.132 54.6282 239.21C53.7747 241.301 53.1611 243.397 53.1611 245.07C53.1611 245.901 53.313 246.589 53.6276 247.116C53.9348 247.631 54.4194 248.029 55.1684 248.254C55.9188 248.479 56.4643 248.391 56.8842 248.132C57.3229 247.861 57.6985 247.359 57.9998 246.621C58.6054 245.138 58.8222 242.922 58.8222 240.569C58.8222 238.232 58.6095 235.826 58.3958 233.998Z" fill="url(#paint11_linear_45_3778)" stroke="black"/>
<path d="M450.368 79.3581C440.59 72.9488 422.884 87.7753 404.845 121.304C398.904 127.222 389.031 128.804 371.311 123.542C353.591 118.28 340.069 126.163 330.082 138.746C320.096 151.33 322.028 183.18 324.202 193.599C326.377 204.017 308.553 253.902 274.871 233.868C259.543 224.751 253.262 213.885 242.638 208.698C229.917 202.487 213.764 203.056 206.177 206.072C192.254 211.608 186.537 211.565 174.594 236.081C162.65 260.596 161.65 284.532 210.584 342.35C259.517 400.168 212.415 444.337 190.167 436.152C167.919 427.968 173.969 426.738 152.597 415.772C131.224 404.806 121.975 406.107 103.401 413.036C84.8265 419.965 63.4602 457.649 73.1724 487.743C82.8847 517.836 81.6389 513.509 87.0638 530.019C93.094 551.547 92.9297 562.65 85.6522 580.548C80.4254 591.841 74.8445 598.522 66.3654 604.357C57.8863 610.193 47.2397 616.508 35.8671 617.907C35.8671 617.907 44.1968 618.825 56.2625 616.894C68.3281 614.963 85.9657 598.253 93.7288 585.451C101.492 572.649 104.639 552.835 99.221 528.534L92.3502 501.498C84.0655 470.363 91.4292 444.302 105.64 434.382C119.851 424.461 128.326 425.582 144.826 434.976L153.013 441.286L167.265 452.095C190.835 466.569 215.093 461.909 236.031 445.444C256.968 428.979 281.549 365.205 228.086 319.59C174.623 273.975 197.227 244.641 210.6 235.797C223.974 226.953 232.157 229.634 241.444 238.193C247.105 243.347 253.268 252.319 259.317 255.509C265.366 258.699 288.568 266.264 310.638 259.378C332.685 249.884 346.232 227.858 346.859 214.213C347.486 200.567 347.528 190.655 343.217 172.813C343.217 172.813 337.872 139.991 365.511 141.908C393.15 143.825 406.35 144.53 414.439 136.905C453.084 123.764 460.147 85.7675 450.368 79.3581Z" fill="url(#paint12_linear_45_3778)" stroke="black"/>
<path d="M341.718 534.314L342.262 533.485L342.043 533.934C342.262 533.485 342.263 533.485 342.263 533.485L342.264 533.486L342.269 533.488L342.283 533.495C342.296 533.502 342.315 533.511 342.338 533.523C342.386 533.547 342.456 533.583 342.547 533.632C342.728 533.728 342.993 533.872 343.331 534.068C344.006 534.46 344.974 535.057 346.156 535.881C348.518 537.53 351.732 540.09 355.156 543.745C361.613 550.637 368.809 561.416 372.444 577.293C372.542 576.125 372.623 574.642 372.63 572.901C372.649 568.319 372.157 561.956 370.111 554.835C366.046 540.682 355.836 523.5 331.208 511.363C331.129 511.474 331.032 511.611 330.918 511.775C330.573 512.267 330.077 512.993 329.474 513.925C328.266 515.79 326.629 518.477 324.91 521.762C321.47 528.338 317.719 537.287 316.432 546.825C315.146 556.357 316.324 566.447 322.698 575.36C329.019 584.198 340.501 591.952 359.956 596.828C360.002 596.525 360.063 596.097 360.132 595.554C360.281 594.385 360.467 592.687 360.609 590.579C360.894 586.364 361.007 580.516 360.324 573.986C358.956 560.915 354.403 545.187 341.718 534.314Z" fill="url(#paint13_linear_45_3778)" stroke="black"/>
<path d="M366.952 504.622L366.543 503.719L366.806 504.144C366.543 503.719 366.543 503.718 366.543 503.718L366.545 503.717L366.549 503.715L366.563 503.706C366.575 503.699 366.593 503.688 366.616 503.675C366.662 503.647 366.73 503.607 366.819 503.557C366.997 503.455 367.261 503.309 367.607 503.128C368.299 502.766 369.321 502.267 370.649 501.71C373.306 500.595 377.188 499.248 382.107 498.309C391.383 496.537 404.34 496.218 419.701 501.636C418.766 500.928 417.556 500.067 416.088 499.13C412.226 496.664 406.586 493.678 399.475 491.599C385.34 487.467 365.361 486.909 341.938 501.231C341.989 501.357 342.053 501.513 342.13 501.697C342.362 502.251 342.71 503.058 343.175 504.067C344.105 506.084 345.5 508.904 347.358 512.113C351.076 518.536 356.633 526.491 364.005 532.678C371.373 538.862 380.529 543.261 391.469 542.64C402.317 542.024 415.009 536.467 429.531 522.634C429.299 522.433 428.97 522.152 428.549 521.803C427.64 521.052 426.304 519.988 424.599 518.741C421.189 516.246 416.308 513.023 410.425 510.11C398.647 504.277 382.922 499.716 366.952 504.622Z" fill="url(#paint14_linear_45_3778)" stroke="black"/>
<path d="M342.368 471.63L341.384 471.755L341.868 471.629C341.384 471.755 341.384 471.754 341.384 471.754L341.384 471.753L341.382 471.748L341.378 471.732C341.375 471.718 341.37 471.698 341.364 471.672C341.351 471.62 341.333 471.543 341.311 471.443C341.266 471.243 341.205 470.947 341.134 470.563C340.994 469.795 340.819 468.671 340.679 467.238C340.4 464.37 340.26 460.263 340.817 455.287C341.868 445.901 345.394 433.429 355.112 420.357C354.16 421.041 352.979 421.943 351.65 423.068C348.153 426.027 343.632 430.533 339.544 436.711C331.417 448.992 324.977 467.913 331.734 494.524C331.869 494.512 332.037 494.497 332.236 494.478C332.834 494.42 333.708 494.326 334.809 494.18C337.011 493.888 340.118 493.389 343.732 492.564C350.967 490.911 360.209 487.954 368.3 482.741C376.385 477.531 383.295 470.085 385.936 459.45C388.554 448.905 386.998 435.138 378.077 417.175C377.816 417.337 377.45 417.569 376.993 417.868C376.006 418.514 374.595 419.476 372.899 420.735C369.508 423.255 364.986 426.965 360.463 431.724C351.409 441.25 342.403 454.924 342.368 471.63Z" fill="url(#paint15_linear_45_3778)" stroke="black"/>
<path d="M303.06 478.832L302.89 479.809L302.912 479.31C302.89 479.809 302.889 479.809 302.889 479.809L302.887 479.809L302.883 479.809L302.866 479.808C302.852 479.808 302.831 479.806 302.805 479.805C302.751 479.801 302.673 479.796 302.57 479.788C302.365 479.772 302.065 479.744 301.677 479.699C300.902 479.608 299.776 479.445 298.364 479.158C295.542 478.584 291.575 477.512 286.98 475.519C278.316 471.761 267.428 464.73 257.782 451.606C258.157 452.716 258.672 454.11 259.358 455.71C261.161 459.922 264.142 465.566 268.849 471.287C278.205 482.659 294.402 494.367 321.824 495.716C321.853 495.583 321.888 495.418 321.927 495.223C322.048 494.634 322.214 493.771 322.397 492.675C322.764 490.485 323.199 487.368 323.471 483.67C324.014 476.269 323.899 466.566 321.289 457.302C318.681 448.044 313.59 439.254 304.199 433.609C294.887 428.011 281.269 425.46 261.48 428.717C261.558 429.014 261.672 429.431 261.824 429.957C262.152 431.089 262.657 432.721 263.364 434.711C264.778 438.693 266.998 444.104 270.22 449.824C276.67 461.275 287.099 473.897 303.06 478.832Z" fill="url(#paint16_linear_45_3778)" stroke="black"/>
<path d="M305.145 521.14L306.107 521.38L305.61 521.322C306.107 521.38 306.107 521.38 306.107 521.381L306.107 521.382L306.106 521.387L306.104 521.403C306.102 521.417 306.1 521.438 306.096 521.464C306.089 521.517 306.078 521.595 306.063 521.697C306.032 521.9 305.983 522.197 305.909 522.581C305.763 523.348 305.52 524.459 305.132 525.846C304.356 528.62 303.001 532.5 300.683 536.939C296.311 545.31 288.516 555.664 274.731 564.34C275.866 564.046 277.292 563.633 278.938 563.064C283.269 561.568 289.112 559.001 295.158 554.718C307.173 546.205 320.018 530.892 323.336 503.637C323.206 503.599 323.044 503.552 322.852 503.499C322.273 503.336 321.424 503.108 320.345 502.847C318.186 502.323 315.109 501.665 311.441 501.128C304.097 500.054 294.412 499.47 284.984 501.407C275.562 503.343 266.428 507.787 260.122 516.749C253.869 525.634 250.343 539.033 252.168 559.006C252.47 558.949 252.895 558.865 253.429 558.751C254.583 558.506 256.246 558.119 258.282 557.557C262.355 556.434 267.912 554.609 273.849 551.807C285.734 546.198 299.074 536.704 305.145 521.14Z" fill="url(#paint17_linear_45_3778)" stroke="black"/>
<path d="M185.259 508.073L185.128 508.556C185.259 508.073 185.259 508.074 185.259 508.074L185.26 508.074L185.264 508.075L185.277 508.078L185.322 508.091C185.361 508.103 185.418 508.119 185.492 508.142C185.641 508.188 185.857 508.257 186.134 508.354C186.688 508.548 187.487 508.851 188.474 509.291C190.447 510.172 193.176 511.603 196.214 513.811C201.812 517.879 208.453 524.579 213.341 535.308C213.25 534.601 213.126 533.787 212.956 532.883C212.326 529.525 211.071 524.933 208.572 520.005C203.616 510.231 193.751 499.1 174.063 493.658C174.031 493.73 173.994 493.811 173.953 493.903C173.77 494.311 173.509 494.913 173.198 495.681C172.575 497.217 171.752 499.418 170.954 502.068C169.357 507.374 167.868 514.459 168.266 521.624C168.663 528.783 170.941 535.991 176.848 541.61C182.688 547.164 192.138 551.226 207.012 552.082C207.003 551.868 206.989 551.593 206.968 551.263C206.913 550.385 206.81 549.115 206.618 547.55C206.234 544.419 205.494 540.116 204.075 535.427C201.233 526.035 195.687 515.164 184.88 508.99L185.259 508.073Z" fill="url(#paint18_linear_45_3778)" stroke="black"/>
<path d="M199.35 483.63L198.778 482.82L199.116 483.188C198.778 482.82 198.778 482.82 198.778 482.82L198.779 482.819L198.782 482.816L198.792 482.808L198.827 482.776C198.857 482.749 198.902 482.71 198.961 482.659C199.079 482.559 199.253 482.413 199.483 482.231C199.943 481.866 200.626 481.353 201.526 480.754C203.325 479.557 205.994 478.017 209.483 476.63C215.914 474.075 225.126 472.046 236.806 473.652C236.16 473.351 235.405 473.02 234.551 472.68C231.376 471.417 226.825 470.023 221.325 469.499C210.416 468.462 195.735 470.847 180.608 484.575C180.651 484.641 180.701 484.715 180.756 484.799C181.004 485.172 181.372 485.714 181.855 486.388C182.82 487.736 184.24 489.607 186.053 491.698C189.683 495.885 194.873 500.932 201.141 504.427C207.403 507.918 214.713 509.847 222.619 507.86C230.435 505.895 238.921 500.08 247.596 487.968C247.411 487.861 247.171 487.726 246.881 487.567C246.11 487.144 244.981 486.552 243.556 485.878C240.705 484.529 236.674 482.853 231.952 481.545C222.497 478.925 210.345 477.799 199.35 483.63Z" fill="url(#paint19_linear_45_3778)" stroke="black"/>
<path d="M176.713 462.735L175.77 463.042L176.222 462.828C175.77 463.042 175.77 463.042 175.77 463.042L175.77 463.041L175.768 463.037L175.763 463.025L175.743 462.983C175.726 462.945 175.702 462.891 175.671 462.82C175.609 462.677 175.522 462.468 175.416 462.194C175.203 461.647 174.915 460.843 174.609 459.806C173.998 457.733 173.315 454.728 173.022 450.985C172.481 444.085 173.266 434.685 178.253 424.002C177.775 424.53 177.236 425.153 176.659 425.869C174.514 428.528 171.837 432.463 169.711 437.563C165.494 447.678 163.433 462.408 172.075 480.916C172.151 480.894 172.237 480.869 172.333 480.841C172.762 480.715 173.39 480.523 174.176 480.261C175.749 479.737 177.956 478.935 180.49 477.821C185.563 475.591 191.918 472.124 197.11 467.17C202.297 462.22 206.301 455.807 206.739 447.667C207.173 439.619 204.127 429.794 195.121 417.925C194.965 418.071 194.765 418.26 194.527 418.49C193.895 419.102 192.996 420.005 191.931 421.167C189.799 423.492 187.006 426.848 184.36 430.972C179.062 439.231 174.393 450.508 176.713 462.735Z" fill="url(#paint20_linear_45_3778)" stroke="black"/>
<path d="M148.753 473.46L148.77 474.452L148.698 473.957C148.77 474.452 148.77 474.452 148.769 474.452L148.768 474.452L148.764 474.452L148.752 474.454L148.705 474.46C148.664 474.466 148.605 474.473 148.528 474.481C148.374 474.499 148.148 474.521 147.855 474.542C147.27 474.585 146.417 474.624 145.336 474.612C143.175 474.588 140.102 474.359 136.438 473.541C129.683 472.033 120.927 468.525 112.178 460.623C112.542 461.235 112.98 461.933 113.495 462.695C115.407 465.525 118.384 469.24 122.635 472.768C131.068 479.767 144.545 486.06 164.774 483.229C164.776 483.151 164.777 483.061 164.779 482.961C164.784 482.513 164.784 481.857 164.765 481.029C164.726 479.372 164.606 477.026 164.285 474.277C163.641 468.773 162.192 461.68 158.979 455.264C155.769 448.853 150.814 443.143 143.16 440.335C135.594 437.559 125.307 437.588 111.319 442.715C111.412 442.907 111.534 443.154 111.684 443.448C112.084 444.232 112.683 445.357 113.482 446.716C115.078 449.436 117.467 453.091 120.633 456.83C126.973 464.318 136.383 472.09 148.753 473.46Z" fill="url(#paint21_linear_45_3778)" stroke="black"/>
<path d="M156.108 504.337L157.098 504.391L156.6 504.428C157.098 504.391 157.098 504.392 157.099 504.392L157.099 504.393L157.099 504.397L157.1 504.41L157.103 504.457C157.105 504.498 157.108 504.557 157.111 504.635C157.117 504.79 157.123 505.017 157.123 505.31C157.123 505.897 157.101 506.751 157.011 507.828C156.832 509.982 156.382 513.031 155.303 516.626C153.312 523.255 149.182 531.735 140.672 539.892C141.309 539.573 142.036 539.187 142.833 538.728C145.794 537.024 149.713 534.323 153.538 530.336C161.125 522.429 168.372 509.441 167.003 489.061C166.925 489.054 166.836 489.046 166.736 489.038C166.29 489 165.636 488.952 164.808 488.912C163.152 488.832 160.804 488.782 158.039 488.905C152.503 489.15 145.325 490.085 138.693 492.828C132.068 495.568 126.017 500.1 122.666 507.531C119.353 514.878 118.642 525.14 122.748 539.462C122.947 539.382 123.202 539.278 123.507 539.15C124.317 538.808 125.482 538.29 126.895 537.592C129.723 536.195 133.54 534.076 137.498 531.187C145.423 525.402 153.851 516.576 156.108 504.337Z" fill="url(#paint22_linear_45_3778)" stroke="black"/>
<path d="M446.132 357.529L446.677 356.7L446.458 357.15C446.677 356.7 446.677 356.7 446.678 356.701L446.68 356.702L446.687 356.705L446.712 356.718C446.734 356.729 446.767 356.745 446.809 356.766C446.894 356.81 447.019 356.874 447.182 356.961C447.508 357.133 447.985 357.394 448.595 357.748C449.815 358.455 451.567 359.535 453.706 361.028C457.984 364.014 463.811 368.655 470.019 375.281C482.061 388.135 495.534 408.457 501.931 438.649C501.957 438.421 501.984 438.18 502.011 437.927C502.257 435.606 502.507 432.238 502.524 428.055C502.559 419.688 501.66 408.069 497.925 395.068C490.482 369.152 471.763 337.704 426.614 315.557C426.611 315.561 426.609 315.565 426.606 315.569C426.439 315.799 426.194 316.142 425.879 316.592C425.25 317.491 424.345 318.817 423.244 320.517C421.042 323.918 418.055 328.818 414.921 334.81C408.65 346.797 401.802 363.129 399.451 380.55C397.101 397.965 399.248 416.438 410.925 432.765C422.548 449.017 443.665 463.215 479.388 472.096C479.403 472.002 479.42 471.896 479.438 471.777C479.523 471.218 479.643 470.391 479.779 469.323C480.052 467.188 480.389 464.09 480.649 460.246C481.168 452.559 481.376 441.893 480.13 429.983C477.635 406.151 469.328 377.411 446.132 357.529Z" fill="url(#paint23_linear_45_3778)" stroke="black"/>
<path d="M491.666 303.419L491.256 302.515L491.519 302.941C491.256 302.515 491.257 302.515 491.257 302.515L491.259 302.514L491.266 302.51L491.29 302.495C491.311 302.482 491.342 302.463 491.383 302.439C491.465 302.39 491.586 302.319 491.747 302.228C492.067 302.045 492.542 301.781 493.167 301.455C494.417 300.802 496.267 299.898 498.672 298.889C503.483 296.87 510.519 294.428 519.438 292.725C536.74 289.421 561.116 288.901 590.05 299.639C589.871 299.495 589.682 299.343 589.482 299.185C587.653 297.737 584.94 295.724 581.415 293.473C574.363 288.97 564.064 283.518 551.08 279.722C525.2 272.156 488.618 271.16 445.762 297.471C445.764 297.476 445.766 297.48 445.767 297.485C445.873 297.749 446.032 298.139 446.244 298.646C446.668 299.658 447.304 301.132 448.152 302.971C449.848 306.651 452.392 311.795 455.779 317.647C462.557 329.356 472.697 343.875 486.162 355.176C499.622 366.473 516.381 374.536 536.421 373.398C556.369 372.266 579.658 362.013 606.263 336.573C606.192 336.51 606.111 336.439 606.02 336.361C605.594 335.989 604.959 335.446 604.129 334.76C602.47 333.388 600.033 331.446 596.924 329.172C590.705 324.622 581.803 318.744 571.072 313.429C549.599 302.794 520.869 294.447 491.666 303.419Z" fill="url(#paint24_linear_45_3778)" stroke="black"/>
<path d="M446.642 243.777L445.658 243.901L446.142 243.776C445.658 243.901 445.658 243.901 445.657 243.9L445.657 243.898L445.655 243.891L445.648 243.863C445.646 243.853 445.643 243.841 445.639 243.828C445.634 243.808 445.629 243.785 445.622 243.758C445.614 243.724 445.605 243.685 445.594 243.64C445.576 243.561 445.553 243.463 445.528 243.348C445.448 242.988 445.337 242.456 445.21 241.762C444.956 240.375 444.639 238.341 444.386 235.745C443.88 230.552 443.627 223.108 444.637 214.085C446.596 196.58 453.306 173.139 472.118 148.674C471.928 148.802 471.727 148.938 471.517 149.082C469.592 150.402 466.867 152.398 463.674 155.1C457.288 160.506 449.034 168.732 441.57 180.013C426.69 202.5 414.923 237.152 427.389 285.871C427.394 285.87 427.399 285.87 427.403 285.869C427.687 285.847 428.107 285.811 428.653 285.758C429.746 285.652 431.341 285.48 433.35 285.214C437.367 284.681 443.033 283.772 449.624 282.266C462.814 279.254 479.681 273.86 494.458 264.338C509.23 254.819 521.887 241.193 526.724 221.713C531.54 202.322 528.63 177.042 512.193 144.105C512.112 144.155 512.02 144.212 511.919 144.275C511.438 144.572 510.731 145.018 509.83 145.608C508.029 146.787 505.454 148.542 502.362 150.839C496.177 155.435 487.93 162.201 479.681 170.881C463.173 188.25 446.706 213.227 446.642 243.777Z" fill="url(#paint25_linear_45_3778)" stroke="black"/>
<path d="M375.405 257.275L375.235 258.253L375.258 257.753C375.235 258.253 375.235 258.253 375.234 258.253L375.232 258.252L375.224 258.252L375.196 258.251C375.171 258.249 375.135 258.247 375.087 258.244C374.992 258.238 374.852 258.229 374.668 258.214C374.301 258.185 373.759 258.135 373.059 258.053C371.658 257.889 369.621 257.595 367.065 257.075C361.952 256.035 354.762 254.092 346.431 250.479C330.272 243.469 309.832 230.176 291.962 205.013C292.029 205.233 292.1 205.465 292.176 205.708C292.873 207.935 293.982 211.126 295.628 214.971C298.922 222.662 304.365 232.967 312.959 243.413C330.09 264.236 359.765 285.652 409.997 288.03C409.998 288.026 409.999 288.021 410 288.016C410.062 287.739 410.151 287.326 410.26 286.789C410.48 285.713 410.784 284.137 411.118 282.139C411.788 278.143 412.581 272.46 413.076 265.716C414.066 252.224 413.859 234.516 409.092 217.596C404.326 200.682 395.014 184.584 377.81 174.243C360.686 163.95 335.665 159.314 299.355 165.363C299.379 165.455 299.406 165.559 299.436 165.675C299.58 166.222 299.799 167.029 300.098 168.063C300.697 170.131 301.618 173.108 302.908 176.738C305.486 183.999 309.535 193.868 315.412 204.301C327.172 225.179 346.218 248.25 375.405 257.275Z" fill="url(#paint26_linear_45_3778)" stroke="black"/>
<path d="M379.701 334.015L380.663 334.255L380.166 334.197C380.663 334.255 380.663 334.255 380.663 334.256L380.663 334.258L380.662 334.266L380.658 334.294C380.656 334.31 380.653 334.331 380.65 334.357C380.648 334.371 380.646 334.386 380.644 334.402C380.631 334.496 380.612 334.636 380.584 334.818C380.528 335.182 380.44 335.719 380.308 336.411C380.043 337.797 379.603 339.807 378.9 342.32C377.496 347.344 375.04 354.376 370.837 362.425C362.683 378.038 347.954 397.468 321.571 413.481C321.795 413.43 322.031 413.376 322.28 413.317C324.551 412.783 327.813 411.906 331.767 410.541C339.675 407.809 350.344 403.122 361.382 395.302C383.383 379.714 406.88 351.657 412.866 301.727C412.862 301.726 412.857 301.724 412.853 301.723C412.58 301.642 412.175 301.524 411.647 301.375C410.59 301.079 409.04 300.663 407.071 300.185C403.134 299.23 397.522 298.03 390.832 297.051C377.445 295.092 359.768 294.025 342.549 297.562C325.336 301.097 308.61 309.227 297.057 325.642C285.558 341.982 279.134 366.604 282.554 403.254C282.648 403.237 282.753 403.218 282.871 403.196C283.427 403.092 284.247 402.932 285.3 402.708C287.406 402.259 290.441 401.554 294.155 400.53C301.583 398.48 311.718 395.152 322.547 390.041C344.217 379.813 368.599 362.477 379.701 334.015Z" fill="url(#paint27_linear_45_3778)" stroke="black"/>
</g>
<defs>
<linearGradient id="paint0_linear_45_3778" x1="235.655" y1="213.668" x2="235.655" y2="98.1592" gradientUnits="userSpaceOnUse">
<stop stop-color="#629677"/>
<stop offset="1" stop-color="#7CBD96"/>
</linearGradient>
<linearGradient id="paint1_linear_45_3778" x1="266.147" y1="299.207" x2="266.147" y2="194.064" gradientUnits="userSpaceOnUse">
<stop stop-color="#629677"/>
<stop offset="1" stop-color="#7CBD96"/>
</linearGradient>
<linearGradient id="paint2_linear_45_3778" x1="208.216" y1="378.495" x2="208.216" y2="243.93" gradientUnits="userSpaceOnUse">
<stop stop-color="#629677"/>
<stop offset="1" stop-color="#7CBD96"/>
</linearGradient>
<linearGradient id="paint3_linear_45_3778" x1="110.551" y1="331.92" x2="110.551" y2="233.699" gradientUnits="userSpaceOnUse">
<stop stop-color="#629677"/>
<stop offset="1" stop-color="#7CBD96"/>
</linearGradient>
<linearGradient id="paint4_linear_45_3778" x1="127.128" y1="214.134" x2="127.128" y2="94.6654" gradientUnits="userSpaceOnUse">
<stop stop-color="#629677"/>
<stop offset="1" stop-color="#7CBD96"/>
</linearGradient>
<linearGradient id="paint5_linear_45_3778" x1="104.706" y1="237.078" x2="104.706" y2="209.879" gradientUnits="userSpaceOnUse">
<stop stop-color="#629677"/>
<stop offset="1" stop-color="#7CBD96"/>
</linearGradient>
<linearGradient id="paint6_linear_45_3778" x1="40.8091" y1="210.23" x2="40.8091" y2="201.43" gradientUnits="userSpaceOnUse">
<stop stop-color="#629677"/>
<stop offset="1" stop-color="#7CBD96"/>
</linearGradient>
<linearGradient id="paint7_linear_45_3778" x1="22.5759" y1="220.396" x2="22.5759" y2="211.781" gradientUnits="userSpaceOnUse">
<stop stop-color="#629677"/>
<stop offset="1" stop-color="#7CBD96"/>
</linearGradient>
<linearGradient id="paint8_linear_45_3778" x1="8.60453" y1="241.075" x2="8.60453" y2="230.782" gradientUnits="userSpaceOnUse">
<stop stop-color="#629677"/>
<stop offset="1" stop-color="#7CBD96"/>
</linearGradient>
<linearGradient id="paint9_linear_45_3778" x1="24.6308" y1="258.647" x2="24.6308" y2="243.234" gradientUnits="userSpaceOnUse">
<stop stop-color="#629677"/>
<stop offset="1" stop-color="#7CBD96"/>
</linearGradient>
<linearGradient id="paint10_linear_45_3778" x1="40.8257" y1="260.2" x2="40.8257" y2="239.109" gradientUnits="userSpaceOnUse">
<stop stop-color="#629677"/>
<stop offset="1" stop-color="#7CBD96"/>
</linearGradient>
<linearGradient id="paint11_linear_45_3778" x1="55.9917" y1="248.883" x2="55.9917" y2="230.857" gradientUnits="userSpaceOnUse">
<stop stop-color="#629677"/>
<stop offset="1" stop-color="#7CBD96"/>
</linearGradient>
<linearGradient id="paint12_linear_45_3778" x1="133.268" y1="304.092" x2="336.943" y2="386.504" gradientUnits="userSpaceOnUse">
<stop stop-color="#23232C"/>
<stop offset="1" stop-color="#44464E"/>
</linearGradient>
<linearGradient id="paint13_linear_45_3778" x1="344.3" y1="510.729" x2="344.3" y2="597.445" gradientUnits="userSpaceOnUse">
<stop stop-color="#629677"/>
<stop offset="1" stop-color="#7CBD96"/>
</linearGradient>
<linearGradient id="paint14_linear_45_3778" x1="385.794" y1="488.553" x2="385.794" y2="543.198" gradientUnits="userSpaceOnUse">
<stop stop-color="#629677"/>
<stop offset="1" stop-color="#7CBD96"/>
</linearGradient>
<linearGradient id="paint15_linear_45_3778" x1="357.994" y1="416.465" x2="357.994" y2="495.055" gradientUnits="userSpaceOnUse">
<stop stop-color="#629677"/>
<stop offset="1" stop-color="#7CBD96"/>
</linearGradient>
<linearGradient id="paint16_linear_45_3778" x1="290.34" y1="426.779" x2="290.34" y2="496.235" gradientUnits="userSpaceOnUse">
<stop stop-color="#629677"/>
<stop offset="1" stop-color="#7CBD96"/>
</linearGradient>
<linearGradient id="paint17_linear_45_3778" x1="287.535" y1="499.636" x2="287.535" y2="565.473" gradientUnits="userSpaceOnUse">
<stop stop-color="#629677"/>
<stop offset="1" stop-color="#7CBD96"/>
</linearGradient>
<linearGradient id="paint18_linear_45_3778" x1="190.895" y1="493.064" x2="190.895" y2="552.611" gradientUnits="userSpaceOnUse">
<stop stop-color="#629677"/>
<stop offset="1" stop-color="#7CBD96"/>
</linearGradient>
<linearGradient id="paint19_linear_45_3778" x1="214.14" y1="468.786" x2="214.14" y2="509.16" gradientUnits="userSpaceOnUse">
<stop stop-color="#629677"/>
<stop offset="1" stop-color="#7CBD96"/>
</linearGradient>
<linearGradient id="paint20_linear_45_3778" x1="186.425" y1="417.188" x2="186.425" y2="481.51" gradientUnits="userSpaceOnUse">
<stop stop-color="#629677"/>
<stop offset="1" stop-color="#7CBD96"/>
</linearGradient>
<linearGradient id="paint21_linear_45_3778" x1="137.785" y1="437.992" x2="137.785" y2="484.424" gradientUnits="userSpaceOnUse">
<stop stop-color="#629677"/>
<stop offset="1" stop-color="#7CBD96"/>
</linearGradient>
<linearGradient id="paint22_linear_45_3778" x1="143.545" y1="488.331" x2="143.545" y2="541.599" gradientUnits="userSpaceOnUse">
<stop stop-color="#629677"/>
<stop offset="1" stop-color="#7CBD96"/>
</linearGradient>
<linearGradient id="paint23_linear_45_3778" x1="450.565" y1="314.924" x2="450.565" y2="472.711" gradientUnits="userSpaceOnUse">
<stop stop-color="#629677"/>
<stop offset="1" stop-color="#7CBD96"/>
</linearGradient>
<linearGradient id="paint24_linear_45_3778" x1="526.072" y1="274.571" x2="526.072" y2="374.005" gradientUnits="userSpaceOnUse">
<stop stop-color="#629677"/>
<stop offset="1" stop-color="#7CBD96"/>
</linearGradient>
<linearGradient id="paint25_linear_45_3778" x1="475.483" y1="143.397" x2="475.483" y2="286.401" gradientUnits="userSpaceOnUse">
<stop stop-color="#629677"/>
<stop offset="1" stop-color="#7CBD96"/>
</linearGradient>
<linearGradient id="paint26_linear_45_3778" x1="352.382" y1="162.167" x2="352.382" y2="288.549" gradientUnits="userSpaceOnUse">
<stop stop-color="#629677"/>
<stop offset="1" stop-color="#7CBD96"/>
</linearGradient>
<linearGradient id="paint27_linear_45_3778" x1="347.274" y1="294.74" x2="347.274" y2="414.537" gradientUnits="userSpaceOnUse">
<stop stop-color="#629677"/>
<stop offset="1" stop-color="#7CBD96"/>
</linearGradient>
</defs>
</svg>
