<svg width="400" height="455" viewBox="0 0 400 455" fill="none" xmlns="http://www.w3.org/2000/svg">
<path d="M149.984 92.8608C131.407 117.78 135.033 140.434 135.033 140.434C142.281 124.123 167.654 129.56 185.778 111.437C203.902 93.3138 174.904 82.8927 178.075 76.0961C181.247 69.3002 174.451 64.3162 174.451 64.3162C161.764 77.0028 135.938 59.7851 124.159 83.7986C112.378 107.812 123.706 139.528 123.706 139.528C132.314 105.094 149.984 92.8608 149.984 92.8608Z" fill="url(#paint0_linear_45_111)"/>
<path d="M130.717 149.755C165.681 143.645 184.034 154.829 184.034 154.829C153.72 147.967 134.487 160.475 134.487 160.475C152.336 160.48 157.666 185.875 181.586 195.082C205.505 204.288 203.259 173.557 210.758 173.698C218.256 173.837 220.053 165.603 220.053 165.603C203.308 159.158 208.56 128.567 181.833 127.549C155.105 126.53 130.717 149.755 130.717 149.755Z" fill="url(#paint1_linear_45_111)"/>
<path d="M118.88 167.989C125.76 184.459 104.385 199.171 105.116 224.791C105.847 250.411 133.334 236.486 136.097 243.458C138.86 250.431 147.15 248.912 147.15 248.912C146.638 230.978 176.888 224.026 167.52 198.972C158.151 173.919 127.316 160.376 127.316 160.376C146.438 190.279 143.198 211.525 143.198 211.525C137.838 180.909 118.88 167.989 118.88 167.989Z" fill="url(#paint2_linear_45_111)"/>
<path d="M93.8989 210.837C112.581 191.695 111.708 158.028 111.708 158.028C92.791 188.06 72.187 194.173 72.187 194.173C97.6082 176.289 101.229 153.634 101.229 153.634C89.2544 166.871 66.8424 153.793 43.9715 165.361C21.0998 176.929 45.4017 195.873 40.2689 201.341C35.1362 206.81 40.0391 213.664 40.0391 213.664C56.0488 205.566 75.218 229.979 93.8989 210.837Z" fill="url(#paint3_linear_45_111)"/>
<path d="M58.7388 120.137C76.8571 139.814 110.522 140.741 110.522 140.741C81.5422 120.247 76.5379 99.3456 76.5379 99.3456C93.0389 125.685 115.468 130.511 115.468 130.511C102.89 117.847 117.146 96.1651 106.815 72.7082C96.4845 49.2521 76.2705 72.5077 71.0844 67.0902C65.8975 61.6728 58.7907 66.2031 58.7907 66.2031C66.0222 82.623 40.6213 100.461 58.7388 120.137Z" fill="url(#paint4_linear_45_111)"/>
<path d="M16.3237 153.574C8.62189 158.105 23.1203 155.386 35.8068 149.949C48.4927 144.512 83.3809 143.153 96.0667 147.684C108.753 152.215 117.815 160.37 123.705 151.762C126.786 147.259 69.9972 122.001 16.3237 153.574Z" fill="url(#paint5_linear_45_111)"/>
<path d="M33.9944 138.168C33.9944 138.168 24.48 129.107 20.4019 133.638C16.3238 138.168 33.9944 138.168 33.9944 138.168Z" fill="url(#paint6_linear_45_111)"/>
<path d="M24.0264 142.7C24.0264 142.7 8.16842 135.451 5.90364 141.794C3.6381 148.137 24.0264 142.7 24.0264 142.7Z" fill="url(#paint7_linear_45_111)"/>
<path d="M0.012735 156.745C-0.440222 162.636 11.3404 151.762 11.3404 151.762C11.3404 151.762 0.466443 150.855 0.012735 156.745Z" fill="url(#paint8_linear_45_111)"/>
<path d="M15.8706 169.885C20.8547 171.697 17.2303 159.917 17.2303 159.917C17.2303 159.917 10.8866 168.073 15.8706 169.885Z" fill="url(#paint9_linear_45_111)"/>
<path d="M25.8388 170.792C31.7287 173.51 29.4632 157.199 29.4632 157.199C29.4632 157.199 19.9488 168.073 25.8388 170.792Z" fill="url(#paint10_linear_45_111)"/>
<path d="M38.5256 151.762C38.5256 151.762 31.729 162.182 36.2601 163.542C40.7911 164.902 38.5256 151.762 38.5256 151.762Z" fill="url(#paint11_linear_45_111)"/>
<path d="M296.783 51.9261C290.339 47.7025 278.672 57.4729 266.785 79.5678C262.869 83.4674 256.363 84.5102 244.686 81.0425C233.009 77.5748 224.098 82.7693 217.517 91.0618C210.937 99.3542 212.21 120.343 213.642 127.208C215.075 134.074 203.33 166.947 181.134 153.745C171.034 147.737 166.894 140.576 159.893 137.158C151.511 133.066 140.866 133.44 135.866 135.428C126.691 139.076 122.924 139.048 115.053 155.203C107.183 171.358 106.524 187.132 138.77 225.232C171.016 263.333 139.977 292.439 125.316 287.046C110.655 281.653 114.642 280.842 100.558 273.616C86.4737 266.39 80.3788 267.247 68.1388 271.813C55.8988 276.379 41.8189 301.212 48.2191 321.043C54.6192 340.874 53.7983 338.022 57.3732 348.902C61.347 363.089 61.2387 370.406 56.443 382.199C52.9986 389.642 49.3209 394.044 43.7334 397.89C38.1459 401.735 31.1299 405.897 23.6356 406.819C23.6356 406.819 29.1248 407.424 37.0758 406.151C45.0268 404.878 56.6496 393.867 61.7653 385.431C66.8811 376.994 68.9552 363.937 65.3845 347.923L60.8568 330.108C55.3974 309.59 60.2499 292.417 69.6145 285.879C78.979 279.342 84.5641 280.08 95.4374 286.271L100.832 290.429L110.224 297.552C125.756 307.09 141.742 304.019 155.539 293.169C169.336 282.319 185.535 240.293 150.304 210.234C115.073 180.174 129.968 160.844 138.781 155.016C147.594 149.188 152.987 150.955 159.106 156.595C162.837 159.991 166.898 165.904 170.885 168.006C174.871 170.108 190.16 175.093 204.704 170.555C219.233 164.299 228.16 149.785 228.573 140.792C228.986 131.8 229.013 125.268 226.173 113.511C226.173 113.511 222.651 91.8817 240.864 93.1451C259.077 94.4085 267.776 94.8728 273.107 89.8484C298.573 81.1886 303.227 56.1497 296.783 51.9261Z" fill="url(#paint12_linear_45_111)"/>
<path d="M237.471 393.334C237.471 393.334 242.3 365.97 225.399 351.482C225.399 351.482 241.093 359.128 245.519 382.066C245.519 382.066 251.154 352.288 218.155 336.19C218.155 336.19 185.156 380.456 237.471 393.334Z" fill="url(#paint13_linear_45_111)"/>
<path d="M278.32 331.2C278.32 331.2 256.167 310.517 224.921 329.796C224.921 329.796 244.686 381.35 283.539 344.026C283.539 344.026 262.996 325.315 241.717 331.851C241.717 331.851 256.569 322.677 278.32 331.2Z" fill="url(#paint14_linear_45_111)"/>
<path d="M218.355 325.862C218.355 325.862 273.447 322.223 249.279 274.072C249.279 274.072 225.33 288.164 225.284 310.425C225.284 310.425 220.91 293.523 235.484 275.265C235.484 275.265 209.176 290.312 218.355 325.862Z" fill="url(#paint15_linear_45_111)"/>
<path d="M168.993 295.418C168.993 295.418 175.659 324.983 212.336 326.639C212.336 326.639 225.023 272.905 171.901 281.88C171.901 281.88 178.346 308.909 199.612 315.486C199.612 315.486 182.172 314.707 168.993 295.418Z" fill="url(#paint16_linear_45_111)"/>
<path d="M201.39 343.171C201.39 343.171 199.359 360.51 179.172 372.267C179.172 372.267 209.14 367.745 213.432 331.282C213.432 331.282 160.749 314.762 165.879 368.392C165.879 368.392 193.301 363.91 201.39 343.171Z" fill="url(#paint17_linear_45_111)"/>
<path d="M141.08 354.38C141.08 354.38 141.021 331.719 114.523 324.549C114.523 324.549 96.5287 361.704 136.758 363.789C136.758 363.789 136.448 343.014 121.995 334.758C121.995 334.758 134.597 338.161 141.08 354.38Z" fill="url(#paint18_linear_45_111)"/>
<path d="M163.638 321.089C163.638 321.089 145.917 310.243 131.213 318.042C131.213 318.042 140.826 309.213 157.999 312.406C157.999 312.406 138.818 300.34 118.589 318.899C118.589 318.899 140.367 353.972 163.638 321.089Z" fill="url(#paint19_linear_45_111)"/>
<path d="M128.624 274.549C128.624 274.549 113.023 288.272 116.126 304.625C116.126 304.625 110.533 292.83 118.661 277.37C118.661 277.37 101.464 292.126 113.213 316.936C113.213 316.936 153.155 306.501 128.624 274.549Z" fill="url(#paint20_linear_45_111)"/>
<path d="M97.9879 311.958C97.9879 311.958 85.0723 313.844 72.6763 301.537C72.6763 301.537 81.7381 322.307 108.904 318.355C108.904 318.355 110.648 277.11 72.904 291.186C72.904 291.186 81.445 310.126 97.9879 311.958Z" fill="url(#paint21_linear_45_111)"/>
<path d="M90.9797 356.532C90.9797 356.532 112.348 348.989 110.36 321.61C110.36 321.61 69.3476 316.901 80.6717 355.561C80.6717 355.561 100.177 348.406 103.195 332.037C103.195 332.037 104.146 345.056 90.9797 356.532Z" fill="url(#paint22_linear_45_111)"/>
<path d="M281.026 207.159C281.026 207.159 220.982 287.705 316.173 311.137C316.173 311.137 324.96 261.345 294.206 234.985C294.206 234.985 322.763 248.897 330.818 290.635C330.818 290.635 341.07 236.449 281.026 207.159Z" fill="url(#paint23_linear_45_111)"/>
<path d="M390.504 198.077C390.504 198.077 350.196 160.442 293.34 195.522C293.34 195.522 329.302 289.329 400 221.416C400 221.416 362.621 187.367 323.901 199.262C323.901 199.262 350.926 182.567 390.504 198.077Z" fill="url(#paint24_linear_45_111)"/>
<path d="M337.659 94.1265C337.659 94.1265 294.082 119.769 293.997 160.274C293.997 160.274 286.04 129.521 312.557 96.298C312.557 96.298 264.687 123.678 281.389 188.363C281.389 188.363 381.635 181.743 337.659 94.1265Z" fill="url(#paint25_linear_45_111)"/>
<path d="M191.571 132.969C191.571 132.969 203.701 186.766 270.44 189.778C270.44 189.778 293.525 92.0032 196.862 108.335C196.862 108.335 208.588 157.518 247.286 169.485C247.286 169.485 215.552 168.067 191.571 132.969Z" fill="url(#paint26_linear_45_111)"/>
<path d="M250.521 219.859C250.521 219.859 246.825 251.41 210.092 272.802C210.092 272.802 264.622 264.576 272.429 198.227C272.429 198.227 176.569 168.166 185.902 265.753C185.902 265.753 235.802 257.596 250.521 219.859Z" fill="url(#paint27_linear_45_111)"/>
<defs>
<linearGradient id="paint0_linear_45_111" x1="155.292" y1="140.434" x2="155.292" y2="64.3162" gradientUnits="userSpaceOnUse">
<stop stop-color="#FBCFDB"/>
<stop offset="1" stop-color="#DBAFB3"/>
</linearGradient>
<linearGradient id="paint1_linear_45_111" x1="175.385" y1="196.803" x2="175.385" y2="127.516" gradientUnits="userSpaceOnUse">
<stop stop-color="#FBCFDB"/>
<stop offset="1" stop-color="#DBAFB3"/>
</linearGradient>
<linearGradient id="paint2_linear_45_111" x1="137.209" y1="249.052" x2="137.209" y2="160.376" gradientUnits="userSpaceOnUse">
<stop stop-color="#FBCFDB"/>
<stop offset="1" stop-color="#DBAFB3"/>
</linearGradient>
<linearGradient id="paint3_linear_45_111" x1="72.8508" y1="218.359" x2="72.8508" y2="153.634" gradientUnits="userSpaceOnUse">
<stop stop-color="#FBCFDB"/>
<stop offset="1" stop-color="#DBAFB3"/>
</linearGradient>
<linearGradient id="paint4_linear_45_111" x1="83.7747" y1="140.741" x2="83.7747" y2="62.0137" gradientUnits="userSpaceOnUse">
<stop stop-color="#FBCFDB"/>
<stop offset="1" stop-color="#DBAFB3"/>
</linearGradient>
<linearGradient id="paint5_linear_45_111" x1="68.9989" y1="155.861" x2="68.9989" y2="137.938" gradientUnits="userSpaceOnUse">
<stop stop-color="#FBCFDB"/>
<stop offset="1" stop-color="#DBAFB3"/>
</linearGradient>
<linearGradient id="paint6_linear_45_111" x1="26.8926" y1="138.168" x2="26.8926" y2="132.369" gradientUnits="userSpaceOnUse">
<stop stop-color="#FBCFDB"/>
<stop offset="1" stop-color="#DBAFB3"/>
</linearGradient>
<linearGradient id="paint7_linear_45_111" x1="14.8772" y1="144.869" x2="14.8772" y2="139.192" gradientUnits="userSpaceOnUse">
<stop stop-color="#FBCFDB"/>
<stop offset="1" stop-color="#DBAFB3"/>
</linearGradient>
<linearGradient id="paint8_linear_45_111" x1="5.6702" y1="158.495" x2="5.6702" y2="151.712" gradientUnits="userSpaceOnUse">
<stop stop-color="#FBCFDB"/>
<stop offset="1" stop-color="#DBAFB3"/>
</linearGradient>
<linearGradient id="paint9_linear_45_111" x1="16.2316" y1="170.074" x2="16.2316" y2="159.917" gradientUnits="userSpaceOnUse">
<stop stop-color="#FBCFDB"/>
<stop offset="1" stop-color="#DBAFB3"/>
</linearGradient>
<linearGradient id="paint10_linear_45_111" x1="26.9033" y1="171.097" x2="26.9033" y2="157.199" gradientUnits="userSpaceOnUse">
<stop stop-color="#FBCFDB"/>
<stop offset="1" stop-color="#DBAFB3"/>
</linearGradient>
<linearGradient id="paint11_linear_45_111" x1="36.8973" y1="163.641" x2="36.8973" y2="151.762" gradientUnits="userSpaceOnUse">
<stop stop-color="#FBCFDB"/>
<stop offset="1" stop-color="#DBAFB3"/>
</linearGradient>
<linearGradient id="paint12_linear_45_111" x1="87.8208" y1="200.021" x2="222.038" y2="254.329" gradientUnits="userSpaceOnUse">
<stop stop-color="#23232C"/>
<stop offset="1" stop-color="#44464E"/>
</linearGradient>
<linearGradient id="paint13_linear_45_111" x1="226.886" y1="336.19" x2="226.886" y2="393.334" gradientUnits="userSpaceOnUse">
<stop stop-color="#FBCFDB"/>
<stop offset="1" stop-color="#DBAFB3"/>
</linearGradient>
<linearGradient id="paint14_linear_45_111" x1="254.23" y1="321.577" x2="254.23" y2="357.587" gradientUnits="userSpaceOnUse">
<stop stop-color="#FBCFDB"/>
<stop offset="1" stop-color="#DBAFB3"/>
</linearGradient>
<linearGradient id="paint15_linear_45_111" x1="235.91" y1="274.072" x2="235.91" y2="325.862" gradientUnits="userSpaceOnUse">
<stop stop-color="#FBCFDB"/>
<stop offset="1" stop-color="#DBAFB3"/>
</linearGradient>
<linearGradient id="paint16_linear_45_111" x1="191.327" y1="280.869" x2="191.327" y2="326.639" gradientUnits="userSpaceOnUse">
<stop stop-color="#FBCFDB"/>
<stop offset="1" stop-color="#DBAFB3"/>
</linearGradient>
<linearGradient id="paint17_linear_45_111" x1="189.479" y1="328.881" x2="189.479" y2="372.267" gradientUnits="userSpaceOnUse">
<stop stop-color="#FBCFDB"/>
<stop offset="1" stop-color="#DBAFB3"/>
</linearGradient>
<linearGradient id="paint18_linear_45_111" x1="125.796" y1="324.549" x2="125.796" y2="363.789" gradientUnits="userSpaceOnUse">
<stop stop-color="#FBCFDB"/>
<stop offset="1" stop-color="#DBAFB3"/>
</linearGradient>
<linearGradient id="paint19_linear_45_111" x1="141.113" y1="308.551" x2="141.113" y2="335.157" gradientUnits="userSpaceOnUse">
<stop stop-color="#FBCFDB"/>
<stop offset="1" stop-color="#DBAFB3"/>
</linearGradient>
<linearGradient id="paint20_linear_45_111" x1="122.849" y1="274.549" x2="122.849" y2="316.936" gradientUnits="userSpaceOnUse">
<stop stop-color="#FBCFDB"/>
<stop offset="1" stop-color="#DBAFB3"/>
</linearGradient>
<linearGradient id="paint21_linear_45_111" x1="90.7963" y1="288.258" x2="90.7963" y2="318.855" gradientUnits="userSpaceOnUse">
<stop stop-color="#FBCFDB"/>
<stop offset="1" stop-color="#DBAFB3"/>
</linearGradient>
<linearGradient id="paint22_linear_45_111" x1="94.5927" y1="321.43" x2="94.5927" y2="356.532" gradientUnits="userSpaceOnUse">
<stop stop-color="#FBCFDB"/>
<stop offset="1" stop-color="#DBAFB3"/>
</linearGradient>
<linearGradient id="paint23_linear_45_111" x1="296.912" y1="207.159" x2="296.912" y2="311.137" gradientUnits="userSpaceOnUse">
<stop stop-color="#FBCFDB"/>
<stop offset="1" stop-color="#DBAFB3"/>
</linearGradient>
<linearGradient id="paint24_linear_45_111" x1="346.67" y1="180.567" x2="346.67" y2="246.092" gradientUnits="userSpaceOnUse">
<stop stop-color="#FBCFDB"/>
<stop offset="1" stop-color="#DBAFB3"/>
</linearGradient>
<linearGradient id="paint25_linear_45_111" x1="313.333" y1="94.1265" x2="313.333" y2="188.363" gradientUnits="userSpaceOnUse">
<stop stop-color="#FBCFDB"/>
<stop offset="1" stop-color="#DBAFB3"/>
</linearGradient>
<linearGradient id="paint26_linear_45_111" x1="232.212" y1="106.496" x2="232.212" y2="189.778" gradientUnits="userSpaceOnUse">
<stop stop-color="#FBCFDB"/>
<stop offset="1" stop-color="#DBAFB3"/>
</linearGradient>
<linearGradient id="paint27_linear_45_111" x1="228.846" y1="193.858" x2="228.846" y2="272.802" gradientUnits="userSpaceOnUse">
<stop stop-color="#FBCFDB"/>
<stop offset="1" stop-color="#DBAFB3"/>
</linearGradient>
</defs>
</svg>
