<svg width="46" height="36" viewBox="0 0 46 36" fill="none" xmlns="http://www.w3.org/2000/svg">
<g clip-path="url(#clip0_45_618)">
<path d="M8.21882 34.9651V32.665C8.21882 31.7831 7.67764 31.2082 6.75004 31.2082C6.28632 31.2082 5.78388 31.3616 5.436 31.86C5.16559 31.4382 4.77916 31.2082 4.19943 31.2082C3.81283 31.2082 3.42657 31.3231 3.11725 31.7449V31.2849H2.30566V34.9651H3.11725V32.9333C3.11725 32.2817 3.46513 31.9749 4.0063 31.9749C4.54713 31.9749 4.81789 32.32 4.81789 32.9333V34.9651H5.62948V32.9333C5.62948 32.2817 6.01573 31.9749 6.51818 31.9749C7.05936 31.9749 7.32977 32.32 7.32977 32.9333V34.9651H8.21882ZM20.2379 31.2849H18.924V30.1732H18.1125V31.2849H17.3782V32.0131H18.1123V33.7001C18.1123 34.5435 18.4602 35.0418 19.3878 35.0418C19.7356 35.0418 20.1219 34.9269 20.3927 34.7735L20.1606 34.0834C19.9288 34.2367 19.6583 34.2751 19.465 34.2751C19.0786 34.2751 18.924 34.0451 18.924 33.6616V32.0131H20.2379V31.2849ZM27.1172 31.2081C26.6535 31.2081 26.3444 31.4382 26.1511 31.7449V31.2849H25.3395V34.9651H26.1511V32.895C26.1511 32.2817 26.4215 31.9366 26.9239 31.9366C27.0785 31.9366 27.2718 31.9751 27.4264 32.0133L27.6582 31.2467C27.5037 31.2082 27.2718 31.2082 27.1172 31.2082V31.2081ZM16.7211 31.5916C16.3345 31.3231 15.7935 31.2082 15.2138 31.2082C14.2864 31.2082 13.6681 31.6682 13.6681 32.3966C13.6681 33.0101 14.1318 33.355 14.9434 33.4701L15.3298 33.5085C15.755 33.585 15.9868 33.7001 15.9868 33.8918C15.9868 34.16 15.6777 34.3518 15.1365 34.3518C14.5955 34.3518 14.1704 34.16 13.8998 33.9685L13.5133 34.5818C13.9385 34.8884 14.5182 35.0418 15.0978 35.0418C16.18 35.0418 16.7984 34.5435 16.7984 33.8534C16.7984 33.2017 16.296 32.8566 15.5229 32.7417L15.1365 32.7033C14.7886 32.6648 14.5182 32.5884 14.5182 32.3584C14.5182 32.09 14.7886 31.9366 15.2138 31.9366C15.6777 31.9366 16.1414 32.1282 16.3733 32.2433L16.7211 31.5916ZM38.2863 31.2082C37.8225 31.2082 37.5133 31.4382 37.32 31.7449V31.2849H36.5084V34.9651H37.32V32.895C37.32 32.2817 37.5906 31.9366 38.0929 31.9366C38.2476 31.9366 38.4409 31.9751 38.5955 32.0133L38.8273 31.2467C38.6728 31.2082 38.4409 31.2082 38.2863 31.2082ZM27.9288 33.125C27.9288 34.2367 28.7017 35.0418 29.8999 35.0418C30.4409 35.0418 30.8273 34.9269 31.2137 34.6202L30.8273 33.9685C30.5182 34.1985 30.209 34.3134 29.8611 34.3134C29.2041 34.3134 28.7404 33.8534 28.7404 33.125C28.7404 32.435 29.2041 31.9749 29.8611 31.9366C30.209 31.9366 30.5182 32.0515 30.8273 32.2817L31.2137 31.63C30.8273 31.3231 30.4409 31.2082 29.8999 31.2082C28.7017 31.2082 27.9288 32.0133 27.9288 33.125ZM35.4264 33.125V31.2849H34.6148V31.7449C34.3442 31.4 33.9578 31.2082 33.4554 31.2082C32.4119 31.2082 31.6003 32.0133 31.6003 33.125C31.6003 34.2367 32.4119 35.0418 33.4554 35.0418C33.9964 35.0418 34.383 34.8502 34.6148 34.5051V34.9651H35.4264V33.125ZM32.4505 33.125C32.4505 32.4733 32.8756 31.9366 33.5712 31.9366C34.2282 31.9366 34.6921 32.435 34.6921 33.125C34.6921 33.7767 34.2282 34.3134 33.5712 34.3134C32.8756 34.275 32.4505 33.7767 32.4505 33.125ZM22.7501 31.2082C21.668 31.2082 20.8949 31.9749 20.8949 33.125C20.8949 34.2751 21.6678 35.0418 22.7887 35.0418C23.3297 35.0418 23.8709 34.8884 24.296 34.5435L23.9094 33.9685C23.6003 34.1985 23.2139 34.3518 22.8274 34.3518C22.325 34.3518 21.8225 34.1218 21.7065 33.4699H24.4506V33.1634C24.4893 31.9749 23.7938 31.2082 22.7501 31.2082ZM22.7501 31.8982C23.2524 31.8982 23.6005 32.205 23.6776 32.7801H21.7452C21.8225 32.2817 22.1704 31.8982 22.7501 31.8982ZM42.8853 33.125V29.8281H42.0737V31.7449C41.8031 31.4 41.4167 31.2082 40.9142 31.2082C39.8708 31.2082 39.0592 32.0133 39.0592 33.125C39.0592 34.2367 39.8708 35.0418 40.9142 35.0418C41.4554 35.0418 41.8418 34.8502 42.0737 34.5051V34.9651H42.8853V33.125ZM39.9095 33.125C39.9095 32.4733 40.3345 31.9366 41.0303 31.9366C41.6873 31.9366 42.151 32.435 42.151 33.125C42.151 33.7767 41.6873 34.3134 41.0303 34.3134C40.3345 34.275 39.9095 33.7767 39.9095 33.125ZM12.779 33.125V31.2849H11.9674V31.7449C11.6969 31.4 11.3104 31.2082 10.808 31.2082C9.76454 31.2082 8.95295 32.0133 8.95295 33.125C8.95295 34.2367 9.76454 35.0418 10.808 35.0418C11.3492 35.0418 11.7356 34.8502 11.9674 34.5051V34.9651H12.779V33.125ZM9.76454 33.125C9.76454 32.4733 10.1897 31.9366 10.8853 31.9366C11.5423 31.9366 12.0062 32.435 12.0062 33.125C12.0062 33.7767 11.5423 34.3134 10.8853 34.3134C10.1897 34.275 9.76454 33.7767 9.76454 33.125Z" fill="black"/>
<path d="M16.4504 3.33789H28.6243V25.0361H16.4504V3.33789Z" fill="#FF5F00"/>
<path d="M17.2235 14.1867C17.2235 9.77815 19.3104 5.86779 22.518 3.33755C20.1607 1.49745 17.1849 0.385742 13.9386 0.385742C6.24751 0.385742 0.0253906 6.55776 0.0253906 14.1867C0.0253906 21.8155 6.24751 27.9877 13.9384 27.9877C17.1848 27.9877 20.1605 26.876 22.518 25.0358C19.3104 22.5439 17.2235 18.5953 17.2235 14.1867Z" fill="#EB001B"/>
<path d="M45.0493 14.1867C45.0493 21.8155 38.8272 27.9877 31.1362 27.9877C27.8899 27.9877 24.9141 26.876 22.5566 25.0358C25.803 22.5057 27.8513 18.5953 27.8513 14.1867C27.8513 9.77815 25.7643 5.86779 22.5566 3.33755C24.9139 1.49745 27.8899 0.385742 31.1362 0.385742C38.8272 0.385742 45.0493 6.59618 45.0493 14.1867Z" fill="#F79E1B"/>
</g>
<defs>
<clipPath id="clip0_45_618">
<rect width="45.0687" height="34.7518" fill="white" transform="translate(0.0253906 0.385742)"/>
</clipPath>
</defs>
</svg>
