<svg width="50" height="50" viewBox="0 0 50 50" fill="none" xmlns="http://www.w3.org/2000/svg">
<path d="M45.8333 35.25V41.5C45.8357 42.0802 45.7168 42.6545 45.4844 43.1861C45.2519 43.7177 44.911 44.195 44.4835 44.5872C44.0559 44.9794 43.5512 45.2781 43.0016 45.4639C42.4519 45.6498 41.8695 45.7189 41.2917 45.6666C34.8809 44.9701 28.7229 42.7794 23.3125 39.2708C18.2788 36.0722 14.0111 31.8045 10.8125 26.7708C7.29161 21.3358 5.1005 15.1479 4.41666 8.70831C4.3646 8.1322 4.43307 7.55156 4.6177 7.00336C4.80234 6.45516 5.0991 5.95141 5.48909 5.52419C5.87908 5.09696 6.35375 4.75562 6.88289 4.5219C7.41203 4.28818 7.98404 4.16719 8.56249 4.16664H14.8125C15.8235 4.15669 16.8037 4.51473 17.5703 5.174C18.3369 5.83328 18.8377 6.74883 18.9792 7.74998C19.243 9.75012 19.7322 11.714 20.4375 13.6041C20.7178 14.3498 20.7785 15.1602 20.6123 15.9393C20.4461 16.7184 20.0601 17.4335 19.5 18L16.8542 20.6458C19.8199 25.8615 24.1384 30.1801 29.3542 33.1458L32 30.5C32.5664 29.9398 33.2816 29.5538 34.0607 29.3877C34.8398 29.2215 35.6501 29.2822 36.3958 29.5625C38.286 30.2678 40.2499 30.757 42.25 31.0208C43.262 31.1636 44.1862 31.6733 44.8469 32.4531C45.5076 33.2329 45.8587 34.2283 45.8333 35.25Z" stroke="black" stroke-width="2" stroke-linecap="round" stroke-linejoin="round"/>
</svg>
