<svg width="36" height="35" viewBox="0 0 36 35" fill="none" xmlns="http://www.w3.org/2000/svg">
<path d="M22.7496 24.1518L18.3843 19.7865C18.2248 19.6269 18.0363 19.5979 17.9347 19.5979C17.8332 19.5979 17.6447 19.6269 17.4852 19.7865L13.1053 24.1663C12.6122 24.6594 11.8436 25.457 9.27661 25.457L14.6571 30.823C15.4729 31.6378 16.5787 32.0954 17.7317 32.0954C18.8847 32.0954 19.9905 31.6378 20.8063 30.823L26.2013 25.4425C24.8815 25.4425 23.7793 25.1815 22.7496 24.1518ZM13.1053 11.0268L17.4852 15.4066C17.6012 15.5227 17.7752 15.5952 17.9347 15.5952C18.0943 15.5952 18.2683 15.5227 18.3843 15.4066L22.7206 11.0703C23.7503 9.99712 24.9251 9.75058 26.2448 9.75058L20.8498 4.37007C20.034 3.5553 18.9282 3.09766 17.7752 3.09766C16.6222 3.09766 15.5164 3.5553 14.7006 4.37007L9.32012 9.73608C11.8726 9.73608 12.6557 10.5772 13.1053 11.0268Z" fill="black"/>
<path d="M30.9582 14.4785L27.6951 11.2009H25.8677C25.0846 11.2009 24.3014 11.5199 23.7648 12.0855L19.414 16.4364C19.0079 16.8424 18.4713 17.0455 17.9347 17.0455C17.3822 17.0377 16.8533 16.8199 16.4555 16.4364L12.0756 12.042C11.5245 11.4909 10.7704 11.1719 9.97275 11.1719H7.84085L4.51973 14.5075C3.70496 15.3233 3.24731 16.4291 3.24731 17.5821C3.24731 18.735 3.70496 19.8409 4.51973 20.6567L7.84085 23.9923H9.98725C10.7704 23.9923 11.5245 23.6732 12.0901 23.1221L16.47 18.7423C16.876 18.3362 17.4126 18.1332 17.9493 18.1332C18.4859 18.1332 19.0225 18.3362 19.4285 18.7423L23.7938 23.1076C24.345 23.6587 25.0991 23.9778 25.8967 23.9778H27.7241L30.9872 20.7002C31.8054 19.8697 32.2616 18.7491 32.2562 17.5833C32.2507 16.4176 31.7841 15.3013 30.9582 14.4785Z" fill="black"/>
</svg>
