<svg width="46" height="18" viewBox="0 0 46 18" fill="none" xmlns="http://www.w3.org/2000/svg">
<g clip-path="url(#clip0_45_625)">
<path d="M7.6409 3.89727C8.16039 3.72387 8.70446 3.63588 9.25202 3.63672C11.7095 3.63672 13.7613 5.38578 14.2312 7.71062L17.7149 6.99856C16.9154 3.04762 13.4309 0.0742225 9.25202 0.0742225C8.32135 0.0733533 7.39669 0.223476 6.51392 0.518763L7.6409 3.89727Z" fill="#FFCC00"/>
<path d="M3.52958 15.2097L5.88539 12.5408C4.83384 11.6073 4.17031 10.2449 4.17031 8.72704C4.17031 7.21031 4.83288 5.84855 5.8838 4.91617L3.52782 2.24707C1.74188 3.83242 0.61499 6.14818 0.61499 8.72704C0.61499 11.3075 1.74232 13.624 3.52958 15.2097Z" fill="#00A0DE"/>
<path d="M14.2303 9.74902C13.7583 12.0727 11.7087 13.8184 9.25192 13.8184C8.68812 13.8184 8.14528 13.7273 7.63931 13.5569L6.51074 16.9368C7.37154 17.2247 8.29325 17.3807 9.25192 17.3807C13.4268 17.3807 16.9109 14.4122 17.7134 10.4649L14.2303 9.74902Z" fill="#EC3413"/>
<path d="M20.7613 12.6536C20.6472 12.4684 20.492 12.172 20.3987 11.954C19.847 10.6706 19.8206 9.34256 20.2865 8.06768C20.7987 6.6695 21.7772 5.59907 23.0415 5.05407C24.631 4.36865 26.3889 4.50377 27.9123 5.40952C28.88 5.96582 29.5661 6.82473 30.087 8.0391L30.1354 8.15721L30.2255 8.39183C30.24 8.42967 30.2543 8.46645 30.2685 8.50173L20.7613 12.6536ZM23.9359 7.11421C22.8072 7.6003 22.2253 8.66128 22.3449 9.90529L27.1264 7.8433C26.3042 6.87492 25.234 6.55404 23.9359 7.11421ZM29.5708 12.8389L27.7226 11.6007L27.7199 11.6035L27.6209 11.5366C27.3357 12.0005 26.8904 12.3763 26.3287 12.6203C25.2599 13.0861 24.2695 12.9664 23.5582 12.3413L23.4928 12.4409C23.4921 12.4398 23.4919 12.4389 23.4907 12.4389L22.2777 14.2574C22.5795 14.4675 22.9026 14.6449 23.2418 14.7866C24.5818 15.3443 25.9528 15.3185 27.3034 14.7299C28.2804 14.3056 29.0469 13.6587 29.5708 12.8388V12.8389ZM33.5916 2.37598V12.4857L35.1602 13.1227L34.2688 15.2067L32.5374 14.4842C32.1487 14.3157 31.8842 14.0575 31.6839 13.7663C31.4924 13.4694 31.3492 13.0619 31.3492 12.5133V2.37598H33.5916ZM37.6552 9.91023C37.6561 9.04938 38.0355 8.27734 38.6358 7.75262L37.0265 5.95453C35.935 6.92123 35.2475 8.33388 35.2462 9.90776C35.2445 11.4822 35.9309 12.8962 37.0213 13.8655L38.6288 12.0656C38.0314 11.5389 37.6545 10.7691 37.6552 9.91023ZM40.5146 12.7797C40.1977 12.7788 39.8926 12.7264 39.608 12.6315L38.8394 14.9212C39.3786 15.1023 39.9434 15.1948 40.5121 15.1951C43.0603 15.1976 45.188 13.3859 45.6811 10.9776L43.3187 10.4942C43.0501 11.7996 41.8965 12.7806 40.5146 12.7797ZM40.5217 4.63078C39.9537 4.62966 39.3894 4.72069 38.8505 4.90033L39.6124 7.19218C39.905 7.09516 40.2112 7.04567 40.5194 7.04559C41.9045 7.04692 43.0589 8.03372 43.3212 9.34283L45.6838 8.86265C45.1975 6.45075 43.0719 4.63237 40.5217 4.63078Z" fill="black"/>
</g>
<defs>
<clipPath id="clip0_45_625">
<rect width="45.0687" height="17.3759" fill="white" transform="translate(0.61499 0.0742188)"/>
</clipPath>
</defs>
</svg>
