<svg width="75" height="52" viewBox="0 0 75 52" fill="none" xmlns="http://www.w3.org/2000/svg">
<path d="M0 0V4.6875H44.5312V39.8438H30.1031C29.0578 35.8148 25.4344 32.8125 21.0938 32.8125C16.7531 32.8125 13.1297 35.8148 12.0844 39.8438H9.375V28.125H4.6875V44.5312H12.0844C13.1297 48.5602 16.7531 51.5625 21.0938 51.5625C25.4344 51.5625 29.0578 48.5602 30.1031 44.5312H49.5844C50.6297 48.5602 54.2531 51.5625 58.5938 51.5625C62.9344 51.5625 66.5578 48.5602 67.6031 44.5312H75V25.4156L74.8523 25.0477L70.1648 10.9852L69.6562 9.375H49.2188V0H0ZM2.34375 9.375V14.0625H23.4375V9.375H2.34375ZM49.2188 14.0625H66.2836L70.3125 26.0742V39.8438H67.6031C66.5578 35.8148 62.9344 32.8125 58.5938 32.8125C54.2531 32.8125 50.6297 35.8148 49.5844 39.8438H49.2188V14.0625ZM4.6875 18.75V23.4375H18.75V18.75H4.6875ZM21.0938 37.5C23.7117 37.5 25.7812 39.5695 25.7812 42.1875C25.7812 44.8055 23.7117 46.875 21.0938 46.875C18.4758 46.875 16.4062 44.8055 16.4062 42.1875C16.4062 39.5695 18.4758 37.5 21.0938 37.5ZM58.5938 37.5C61.2117 37.5 63.2812 39.5695 63.2812 42.1875C63.2812 44.8055 61.2117 46.875 58.5938 46.875C55.9758 46.875 53.9062 44.8055 53.9062 42.1875C53.9062 39.5695 55.9758 37.5 58.5938 37.5Z" fill="#629677"/>
</svg>
