<svg width="560" height="587" viewBox="0 0 560 587" fill="none" xmlns="http://www.w3.org/2000/svg">
<g filter="url(#filter0_dddddd_31_132)">
<path d="M229.984 92.8608L229.699 92.4497L230.385 93.1596C221.151 105.546 217.44 117.361 216.036 126.072C215.333 130.428 215.207 134.008 215.256 136.495C215.273 137.359 215.311 138.091 215.354 138.677C219.394 131.478 227.321 128.879 236.179 126.137C236.448 126.054 236.717 125.971 236.987 125.888C246.314 123.006 256.715 119.792 265.424 111.083C269.891 106.617 271.389 102.694 271.275 99.2414C271.16 95.7695 269.412 92.6598 267.144 89.8318C266.012 88.421 264.762 87.0933 263.539 85.8349C263.235 85.5221 262.932 85.2129 262.633 84.9076C261.734 83.991 260.87 83.1094 260.118 82.2709C259.116 81.1555 258.273 80.075 257.786 79.0345C257.294 77.9826 257.142 76.9137 257.622 75.8847L258.075 76.0961L257.622 75.8847C259.115 72.687 258.273 69.9244 257.028 67.9217C256.404 66.9173 255.682 66.1129 255.114 65.559C254.865 65.3163 254.648 65.1229 254.483 64.983C251.256 68.0362 247.262 69.2974 242.959 69.8318C239.935 70.2073 236.707 70.2271 233.462 70.247C231.965 70.2562 230.465 70.2654 228.98 70.3096C224.239 70.4507 219.593 70.9446 215.411 72.8624C211.247 74.772 207.505 78.1116 204.607 84.0188L204.159 83.7986L204.607 84.0189C198.78 95.8984 198.656 109.716 200.01 120.607C200.687 126.045 201.73 130.738 202.603 134.071C203.005 135.602 203.371 136.846 203.648 137.742C207.968 121.367 214.32 110.156 219.672 102.983C222.438 99.2763 224.935 96.6495 226.746 94.946C227.651 94.0943 228.385 93.4735 228.895 93.0639C229.149 92.8592 229.348 92.7072 229.485 92.6057C229.553 92.5549 229.605 92.5167 229.641 92.4908L229.683 92.4612L229.694 92.4532L229.698 92.4509L229.699 92.4501C229.699 92.4499 229.699 92.4497 229.984 92.8608Z" fill="#FAC8CD" stroke="#D7BCC8"/>
<path d="M264.034 154.829L264.294 154.402L263.924 155.317C248.856 151.906 236.551 153.311 228.02 155.562C223.754 156.689 220.43 158.027 218.177 159.081C217.395 159.447 216.741 159.779 216.223 160.056C224.442 160.826 230.035 167.016 236.136 173.999C236.321 174.21 236.507 174.423 236.693 174.636C243.112 181.99 250.271 190.191 261.765 194.615C267.66 196.884 271.853 196.661 274.963 195.155C278.089 193.64 280.222 190.781 281.886 187.56C282.716 185.953 283.422 184.272 284.075 182.643C284.238 182.238 284.397 181.836 284.555 181.438C285.028 180.246 285.483 179.098 285.944 178.07C286.557 176.702 287.202 175.493 287.955 174.626C288.717 173.749 289.632 173.176 290.767 173.198C294.295 173.263 296.478 171.372 297.803 169.422C298.468 168.443 298.91 167.457 299.186 166.713C299.307 166.388 299.395 166.11 299.456 165.902C295.356 164.193 292.582 161.055 290.347 157.339C288.776 154.728 287.448 151.785 286.112 148.828C285.496 147.464 284.879 146.096 284.236 144.757C282.182 140.482 279.845 136.436 276.395 133.393C272.96 130.363 268.389 128.299 261.814 128.048C248.591 127.544 235.913 133.04 226.51 138.698C221.814 141.524 217.948 144.382 215.258 146.533C214.021 147.522 213.032 148.361 212.326 148.978C229.045 146.279 241.869 147.533 250.598 149.513C255.107 150.536 258.522 151.753 260.814 152.716C261.96 153.198 262.825 153.616 263.406 153.916C263.697 154.066 263.916 154.186 264.064 154.269C264.139 154.311 264.195 154.343 264.233 154.366L264.277 154.392L264.289 154.399L264.292 154.401L264.293 154.402C264.294 154.402 264.294 154.402 264.034 154.829Z" fill="#FAC8CD" stroke="#D7BCC8"/>
<path d="M225.791 248.541C226.139 248.527 226.429 248.501 226.644 248.477C226.64 244.035 228.465 240.265 231.031 236.77C232.834 234.315 235.037 231.954 237.25 229.581C238.272 228.487 239.295 227.39 240.283 226.28C243.435 222.736 246.267 219.019 247.744 214.662C249.215 210.324 249.356 205.311 247.052 199.148C242.417 186.754 232.456 177.176 223.609 170.683C219.191 167.44 215.063 164.976 212.041 163.323C210.651 162.563 209.496 161.974 208.654 161.561C217.592 175.946 221.381 188.262 222.921 197.078C223.716 201.634 223.911 205.253 223.906 207.739C223.903 208.982 223.851 209.942 223.799 210.594C223.773 210.92 223.746 211.169 223.727 211.337C223.717 211.422 223.709 211.486 223.703 211.53L223.696 211.581L223.694 211.595L223.693 211.599L223.693 211.6C223.693 211.6 223.693 211.601 223.198 211.525L223.693 211.601L222.706 211.611C220.041 196.393 214 185.583 208.632 178.58C205.948 175.078 203.431 172.528 201.59 170.856C200.95 170.275 200.392 169.801 199.936 169.429C202.396 177.31 198.842 184.857 194.753 193.179C194.629 193.432 194.504 193.684 194.379 193.938C190.07 202.698 185.265 212.466 185.616 224.777C185.796 231.09 187.619 234.873 190.208 237.161C192.811 239.462 196.272 240.326 199.885 240.619C201.687 240.765 203.511 240.768 205.266 240.743C205.702 240.737 206.135 240.729 206.562 240.721C207.845 240.697 209.08 240.675 210.206 240.703C211.704 240.741 213.069 240.87 214.159 241.231C215.262 241.595 216.143 242.219 216.562 243.274C217.862 246.555 220.449 247.84 222.76 248.31C223.918 248.546 224.999 248.573 225.791 248.541Z" fill="#FAC8CD" stroke="#D7BCC8"/>
<path d="M180.376 155.203C174.292 160.783 165.949 160.78 156.678 160.623C156.397 160.618 156.115 160.613 155.832 160.608C146.072 160.438 135.187 160.248 124.197 165.806C118.561 168.657 115.914 171.917 114.946 175.233C113.972 178.568 114.663 182.068 115.936 185.462C116.571 187.155 117.345 188.807 118.115 190.384C118.306 190.776 118.498 191.164 118.687 191.548C119.254 192.699 119.8 193.806 120.254 194.837C120.858 196.209 121.322 197.499 121.46 198.639C121.599 199.792 121.411 200.855 120.634 201.683C118.218 204.256 118.157 207.143 118.715 209.434C118.995 210.583 119.43 211.573 119.797 212.276C119.957 212.584 120.104 212.836 120.217 213.02C124.235 211.126 128.423 211.173 132.678 212.007C135.668 212.593 138.742 213.581 141.831 214.574C143.256 215.032 144.684 215.491 146.109 215.912C150.658 217.256 155.226 218.236 159.797 217.718C164.349 217.202 168.946 215.196 173.541 210.487L173.899 210.836L173.541 210.487C182.783 201.017 187.209 187.927 189.319 177.157C190.372 171.779 190.845 166.995 191.054 163.556C191.15 161.976 191.19 160.68 191.206 159.742C181.994 173.954 172.464 182.625 165.141 187.771C161.358 190.43 158.166 192.147 155.914 193.201C154.788 193.728 153.897 194.089 153.285 194.32C152.979 194.435 152.743 194.517 152.582 194.571C152.501 194.598 152.44 194.618 152.397 194.631L152.348 194.646L152.335 194.651L152.331 194.652L152.33 194.652C152.33 194.652 152.329 194.652 152.187 194.173L152.329 194.652L151.899 193.764C164.535 184.875 171.745 174.805 175.797 166.967C177.823 163.047 179.059 159.685 179.788 157.306C180.041 156.48 180.233 155.773 180.376 155.203Z" fill="#FAC8CD" stroke="#D7BCC8"/>
<path d="M156.538 99.3456L156.052 99.462L156.962 99.0802C165.164 112.173 174.833 119.91 182.444 124.374C186.25 126.607 189.542 128.021 191.878 128.876C192.689 129.173 193.385 129.402 193.947 129.575C188.7 123.202 189.148 114.872 189.8 105.622C189.82 105.342 189.84 105.06 189.86 104.778C190.551 95.0409 191.322 84.1817 186.358 72.9098C183.812 67.1296 180.698 64.3122 177.438 63.1685C174.16 62.0185 170.628 62.5216 167.171 63.6116C165.446 64.1554 163.756 64.8398 162.14 65.5242C161.738 65.6943 161.34 65.8649 160.947 66.0333C159.768 66.5387 158.633 67.0248 157.579 67.4228C156.177 67.9522 154.864 68.3471 153.718 68.4238C152.56 68.5014 151.508 68.2562 150.723 67.436C148.283 64.8869 145.402 64.6713 143.085 65.1065C141.922 65.3248 140.911 65.7065 140.189 66.035C139.873 66.1789 139.614 66.3119 139.424 66.4152C141.101 70.5284 140.83 74.7082 139.77 78.9127C139.026 81.8671 137.875 84.884 136.719 87.9155C136.185 89.3142 135.65 90.716 135.154 92.1162C133.568 96.5865 132.346 101.096 132.62 105.689C132.892 110.261 134.65 114.958 139.107 119.799C148.07 129.533 160.905 134.652 171.547 137.333C176.861 138.672 181.613 139.4 185.035 139.792C186.609 139.973 187.901 140.082 188.836 140.148C175.137 130.191 166.987 120.21 162.239 112.623C159.785 108.703 158.241 105.424 157.309 103.119C156.843 101.967 156.53 101.058 156.333 100.435C156.234 100.123 156.165 99.8825 156.119 99.7186C156.097 99.6367 156.08 99.574 156.069 99.531L156.056 99.4814L156.053 99.4679L156.052 99.464L156.052 99.4628C156.052 99.4624 156.052 99.462 156.538 99.3456Z" fill="#FAC8CD" stroke="#D7BCC8"/>
<path d="M96.5772 154.005C95.6199 154.568 95.0611 154.989 94.7998 155.277C94.7883 155.29 94.7777 155.302 94.7681 155.314C94.8124 155.323 94.8665 155.332 94.9318 155.339C95.1345 155.363 95.4018 155.368 95.7345 155.352C96.3991 155.32 97.277 155.204 98.3279 155.008C102.534 154.223 109.294 152.196 115.61 149.49C122.043 146.732 134.016 145.032 145.918 144.579C157.817 144.125 169.795 144.913 176.235 147.213C179.431 148.354 182.395 149.723 185.12 150.99L185.359 151.101C187.999 152.329 190.398 153.444 192.593 154.176C194.855 154.93 196.837 155.253 198.588 154.903C200.314 154.558 201.88 153.544 203.293 151.48C203.322 151.437 203.386 151.307 203.17 150.954C202.957 150.605 202.533 150.162 201.87 149.646C200.554 148.622 198.42 147.409 195.574 146.163C189.89 143.675 181.447 141.094 171.227 139.634C150.788 136.715 123.293 138.289 96.5772 154.005ZM96.5772 154.005L96.3237 153.574L96.5772 154.005Z" fill="#FAC8CD" stroke="#D7BCC8"/>
<path d="M100.774 133.973L100.774 133.973C100.315 134.482 100.259 134.819 100.304 135.029C100.353 135.258 100.562 135.534 101.059 135.826C102.049 136.409 103.787 136.824 105.741 137.107C107.671 137.387 109.734 137.528 111.319 137.598C111.818 137.62 112.268 137.636 112.652 137.646C112.493 137.511 112.318 137.365 112.128 137.211C111.184 136.442 109.889 135.467 108.474 134.635C107.052 133.799 105.546 133.128 104.175 132.929C102.82 132.733 101.649 133 100.774 133.973Z" fill="#FAC8CD" stroke="#D7BCC8"/>
<path d="M86.3745 141.962L86.3745 141.962C86.1292 142.649 86.2207 143.07 86.4332 143.356C86.6703 143.675 87.1432 143.944 87.8962 144.125C89.3958 144.485 91.6548 144.412 94.057 144.129C96.4412 143.848 98.9012 143.371 100.769 142.962C101.412 142.821 101.984 142.689 102.458 142.576C102.131 142.443 101.753 142.293 101.335 142.133C99.8243 141.557 97.7931 140.857 95.6977 140.354C93.5928 139.849 91.4665 139.554 89.7492 139.756C88.0385 139.957 86.8501 140.63 86.3745 141.962Z" fill="#FAC8CD" stroke="#D7BCC8"/>
<path d="M90.0843 152.213C89.9446 152.212 89.7954 152.211 89.6377 152.212C88.6284 152.219 87.2863 152.289 85.937 152.537C84.5812 152.786 83.2576 153.207 82.257 153.894C81.2726 154.569 80.6109 155.491 80.5113 156.784L90.0843 152.213ZM90.0843 152.213C89.8263 152.439 89.5224 152.701 89.184 152.987C88.0925 153.91 86.6484 155.073 85.2238 156.05C83.7759 157.044 82.4253 157.79 81.5013 157.96C81.0425 158.044 80.8216 157.963 80.7149 157.861C80.5999 157.751 80.4586 157.469 80.5113 156.784L90.0843 152.213Z" fill="#FAC8CD" stroke="#D7BCC8"/>
<path d="M96.0415 169.415L96.0415 169.415C96.5985 169.617 96.9529 169.6 97.177 169.511C97.3934 169.426 97.5797 169.239 97.7256 168.896C98.0322 168.175 98.0632 166.987 97.9222 165.632C97.7839 164.305 97.4923 162.914 97.2329 161.848C97.1614 161.554 97.0925 161.286 97.0304 161.052C96.9387 161.186 96.8398 161.333 96.7358 161.493C96.2274 162.273 95.6072 163.322 95.1416 164.417C94.6706 165.525 94.3849 166.619 94.4778 167.511C94.5232 167.947 94.6578 168.322 94.8951 168.632C95.1317 168.941 95.4933 169.215 96.0415 169.415Z" fill="#FAC8CD" stroke="#D7BCC8"/>
<path d="M106.048 170.338C106.705 170.64 107.171 170.645 107.512 170.519C107.859 170.39 108.175 170.089 108.449 169.578C109.008 168.538 109.276 166.853 109.36 164.992C109.444 163.153 109.346 161.222 109.227 159.746C109.186 159.242 109.143 158.793 109.104 158.42C108.916 158.656 108.701 158.932 108.468 159.241C107.676 160.293 106.687 161.714 105.883 163.212C105.072 164.723 104.478 166.256 104.42 167.544C104.391 168.179 104.494 168.731 104.743 169.188C104.989 169.64 105.398 170.037 106.048 170.338Z" fill="#FAC8CD" stroke="#D7BCC8"/>
<path d="M118.312 153.852C118.285 153.62 118.258 153.402 118.232 153.203C118.149 153.344 118.061 153.497 117.969 153.658C117.409 154.646 116.712 155.971 116.157 157.331C115.596 158.704 115.203 160.06 115.203 161.128C115.203 161.657 115.299 162.077 115.486 162.389C115.665 162.689 115.948 162.926 116.404 163.063C116.861 163.2 117.168 163.141 117.396 163.001C117.642 162.849 117.871 162.555 118.063 162.086C118.448 161.141 118.592 159.709 118.592 158.162C118.592 156.631 118.453 155.053 118.312 153.852Z" fill="#FAC8CD" stroke="#D7BCC8"/>
</g>
<g filter="url(#filter1_ddddd_31_132)">
<path d="M376.783 51.9261C370.339 47.7025 358.672 57.4729 346.785 79.5678C342.869 83.4674 336.363 84.5102 324.686 81.0425C313.009 77.5748 304.098 82.7693 297.517 91.0618C290.937 99.3542 292.21 120.343 293.642 127.208C295.075 134.074 283.33 166.947 261.134 153.745C251.034 147.737 246.894 140.576 239.893 137.158C231.511 133.066 220.866 133.44 215.866 135.428C206.691 139.076 202.924 139.048 195.053 155.203C187.183 171.358 186.524 187.132 218.77 225.232C251.016 263.333 219.977 292.439 205.316 287.046C190.655 281.653 194.642 280.842 180.558 273.616C166.474 266.39 160.379 267.247 148.139 271.813C135.899 276.379 121.819 301.212 128.219 321.043C134.619 340.874 133.798 338.022 137.373 348.902C141.347 363.089 141.239 370.406 136.443 382.199C132.999 389.642 129.321 394.044 123.733 397.89C118.146 401.735 111.13 405.897 103.636 406.819C103.636 406.819 109.125 407.424 117.076 406.151C125.027 404.878 136.65 393.867 141.765 385.431C146.881 376.994 148.955 363.937 145.385 347.923L140.857 330.108C135.397 309.59 140.25 292.417 149.614 285.879C158.979 279.342 164.564 280.08 175.437 286.271L180.832 290.429L190.224 297.552C205.756 307.09 221.742 304.019 235.539 293.169C249.336 282.319 265.535 240.293 230.304 210.234C195.073 180.174 209.968 160.844 218.781 155.016C227.594 149.188 232.987 150.955 239.106 156.595C242.837 159.991 246.898 165.904 250.885 168.006C254.871 170.108 270.16 175.093 284.704 170.555C299.233 164.299 308.16 149.785 308.573 140.792C308.986 131.8 309.013 125.268 306.173 113.511C306.173 113.511 302.651 91.8817 320.864 93.1451C339.077 94.4085 347.776 94.8728 353.107 89.8484C378.573 81.1886 383.227 56.1497 376.783 51.9261Z" fill="#629677"/>
</g>
<g filter="url(#filter2_dddddd_31_132)">
<path d="M305.618 351.033L305.399 351.483C305.618 351.033 305.618 351.033 305.618 351.034L305.619 351.034L305.623 351.036L305.633 351.041L305.671 351.06C305.703 351.076 305.75 351.1 305.811 351.133C305.932 351.197 306.108 351.293 306.333 351.424C306.782 351.684 307.424 352.08 308.206 352.626C309.771 353.718 311.899 355.413 314.164 357.831C318.287 362.232 322.862 369.024 325.337 378.924C325.363 378.394 325.382 377.804 325.384 377.16C325.397 374.153 325.074 369.977 323.731 365.303C321.072 356.044 314.402 344.797 298.314 336.826C298.281 336.872 298.245 336.923 298.207 336.978C297.981 337.301 297.656 337.778 297.259 338.39C296.466 339.615 295.389 341.381 294.259 343.54C291.997 347.865 289.535 353.742 288.691 360C287.847 366.253 288.621 372.854 292.79 378.682C296.904 384.435 304.377 389.507 317.062 392.717C317.087 392.541 317.117 392.324 317.15 392.068C317.248 391.3 317.369 390.184 317.463 388.799C317.65 386.028 317.725 382.185 317.276 377.894C316.376 369.3 313.385 358.987 305.073 351.862L305.618 351.033Z" fill="#FAC8CD" stroke="#D7BCC8"/>
<path d="M321.864 332.329L321.454 331.426L321.717 331.851C321.454 331.426 321.455 331.425 321.455 331.425L321.456 331.425L321.459 331.423L321.469 331.417L321.505 331.395C321.536 331.377 321.582 331.35 321.641 331.316C321.761 331.248 321.936 331.15 322.166 331.03C322.626 330.79 323.304 330.459 324.184 330.09C325.944 329.351 328.514 328.46 331.768 327.838C337.692 326.707 345.878 326.472 355.567 329.674C355.134 329.368 354.644 329.037 354.101 328.69C351.567 327.072 347.865 325.112 343.198 323.748C333.951 321.045 320.881 320.668 305.543 330.001C305.564 330.053 305.588 330.11 305.614 330.172C305.766 330.536 305.995 331.066 306.3 331.729C306.911 333.054 307.828 334.908 309.049 337.017C311.494 341.241 315.144 346.464 319.981 350.524C324.814 354.58 330.806 357.455 337.96 357.049C345.022 356.648 353.303 353.045 362.798 344.041C362.663 343.926 362.495 343.784 362.296 343.619C361.699 343.126 360.822 342.427 359.701 341.607C357.46 339.968 354.252 337.85 350.386 335.935C342.642 332.1 332.328 329.115 321.864 332.329Z" fill="#FAC8CD" stroke="#D7BCC8"/>
<path d="M305.784 310.426L304.8 310.55L305.284 310.425C304.8 310.55 304.8 310.55 304.799 310.55L304.799 310.549L304.798 310.545L304.795 310.534L304.785 310.493C304.777 310.458 304.765 310.406 304.75 310.339C304.72 310.205 304.679 310.008 304.632 309.753C304.539 309.243 304.423 308.497 304.33 307.547C304.145 305.648 304.053 302.93 304.422 299.637C305.093 293.643 307.288 285.754 313.212 277.445C312.792 277.768 312.331 278.138 311.84 278.554C309.545 280.496 306.577 283.454 303.894 287.509C298.578 295.543 294.353 307.917 298.735 325.329C298.791 325.324 298.853 325.318 298.92 325.312C299.312 325.274 299.886 325.212 300.609 325.116C302.056 324.924 304.098 324.597 306.474 324.054C311.232 322.967 317.301 321.025 322.609 317.604C327.912 314.187 332.431 309.313 334.158 302.358C335.862 295.494 334.869 286.517 329.075 274.785C328.925 274.88 328.74 274.998 328.523 275.14C327.876 275.564 326.948 276.196 325.834 277.024C323.605 278.68 320.633 281.119 317.661 284.246C311.708 290.509 305.806 299.479 305.784 310.426Z" fill="#FAC8CD" stroke="#D7BCC8"/>
<path d="M279.76 315.009L279.59 315.986L279.612 315.486C279.59 315.986 279.589 315.986 279.589 315.986L279.588 315.986L279.584 315.985L279.573 315.985L279.531 315.982C279.494 315.98 279.442 315.977 279.373 315.971C279.236 315.96 279.036 315.942 278.779 315.912C278.263 315.851 277.517 315.743 276.581 315.553C274.711 315.173 272.085 314.463 269.045 313.144C263.513 310.745 256.615 306.331 250.41 298.23C250.596 298.727 250.814 299.275 251.067 299.867C252.251 302.631 254.208 306.336 257.297 310.091C263.418 317.53 274.007 325.2 291.938 326.12C291.95 326.065 291.962 326.004 291.976 325.938C292.055 325.552 292.164 324.985 292.284 324.266C292.525 322.826 292.811 320.778 292.99 318.347C293.347 313.48 293.27 307.108 291.558 301.03C289.847 294.958 286.513 289.208 280.372 285.516C274.31 281.873 265.437 280.188 252.522 282.285C252.569 282.456 252.628 282.668 252.7 282.916C252.915 283.659 253.247 284.731 253.711 286.039C254.641 288.656 256.1 292.213 258.217 295.972C262.458 303.5 269.302 311.775 279.76 315.009Z" fill="#FAC8CD" stroke="#D7BCC8"/>
<path d="M280.925 342.99L281.887 343.23L281.39 343.172C281.887 343.23 281.887 343.23 281.887 343.231L281.887 343.232L281.886 343.235L281.885 343.247L281.879 343.289C281.875 343.325 281.867 343.377 281.857 343.445C281.836 343.581 281.804 343.779 281.755 344.034C281.657 344.543 281.496 345.28 281.239 346.199C280.725 348.037 279.828 350.605 278.295 353.542C275.503 358.888 270.604 365.45 262.078 371.056C262.586 370.906 263.149 370.729 263.758 370.518C266.6 369.537 270.436 367.852 274.404 365.04C282.265 359.471 290.676 349.46 292.884 331.642C292.83 331.626 292.771 331.609 292.706 331.591C292.327 331.485 291.769 331.335 291.06 331.163C289.642 330.819 287.619 330.386 285.208 330.034C280.379 329.327 274.018 328.945 267.832 330.216C261.653 331.485 255.678 334.397 251.554 340.256C247.483 346.04 245.165 354.769 246.326 367.802C246.501 367.768 246.716 367.724 246.969 367.67C247.726 367.509 248.819 367.255 250.157 366.886C252.834 366.147 256.486 364.948 260.388 363.107C268.202 359.419 276.947 353.188 280.925 342.99Z" fill="#FAC8CD" stroke="#D7BCC8"/>
<path d="M202.126 334.275L201.995 334.758C202.126 334.275 202.126 334.275 202.126 334.275L202.127 334.276L202.13 334.276L202.139 334.279L202.17 334.288C202.197 334.296 202.236 334.307 202.285 334.322C202.385 334.353 202.53 334.399 202.714 334.464C203.084 334.593 203.614 334.794 204.269 335.087C205.579 335.671 207.388 336.62 209.401 338.083C212.925 340.643 217.067 344.775 220.246 351.266C220.221 351.121 220.194 350.973 220.166 350.82C219.753 348.62 218.93 345.61 217.292 342.38C214.058 336.001 207.629 328.73 194.799 325.144C194.795 325.153 194.791 325.162 194.787 325.171C194.667 325.439 194.496 325.834 194.291 326.338C193.883 327.346 193.342 328.791 192.818 330.532C191.769 334.018 190.793 338.666 191.053 343.36C191.314 348.048 192.804 352.752 196.656 356.416C200.442 360.016 206.57 362.673 216.237 363.259C216.232 363.157 216.225 363.041 216.217 362.912C216.181 362.336 216.113 361.502 215.987 360.475C215.735 358.419 215.249 355.593 214.318 352.514C212.451 346.345 208.814 339.229 201.747 335.192L202.126 334.275Z" fill="#FAC8CD" stroke="#D7BCC8"/>
<path d="M211.447 318.484L210.875 317.674L211.213 318.042C210.875 317.674 210.875 317.673 210.875 317.673L210.876 317.673L210.878 317.671L210.885 317.664L210.909 317.643C210.93 317.624 210.96 317.598 211 317.564C211.079 317.496 211.196 317.399 211.349 317.277C211.655 317.034 212.109 316.693 212.706 316.296C213.901 315.502 215.67 314.481 217.981 313.562C222.029 311.953 227.735 310.661 234.92 311.446C234.784 311.39 234.645 311.333 234.501 311.276C232.42 310.448 229.437 309.534 225.832 309.191C218.713 308.514 209.131 310.059 199.24 318.984C199.245 318.992 199.25 319 199.256 319.009C199.418 319.253 199.66 319.609 199.977 320.051C200.611 320.936 201.543 322.165 202.733 323.538C205.119 326.289 208.524 329.599 212.63 331.889C216.731 334.175 221.503 335.431 226.659 334.134C231.726 332.861 237.248 329.102 242.911 321.246C242.822 321.196 242.721 321.139 242.607 321.077C242.102 320.8 241.361 320.411 240.425 319.968C238.553 319.082 235.906 317.982 232.806 317.123C226.594 315.402 218.637 314.67 211.447 318.484Z" fill="#FAC8CD" stroke="#D7BCC8"/>
<path d="M196.617 304.531L195.674 304.839L196.126 304.625C195.674 304.839 195.674 304.838 195.674 304.838L195.674 304.837L195.672 304.835L195.668 304.826L195.655 304.797C195.643 304.771 195.627 304.735 195.606 304.687C195.565 304.591 195.506 304.451 195.436 304.269C195.294 303.904 195.102 303.369 194.9 302.681C194.494 301.305 194.041 299.313 193.847 296.833C193.507 292.491 193.96 286.658 196.833 280.027C196.739 280.139 196.644 280.256 196.547 280.376C195.141 282.119 193.386 284.698 191.993 288.041C189.241 294.642 187.884 304.252 193.486 316.34C193.496 316.337 193.505 316.334 193.515 316.331C193.796 316.248 194.208 316.122 194.724 315.951C195.756 315.607 197.206 315.08 198.87 314.348C202.203 312.883 206.371 310.608 209.773 307.362C213.169 304.121 215.78 299.933 216.066 294.624C216.347 289.408 214.389 283.021 208.559 275.288C208.484 275.359 208.4 275.439 208.307 275.529C207.893 275.93 207.303 276.523 206.603 277.286C205.203 278.813 203.369 281.016 201.632 283.724C198.151 289.15 195.1 296.535 196.617 304.531Z" fill="#FAC8CD" stroke="#D7BCC8"/>
<path d="M178.043 311.461L178.06 312.453L177.988 311.958C178.06 312.453 178.06 312.453 178.059 312.453L178.059 312.453L178.056 312.454L178.047 312.455L178.014 312.459C177.987 312.463 177.947 312.468 177.895 312.473C177.791 312.485 177.64 312.5 177.445 312.514C177.055 312.542 176.488 312.568 175.771 312.56C174.336 312.545 172.299 312.393 169.872 311.851C165.62 310.902 160.177 308.757 154.681 304.065C154.761 304.187 154.844 304.313 154.931 304.441C156.184 306.296 158.136 308.731 160.922 311.044C166.425 315.611 175.215 319.728 188.414 317.92C188.414 317.91 188.414 317.9 188.414 317.89C188.418 317.596 188.418 317.166 188.405 316.622C188.38 315.535 188.301 313.994 188.09 312.189C187.667 308.572 186.716 303.92 184.611 299.716C182.509 295.518 179.271 291.794 174.28 289.962C169.376 288.163 162.696 288.161 153.592 291.465C153.638 291.557 153.69 291.661 153.749 291.776C154.011 292.29 154.404 293.028 154.928 293.921C155.977 295.707 157.545 298.107 159.624 300.562C163.789 305.481 169.954 310.565 178.043 311.461Z" fill="#FAC8CD" stroke="#D7BCC8"/>
<path d="M182.704 331.947L183.694 332.001L183.195 332.038C183.694 332.001 183.694 332.001 183.694 332.002L183.694 332.003L183.694 332.006L183.695 332.015L183.697 332.047C183.698 332.075 183.7 332.115 183.702 332.167C183.706 332.272 183.71 332.423 183.71 332.619C183.711 333.01 183.696 333.578 183.636 334.293C183.517 335.722 183.219 337.743 182.504 340.125C181.251 344.297 178.72 349.572 173.645 354.715C173.773 354.644 173.904 354.57 174.038 354.493C175.979 353.376 178.547 351.606 181.055 348.993C186.006 343.833 190.745 335.363 189.891 322.068C189.881 322.067 189.871 322.067 189.861 322.066C189.568 322.041 189.139 322.01 188.596 321.983C187.509 321.931 185.967 321.898 184.151 321.979C180.514 322.14 175.805 322.754 171.461 324.551C167.122 326.345 163.175 329.306 160.989 334.153C158.842 338.915 158.359 345.577 161 354.895C161.095 354.856 161.202 354.812 161.321 354.761C161.852 354.537 162.617 354.198 163.545 353.739C165.402 352.822 167.909 351.43 170.507 349.534C175.713 345.733 181.228 339.951 182.704 331.947Z" fill="#FAC8CD" stroke="#D7BCC8"/>
<path d="M373.88 235.364L374.425 234.535L374.206 234.985C374.425 234.535 374.425 234.535 374.426 234.535L374.427 234.536L374.432 234.539L374.449 234.547C374.464 234.555 374.486 234.566 374.515 234.58C374.571 234.609 374.655 234.652 374.763 234.709C374.979 234.824 375.296 234.997 375.699 235.231C376.507 235.7 377.666 236.414 379.08 237.401C381.907 239.374 385.756 242.44 389.856 246.816C397.672 255.159 406.395 268.258 410.703 287.618C410.843 286.133 410.972 284.128 410.982 281.709C411.005 276.208 410.414 268.568 407.958 260.019C403.072 243.008 390.795 222.361 361.183 207.793C361.08 207.936 360.947 208.124 360.785 208.356C360.371 208.947 359.776 209.819 359.052 210.937C357.603 213.175 355.637 216.399 353.575 220.342C349.447 228.232 344.944 238.975 343.398 250.428C341.854 261.875 343.267 274.001 350.929 284.714C358.538 295.353 372.36 304.672 395.766 310.521C395.768 310.513 395.769 310.505 395.77 310.496C395.827 310.129 395.905 309.585 395.995 308.883C396.174 307.479 396.396 305.441 396.567 302.912C396.909 297.853 397.045 290.835 396.225 282.998C394.584 267.313 389.118 248.425 373.88 235.364Z" fill="#FAC8CD" stroke="#D7BCC8"/>
<path d="M404.047 199.74L403.638 198.836L403.901 199.262C403.638 198.836 403.638 198.836 403.639 198.836L403.64 198.835L403.645 198.832L403.661 198.822C403.676 198.813 403.696 198.801 403.724 198.784C403.779 198.752 403.86 198.704 403.966 198.644C404.179 198.522 404.494 198.348 404.908 198.131C405.735 197.699 406.958 197.102 408.548 196.435C411.728 195.1 416.376 193.487 422.267 192.362C433.495 190.218 449.229 189.85 467.892 196.562C466.712 195.649 465.087 194.468 463.048 193.166C458.412 190.206 451.64 186.62 443.102 184.125C426.115 179.158 402.104 178.493 373.96 195.728C374.026 195.891 374.113 196.105 374.222 196.366C374.501 197.031 374.919 198 375.477 199.211C376.594 201.632 378.268 205.017 380.497 208.868C384.957 216.575 391.628 226.124 400.48 233.553C409.327 240.979 420.33 246.268 433.481 245.522C446.539 244.78 461.805 238.083 479.262 221.43C479.256 221.425 479.249 221.419 479.243 221.414C478.962 221.17 478.545 220.812 478 220.361C476.909 219.459 475.305 218.182 473.259 216.685C469.167 213.691 463.309 209.823 456.249 206.326C442.116 199.327 423.232 193.846 404.047 199.74Z" fill="#FAC8CD" stroke="#D7BCC8"/>
<path d="M374.497 160.275L373.513 160.399L373.997 160.274C373.513 160.399 373.513 160.399 373.513 160.398L373.513 160.397L373.511 160.391L373.507 160.373C373.502 160.356 373.497 160.333 373.489 160.302C373.474 160.24 373.453 160.148 373.426 160.029C373.373 159.79 373.299 159.437 373.215 158.978C373.047 158.059 372.838 156.714 372.671 154.998C372.336 151.566 372.169 146.649 372.836 140.689C374.108 129.328 378.409 114.189 390.337 98.3451C389.116 99.202 387.508 100.405 385.661 101.969C381.462 105.522 376.035 110.932 371.127 118.35C361.36 133.109 353.626 155.851 361.769 187.832C361.945 187.817 362.175 187.796 362.456 187.769C363.174 187.7 364.224 187.587 365.545 187.411C368.188 187.061 371.917 186.463 376.254 185.472C384.936 183.489 396.03 179.94 405.744 173.68C415.454 167.424 423.759 158.477 426.934 145.693C430.086 133 428.201 116.436 417.454 94.836C417.447 94.8404 417.44 94.8449 417.433 94.8494C417.117 95.045 416.652 95.338 416.06 95.7257C414.876 96.5012 413.181 97.6554 411.147 99.1673C407.077 102.192 401.65 106.644 396.222 112.355C385.358 123.786 374.539 140.206 374.497 160.275Z" fill="#FAC8CD" stroke="#D7BCC8"/>
<path d="M327.434 169.007L327.264 169.984L327.286 169.485C327.264 169.984 327.264 169.984 327.263 169.984L327.261 169.984L327.256 169.984L327.237 169.983C327.22 169.982 327.196 169.98 327.164 169.978C327.1 169.975 327.007 169.968 326.884 169.958C326.64 169.939 326.281 169.906 325.818 169.852C324.89 169.743 323.543 169.548 321.853 169.205C318.474 168.517 313.724 167.234 308.223 164.847C297.735 160.298 284.524 151.744 272.877 135.692C273.338 137.11 274.017 139.001 274.969 141.225C277.135 146.282 280.714 153.058 286.365 159.926C297.609 173.594 317.081 187.661 350.043 189.259C350.081 189.087 350.129 188.861 350.185 188.584C350.33 187.877 350.529 186.841 350.75 185.526C351.19 182.897 351.712 179.157 352.038 174.72C352.689 165.839 352.552 154.191 349.418 143.068C346.286 131.95 340.17 121.385 328.881 114.599C317.671 107.861 301.283 104.803 277.48 108.739C277.482 108.747 277.484 108.755 277.486 108.764C277.581 109.123 277.725 109.653 277.921 110.333C278.315 111.693 278.921 113.651 279.77 116.04C281.467 120.818 284.131 127.312 287.998 134.177C295.738 147.918 308.26 163.078 327.434 169.007Z" fill="#FAC8CD" stroke="#D7BCC8"/>
<path d="M330.055 219.678L331.018 219.918L330.521 219.859C331.018 219.918 331.018 219.918 331.018 219.919L331.018 219.92L331.017 219.926L331.014 219.945C331.012 219.961 331.009 219.986 331.005 220.017C330.997 220.08 330.983 220.173 330.965 220.294C330.928 220.537 330.869 220.892 330.782 221.351C330.606 222.268 330.315 223.598 329.851 225.258C328.923 228.579 327.301 233.224 324.525 238.54C319.233 248.673 309.751 261.235 292.902 271.696C294.35 271.338 296.284 270.797 298.571 270.007C303.771 268.211 310.786 265.129 318.044 259.987C332.485 249.756 347.917 231.347 351.883 198.585C351.714 198.535 351.492 198.471 351.22 198.395C350.525 198.2 349.506 197.926 348.211 197.612C345.62 196.984 341.927 196.194 337.525 195.55C328.714 194.261 317.087 193.559 305.766 195.885C294.452 198.209 283.474 203.548 275.894 214.32C268.366 225.016 264.137 241.141 266.349 265.166C266.357 265.164 266.366 265.162 266.374 265.161C266.739 265.093 267.279 264.987 267.971 264.84C269.355 264.545 271.353 264.081 273.796 263.407C278.684 262.058 285.353 259.868 292.479 256.505C306.741 249.774 322.763 238.375 330.055 219.678Z" fill="#FAC8CD" stroke="#D7BCC8"/>
</g>
<defs>
<filter id="filter0_dddddd_31_132" x="0" y="62.0137" width="380.053" height="367.038" filterUnits="userSpaceOnUse" color-interpolation-filters="sRGB">
<feFlood flood-opacity="0" result="BackgroundImageFix"/>
<feColorMatrix in="SourceAlpha" type="matrix" values="0 0 0 0 0 0 0 0 0 0 0 0 0 0 0 0 0 0 127 0" result="hardAlpha"/>
<feOffset dy="2.76726"/>
<feGaussianBlur stdDeviation="1.1069"/>
<feColorMatrix type="matrix" values="0 0 0 0 0 0 0 0 0 0 0 0 0 0 0 0 0 0 0.0196802 0"/>
<feBlend mode="normal" in2="BackgroundImageFix" result="effect1_dropShadow_31_132"/>
<feColorMatrix in="SourceAlpha" type="matrix" values="0 0 0 0 0 0 0 0 0 0 0 0 0 0 0 0 0 0 127 0" result="hardAlpha"/>
<feOffset dy="6.6501"/>
<feGaussianBlur stdDeviation="2.66004"/>
<feColorMatrix type="matrix" values="0 0 0 0 0 0 0 0 0 0 0 0 0 0 0 0 0 0 0.0282725 0"/>
<feBlend mode="normal" in2="effect1_dropShadow_31_132" result="effect2_dropShadow_31_132"/>
<feColorMatrix in="SourceAlpha" type="matrix" values="0 0 0 0 0 0 0 0 0 0 0 0 0 0 0 0 0 0 127 0" result="hardAlpha"/>
<feOffset dy="12.5216"/>
<feGaussianBlur stdDeviation="5.00862"/>
<feColorMatrix type="matrix" values="0 0 0 0 0 0 0 0 0 0 0 0 0 0 0 0 0 0 0.035 0"/>
<feBlend mode="normal" in2="effect2_dropShadow_31_132" result="effect3_dropShadow_31_132"/>
<feColorMatrix in="SourceAlpha" type="matrix" values="0 0 0 0 0 0 0 0 0 0 0 0 0 0 0 0 0 0 127 0" result="hardAlpha"/>
<feOffset dy="22.3363"/>
<feGaussianBlur stdDeviation="8.93452"/>
<feColorMatrix type="matrix" values="0 0 0 0 0 0 0 0 0 0 0 0 0 0 0 0 0 0 0.0417275 0"/>
<feBlend mode="normal" in2="effect3_dropShadow_31_132" result="effect4_dropShadow_31_132"/>
<feColorMatrix in="SourceAlpha" type="matrix" values="0 0 0 0 0 0 0 0 0 0 0 0 0 0 0 0 0 0 127 0" result="hardAlpha"/>
<feOffset dy="41.7776"/>
<feGaussianBlur stdDeviation="16.711"/>
<feColorMatrix type="matrix" values="0 0 0 0 0 0 0 0 0 0 0 0 0 0 0 0 0 0 0.0503198 0"/>
<feBlend mode="normal" in2="effect4_dropShadow_31_132" result="effect5_dropShadow_31_132"/>
<feColorMatrix in="SourceAlpha" type="matrix" values="0 0 0 0 0 0 0 0 0 0 0 0 0 0 0 0 0 0 127 0" result="hardAlpha"/>
<feOffset dy="100"/>
<feGaussianBlur stdDeviation="40"/>
<feColorMatrix type="matrix" values="0 0 0 0 0 0 0 0 0 0 0 0 0 0 0 0 0 0 0.07 0"/>
<feBlend mode="normal" in2="effect5_dropShadow_31_132" result="effect6_dropShadow_31_132"/>
<feBlend mode="normal" in="SourceGraphic" in2="effect6_dropShadow_31_132" result="shape"/>
</filter>
<filter id="filter1_ddddd_31_132" x="23.6356" y="50.9644" width="435.752" height="535.998" filterUnits="userSpaceOnUse" color-interpolation-filters="sRGB">
<feFlood flood-opacity="0" result="BackgroundImageFix"/>
<feColorMatrix in="SourceAlpha" type="matrix" values="0 0 0 0 0 0 0 0 0 0 0 0 0 0 0 0 0 0 127 0" result="hardAlpha"/>
<feOffset dy="3.43489"/>
<feGaussianBlur stdDeviation="1.37396"/>
<feColorMatrix type="matrix" values="0 0 0 0 0 0 0 0 0 0 0 0 0 0 0 0 0 0 0.0298742 0"/>
<feBlend mode="normal" in2="BackgroundImageFix" result="effect1_dropShadow_31_132"/>
<feColorMatrix in="SourceAlpha" type="matrix" values="0 0 0 0 0 0 0 0 0 0 0 0 0 0 0 0 0 0 127 0" result="hardAlpha"/>
<feOffset dy="8.6871"/>
<feGaussianBlur stdDeviation="3.47484"/>
<feColorMatrix type="matrix" values="0 0 0 0 0 0 0 0 0 0 0 0 0 0 0 0 0 0 0.0409414 0"/>
<feBlend mode="normal" in2="effect1_dropShadow_31_132" result="effect2_dropShadow_31_132"/>
<feColorMatrix in="SourceAlpha" type="matrix" values="0 0 0 0 0 0 0 0 0 0 0 0 0 0 0 0 0 0 127 0" result="hardAlpha"/>
<feOffset dy="17.7209"/>
<feGaussianBlur stdDeviation="7.08835"/>
<feColorMatrix type="matrix" values="0 0 0 0 0 0 0 0 0 0 0 0 0 0 0 0 0 0 0.0466567 0"/>
<feBlend mode="normal" in2="effect2_dropShadow_31_132" result="effect3_dropShadow_31_132"/>
<feColorMatrix in="SourceAlpha" type="matrix" values="0 0 0 0 0 0 0 0 0 0 0 0 0 0 0 0 0 0 127 0" result="hardAlpha"/>
<feOffset dy="36.5016"/>
<feGaussianBlur stdDeviation="14.6007"/>
<feColorMatrix type="matrix" values="0 0 0 0 0 0 0 0 0 0 0 0 0 0 0 0 0 0 0.0518838 0"/>
<feBlend mode="normal" in2="effect3_dropShadow_31_132" result="effect4_dropShadow_31_132"/>
<feColorMatrix in="SourceAlpha" type="matrix" values="0 0 0 0 0 0 0 0 0 0 0 0 0 0 0 0 0 0 127 0" result="hardAlpha"/>
<feOffset dy="100"/>
<feGaussianBlur stdDeviation="40"/>
<feColorMatrix type="matrix" values="0 0 0 0 0 0 0 0 0 0 0 0 0 0 0 0 0 0 0.07 0"/>
<feBlend mode="normal" in2="effect4_dropShadow_31_132" result="effect5_dropShadow_31_132"/>
<feBlend mode="normal" in="SourceGraphic" in2="effect5_dropShadow_31_132" result="shape"/>
</filter>
<filter id="filter2_dddddd_31_132" x="72.6763" y="94.1265" width="487.324" height="479.208" filterUnits="userSpaceOnUse" color-interpolation-filters="sRGB">
<feFlood flood-opacity="0" result="BackgroundImageFix"/>
<feColorMatrix in="SourceAlpha" type="matrix" values="0 0 0 0 0 0 0 0 0 0 0 0 0 0 0 0 0 0 127 0" result="hardAlpha"/>
<feOffset dy="2.76726"/>
<feGaussianBlur stdDeviation="1.1069"/>
<feColorMatrix type="matrix" values="0 0 0 0 0 0 0 0 0 0 0 0 0 0 0 0 0 0 0.0196802 0"/>
<feBlend mode="normal" in2="BackgroundImageFix" result="effect1_dropShadow_31_132"/>
<feColorMatrix in="SourceAlpha" type="matrix" values="0 0 0 0 0 0 0 0 0 0 0 0 0 0 0 0 0 0 127 0" result="hardAlpha"/>
<feOffset dy="6.6501"/>
<feGaussianBlur stdDeviation="2.66004"/>
<feColorMatrix type="matrix" values="0 0 0 0 0 0 0 0 0 0 0 0 0 0 0 0 0 0 0.0282725 0"/>
<feBlend mode="normal" in2="effect1_dropShadow_31_132" result="effect2_dropShadow_31_132"/>
<feColorMatrix in="SourceAlpha" type="matrix" values="0 0 0 0 0 0 0 0 0 0 0 0 0 0 0 0 0 0 127 0" result="hardAlpha"/>
<feOffset dy="12.5216"/>
<feGaussianBlur stdDeviation="5.00862"/>
<feColorMatrix type="matrix" values="0 0 0 0 0 0 0 0 0 0 0 0 0 0 0 0 0 0 0.035 0"/>
<feBlend mode="normal" in2="effect2_dropShadow_31_132" result="effect3_dropShadow_31_132"/>
<feColorMatrix in="SourceAlpha" type="matrix" values="0 0 0 0 0 0 0 0 0 0 0 0 0 0 0 0 0 0 127 0" result="hardAlpha"/>
<feOffset dy="22.3363"/>
<feGaussianBlur stdDeviation="8.93452"/>
<feColorMatrix type="matrix" values="0 0 0 0 0 0 0 0 0 0 0 0 0 0 0 0 0 0 0.0417275 0"/>
<feBlend mode="normal" in2="effect3_dropShadow_31_132" result="effect4_dropShadow_31_132"/>
<feColorMatrix in="SourceAlpha" type="matrix" values="0 0 0 0 0 0 0 0 0 0 0 0 0 0 0 0 0 0 127 0" result="hardAlpha"/>
<feOffset dy="41.7776"/>
<feGaussianBlur stdDeviation="16.711"/>
<feColorMatrix type="matrix" values="0 0 0 0 0 0 0 0 0 0 0 0 0 0 0 0 0 0 0.0503198 0"/>
<feBlend mode="normal" in2="effect4_dropShadow_31_132" result="effect5_dropShadow_31_132"/>
<feColorMatrix in="SourceAlpha" type="matrix" values="0 0 0 0 0 0 0 0 0 0 0 0 0 0 0 0 0 0 127 0" result="hardAlpha"/>
<feOffset dy="100"/>
<feGaussianBlur stdDeviation="40"/>
<feColorMatrix type="matrix" values="0 0 0 0 0 0 0 0 0 0 0 0 0 0 0 0 0 0 0.07 0"/>
<feBlend mode="normal" in2="effect5_dropShadow_31_132" result="effect6_dropShadow_31_132"/>
<feBlend mode="normal" in="SourceGraphic" in2="effect6_dropShadow_31_132" result="shape"/>
</filter>
</defs>
</svg>
