<svg width="57" height="51" viewBox="0 0 57 51" fill="none" xmlns="http://www.w3.org/2000/svg">
<path d="M45.9508 2.67484C47.8008 4.12541 49.0757 6.46842 49.597 8.92192C49.6602 8.9419 49.7217 8.96653 49.7812 8.99558L55.575 11.6757C55.8988 11.8244 56.1734 12.0627 56.3661 12.3624C56.5589 12.6621 56.6619 13.0108 56.6629 13.3671V48.4046C56.6608 48.6957 56.5914 48.9823 56.4599 49.242C56.3285 49.5017 56.1387 49.7274 55.9054 49.9014C55.672 50.0754 55.4016 50.193 55.1152 50.245C54.8288 50.2969 54.5343 50.2818 54.2547 50.2009L38.1936 45.6678L19.0982 50.9318C18.7537 51.0264 18.3895 51.0225 18.0471 50.9205L1.34291 45.9483C0.956812 45.8349 0.617597 45.6 0.375662 45.2784C0.133727 44.9569 0.00198224 44.5658 0 44.1634L0 8.49695C0 7.25037 1.21259 6.35509 2.42234 6.7064L18.5769 11.4123L26.7874 8.89926C26.9004 8.8659 27.016 8.8422 27.133 8.82843C27.4503 6.96989 28.3371 5.185 29.8245 3.44545C31.5896 1.37726 34.6862 0.164671 37.7035 0.0201802C40.8341 -0.129976 43.2253 0.538646 45.948 2.672L45.9508 2.67484ZM3.77658 10.9986V42.7723L17.574 46.8776V15.0132L3.77658 10.9986ZM27.0339 12.7382L21.3506 14.4749V46.4299L35.7005 42.4805V33.1453C35.7005 32.114 36.5476 31.2783 37.5902 31.2783C38.6328 31.2783 39.477 32.1141 39.477 33.1481V42.1491L52.8863 45.9313V14.5542L49.7132 13.081C49.6594 13.3926 49.5914 13.6986 49.5064 13.9961C48.8903 16.1684 47.8568 18.1999 46.4636 19.9769L39.4459 28.7398C39.2611 28.9702 39.0251 29.1543 38.7567 29.2775C38.4883 29.4006 38.1948 29.4595 37.8996 29.4493C37.6045 29.4391 37.3157 29.3602 37.0564 29.2188C36.7971 29.0775 36.5744 28.8775 36.4059 28.6349L29.8472 19.1354C28.7649 17.6225 28.0056 16.2739 27.5778 15.067C27.3093 14.3137 27.1268 13.5325 27.0339 12.7382ZM37.8848 3.75427C35.828 3.85343 33.7144 4.6807 32.7087 5.85646C31.4989 7.27303 30.9039 8.59894 30.785 9.94186C30.6433 11.5596 30.7396 12.7013 31.1419 13.8318C31.4394 14.6675 32.0315 15.7271 32.9466 17.0049L38.0775 24.4334L43.4888 17.6763C44.5805 16.2812 45.3898 14.6866 45.8715 12.9818C46.5514 10.602 45.5258 7.10588 43.6049 5.60431C41.6359 4.06025 40.1485 3.64377 37.8877 3.75427H37.8848ZM38.2758 5.72897C41.4036 5.72897 43.9421 8.2363 43.9421 11.3301C43.938 12.07 43.7882 12.8018 43.5012 13.4838C43.2142 14.1657 42.7956 14.7845 42.2694 15.3046C41.7432 15.8248 41.1197 16.2362 40.4344 16.5153C39.7492 16.7944 39.0157 16.9357 38.2758 16.9312C35.148 16.9312 32.6095 14.4239 32.6095 11.3301C32.6095 8.2363 35.148 5.72897 38.2758 5.72897ZM38.2758 9.46305C38.0291 9.46156 37.7846 9.50867 37.5561 9.60169C37.3276 9.69471 37.1197 9.83182 36.9443 10.0052C36.7688 10.1786 36.6292 10.3848 36.5334 10.6121C36.4376 10.8395 36.3876 11.0834 36.3861 11.3301C36.3861 12.3614 37.2332 13.1971 38.2758 13.1971C38.5225 13.1983 38.7669 13.1508 38.9953 13.0574C39.2236 12.9641 39.4313 12.8266 39.6065 12.653C39.7817 12.4794 39.921 12.2729 40.0164 12.0454C40.1119 11.818 40.1616 11.5739 40.1627 11.3273C40.1589 10.8301 39.9582 10.3546 39.6045 10.0052C39.2508 9.65575 38.773 9.46079 38.2758 9.46305Z" fill="#629677"/>
</svg>
