<svg width="60" height="53" viewBox="0 0 60 53" fill="none" xmlns="http://www.w3.org/2000/svg">
<path d="M20.1459 20.1727H11.8213V49.6867H20.1459M20.1459 20.1727V49.6867M20.1459 20.1727L33.828 3.75293H37.3373L32.5541 18.0935C32.3988 18.5538 32.3555 19.0444 32.4278 19.5248C32.5 20.0052 32.6857 20.4615 32.9695 20.8557C33.2533 21.25 33.627 21.5709 34.0597 21.7919C34.4923 22.0129 34.9713 22.1276 35.4571 22.1264H56.8929V27.6967L48.6462 49.6867H20.1459" stroke="#629677" stroke-width="5"/>
<path d="M11.8212 0L0 5.25386V13.1347C0 20.4244 5.04371 27.2413 11.8212 28.8962C18.5987 27.2413 23.6424 20.4244 23.6424 13.1347V5.25386L11.8212 0Z" fill="#629677"/>
<path d="M19.1335 11.0688L10.299 19.9033C10.2221 19.9805 10.1306 20.0418 10.03 20.0836C9.9293 20.1254 9.82136 20.1469 9.71235 20.1469C9.60335 20.1469 9.49541 20.1254 9.39474 20.0836C9.29406 20.0418 9.20263 19.9805 9.12569 19.9033L5.26058 16.0382C5.18354 15.9611 5.12243 15.8697 5.08073 15.769C5.03904 15.6684 5.01758 15.5605 5.01758 15.4515C5.01758 15.3426 5.03904 15.2347 5.08073 15.134C5.12243 15.0334 5.18354 14.9419 5.26058 14.8649C5.33763 14.7878 5.42909 14.7267 5.52975 14.685C5.63041 14.6433 5.7383 14.6218 5.84725 14.6218C5.95621 14.6218 6.06409 14.6433 6.16475 14.685C6.26541 14.7267 6.35688 14.7878 6.43392 14.8649L9.71305 18.144L17.9616 9.89681C18.1172 9.74122 18.3282 9.65381 18.5483 9.65381C18.7683 9.65381 18.9793 9.74122 19.1349 9.89681C19.2905 10.0524 19.3779 10.2634 19.3779 10.4835C19.3779 10.7035 19.2905 10.9146 19.1349 11.0701L19.1335 11.0688Z" fill="white"/>
</svg>
