<svg width="45" height="15" viewBox="0 0 45 15" fill="none" xmlns="http://www.w3.org/2000/svg">
<g clip-path="url(#clip0_45_616)">
<path d="M23.1826 5.19849C23.1575 7.15731 24.9459 8.25034 26.293 8.90027C27.6771 9.56705 28.142 9.99467 28.1365 10.591C28.1262 11.5036 27.0325 11.9064 26.009 11.922C24.2234 11.9494 23.1852 11.4447 22.3598 11.063L21.7166 14.0429C22.5447 14.4207 24.078 14.7502 25.6681 14.7646C29.4006 14.7646 31.8425 12.9405 31.8558 10.1124C31.8704 6.52302 26.8411 6.32435 26.8754 4.72001C26.8873 4.23354 27.3561 3.71441 28.3835 3.58241C28.8921 3.51574 30.2959 3.46471 31.8876 4.19033L32.5122 1.30722C31.6563 0.998666 30.5562 0.70321 29.1866 0.70321C25.6735 0.70321 23.2025 2.55215 23.1826 5.19849ZM38.5149 0.951549C37.8333 0.951549 37.2589 1.34515 37.0026 1.94916L31.6709 14.5529H35.4007L36.1429 12.5221H40.7006L41.1311 14.5529H44.4185L41.5498 0.951549H38.5149ZM39.0366 4.62578L40.113 9.73323H37.1651L39.0366 4.62578ZM18.6604 0.951718L15.7205 14.5527H19.2747L22.2132 0.951379H18.6604M13.4026 0.951379L9.70326 10.2092L8.20682 2.33766C8.03123 1.45894 7.33781 0.951549 6.56777 0.951549H0.520492L0.435791 1.34651C1.67727 1.61322 3.08781 2.04339 3.94238 2.50367C4.46536 2.78484 4.61449 3.03062 4.7863 3.69876L7.62061 14.5529H11.3765L17.1348 0.951549L13.4026 0.951379Z" fill="url(#paint0_linear_45_616)"/>
</g>
<defs>
<linearGradient id="paint0_linear_45_616" x1="2022.5" y1="42.9719" x2="2062.79" y2="-1401.18" gradientUnits="userSpaceOnUse">
<stop stop-color="#222357"/>
<stop offset="1" stop-color="#254AA5"/>
</linearGradient>
<clipPath id="clip0_45_616">
<rect width="43.9827" height="14.1179" fill="white" transform="translate(0.435791 0.703125)"/>
</clipPath>
</defs>
</svg>
